<svg width="40" height="40" viewBox="0 0 40 40" fill="none" xmlns="http://www.w3.org/2000/svg">
<g clip-path="url(#clip0)">
<path d="M36.9749 30.2552C36.5452 30.2155 36.164 30.5292 36.1231 30.9589C35.9156 33.133 34.8734 35.0965 33.1891 36.4869C31.5049 37.8776 29.379 38.5291 27.2056 38.3213C25.0312 38.1138 23.068 37.0716 21.6773 35.3873C21.5607 35.246 21.4496 35.1014 21.3434 34.9543C20.261 33.4495 19.7248 31.6254 19.8157 29.7794C19.816 29.7733 19.8166 29.7675 19.8169 29.7614C19.823 29.6424 19.8316 29.5231 19.8429 29.4041C19.8545 29.2844 19.8688 29.166 19.8853 29.0476C20.1145 27.4021 20.8539 25.8481 21.9834 24.6302C22.9996 23.5343 24.3128 22.7247 25.7502 22.3148C26.7252 22.0365 27.7512 21.9446 28.7604 22.0411C30.0074 22.1601 31.1829 22.5525 32.2288 23.1919L31.6944 23.2862C31.2696 23.3613 30.9858 23.7665 31.0608 24.1913C31.1277 24.5704 31.4573 24.8371 31.8293 24.8371C31.8744 24.8371 31.9202 24.8331 31.966 24.8249L34.2487 24.422C34.6824 24.3454 34.975 23.9042 34.8734 23.4748L34.2911 20.9845C34.1929 20.5643 33.772 20.3034 33.3527 20.4017C32.9325 20.4999 32.6716 20.9201 32.7698 21.3404L32.8666 21.7545C31.6648 21.0544 30.3263 20.6211 28.909 20.4856C28.8538 20.4804 28.7989 20.4764 28.7436 20.4721V0.703127C28.7436 0.271607 28.3936 -0.078125 27.9624 -0.078125H3.20313C2.77161 -0.078125 2.42188 0.271607 2.42188 0.703127V35.4133C2.42188 35.8448 2.77161 36.1945 3.20313 36.1945H20.3214C20.3708 36.2577 20.4212 36.3203 20.4724 36.3822C22.1286 38.3884 24.4672 39.6293 27.0569 39.8768C27.3728 39.907 27.6874 39.922 28.0005 39.922C30.2558 39.9216 32.4225 39.1462 34.184 37.6917C36.1899 36.0355 37.4311 33.697 37.6783 31.1072C37.7195 30.6779 37.4045 30.2964 36.9749 30.2552V30.2552ZM7.30927 29.1761H8.56691V30.1664H7.30927V29.1761ZM10.1294 29.1758H18.2956C18.2614 29.5048 18.244 29.8356 18.2431 30.1664H10.1294V29.1758ZM20.8933 23.5038H10.1294V22.5132H21.9794C21.9587 22.5293 21.9385 22.5467 21.9178 22.5632C21.8464 22.6203 21.7752 22.677 21.7054 22.7363C21.6809 22.7567 21.6571 22.7784 21.633 22.7991C21.5705 22.8528 21.5073 22.9059 21.446 22.9615C21.2537 23.1354 21.07 23.3164 20.8936 23.5035C20.8933 23.5035 20.8933 23.5038 20.8933 23.5038ZM8.56691 23.5035H7.30927V22.5132H8.56691V23.5035ZM3.98438 34.632V1.48438H27.1811V20.4734C26.84 20.5011 26.5 20.5487 26.1637 20.6128C25.7242 20.6961 25.2915 20.8078 24.8691 20.9507H6.52802C6.0965 20.9507 5.74677 21.3004 5.74677 21.7319V24.2847C5.74677 24.3924 5.76874 24.4953 5.80811 24.589C5.92683 24.8694 6.20454 25.0663 6.52802 25.0663H19.6933C19.3439 25.6321 19.0534 26.2324 18.8266 26.8586C18.7366 27.1067 18.657 27.3588 18.5877 27.6133H6.52802C6.23139 27.6133 5.97321 27.7787 5.84107 28.0225C5.78095 28.133 5.74677 28.2599 5.74677 28.3948V30.9476C5.74677 31.3792 6.0965 31.7289 6.52802 31.7289H18.3637C18.5248 32.7412 18.8456 33.7192 19.3167 34.6323H3.98438V34.632Z" fill="white"/>
<path d="M32.9903 31.8244C33.4166 31.8958 33.8185 31.6083 33.8899 31.1829C33.9458 30.8493 33.9741 30.5127 33.9741 30.1828C33.9741 26.8674 31.277 24.1699 27.9616 24.1699C24.6464 24.1699 21.949 26.8674 21.949 30.1828C21.949 33.4979 24.6461 36.1954 27.9616 36.1954C28.3864 36.1954 28.8136 36.1496 29.2317 36.0599C29.6535 35.969 29.9217 35.5533 29.8311 35.1315C29.7401 34.7098 29.3242 34.4415 28.9027 34.5322C28.5927 34.599 28.2759 34.6329 27.9616 34.6329C25.5079 34.6329 23.5115 32.6364 23.5115 30.1828C23.5115 27.7289 25.5079 25.7324 27.9616 25.7324C30.4155 25.7324 32.4116 27.7289 32.4116 30.1828C32.4116 30.4266 32.3906 30.676 32.3488 30.9244C32.2777 31.3501 32.5645 31.7529 32.9903 31.8244V31.8244Z" fill="white"/>
<path d="M27.1803 27.3179V29.8157L25.7188 31.0279C25.3868 31.3032 25.3407 31.7957 25.6163 32.1281C25.7707 32.3142 25.9935 32.4104 26.2181 32.4104C26.3935 32.4104 26.5705 32.3515 26.7161 32.2306L28.4605 30.7841C28.6393 30.6358 28.7428 30.4151 28.7428 30.1829V27.3179C28.7428 26.8864 28.3931 26.5366 27.9615 26.5366C27.5303 26.5366 27.1803 26.8864 27.1803 27.3179V27.3179Z" fill="white"/>
<path d="M7.13764 11.2902V11.5609C7.13764 11.9925 7.48737 12.3422 7.91889 12.3422C8.3501 12.3422 8.70014 11.9925 8.70014 11.5609V11.2902C9.50489 11.1877 10.1293 10.5001 10.1293 9.66792V8.51252C10.1293 7.60981 9.39472 6.87525 8.49201 6.87525H7.34577C7.32502 6.87525 7.30732 6.86793 7.29297 6.85328C7.27832 6.83894 7.271 6.82124 7.271 6.80048V5.70978C7.271 5.66859 7.30457 5.63532 7.34577 5.63532H8.49201C8.53321 5.63532 8.56678 5.66859 8.56678 5.70978C8.56678 6.1413 8.91651 6.49104 9.34803 6.49104C9.77925 6.49104 10.1293 6.1413 10.1293 5.70978C10.1293 4.87787 9.50489 4.19031 8.70014 4.08747V3.81647C8.70014 3.38525 8.35041 3.03552 7.91889 3.03552C7.48768 3.03552 7.13764 3.38525 7.13764 3.81647V4.08747C6.33289 4.19001 5.7085 4.87757 5.7085 5.70978V6.80048C5.7085 7.2378 5.87878 7.64888 6.18793 7.95832C6.49707 8.26747 6.90845 8.43776 7.34577 8.43776H8.49201C8.53321 8.43776 8.56678 8.47133 8.56678 8.51252V9.66792C8.56678 9.70912 8.53321 9.74269 8.49201 9.74269H7.34577C7.30457 9.74269 7.271 9.70912 7.271 9.66792V9.56203C7.271 9.13081 6.92127 8.78077 6.48975 8.78077C6.05823 8.78077 5.7085 9.13081 5.7085 9.56203V9.66792C5.7085 10.4998 6.33289 11.1874 7.13764 11.2902Z" fill="white"/>
<path d="M17.3484 5.63538H22.7058C23.1373 5.63538 23.487 5.28534 23.487 4.85413C23.487 4.42261 23.1373 4.07288 22.7058 4.07288H17.3484C16.9169 4.07288 16.5671 4.42261 16.5671 4.85413C16.5671 5.28534 16.9169 5.63538 17.3484 5.63538Z" fill="white"/>
<path d="M13.3393 8.4701H22.7058C23.1373 8.4701 23.487 8.12036 23.487 7.68885C23.487 7.25733 23.1373 6.90759 22.7058 6.90759H13.3393C12.9081 6.90759 12.5583 7.25733 12.5583 7.68885C12.5583 8.12036 12.9081 8.4701 13.3393 8.4701Z" fill="white"/>
<path d="M13.3393 11.3053H22.7058C23.1373 11.3053 23.487 10.9553 23.487 10.5241C23.487 10.0925 23.1373 9.7428 22.7058 9.7428H13.3393C12.9081 9.7428 12.5583 10.0925 12.5583 10.5241C12.5583 10.9553 12.9081 11.3053 13.3393 11.3053Z" fill="white"/>
<path d="M6.52808 14.5667C6.09656 14.5667 5.74683 14.9164 5.74683 15.3479V17.9007C5.74683 18.3322 6.09656 18.682 6.52808 18.682H24.9159C25.3474 18.682 25.6971 18.3322 25.6971 17.9007V15.3479C25.6971 14.9164 25.3474 14.5667 24.9159 14.5667H6.52808ZM7.30933 17.1195V16.1292H8.56727V17.1195H7.30933ZM24.1346 17.1195H10.1295V16.1292H24.1346V17.1195Z" fill="white"/>
<path d="M32.3893 33.3671C32.2062 33.0995 31.875 32.9661 31.5583 33.0421C31.2461 33.1172 31.0083 33.3808 30.9653 33.6991C30.9214 34.0214 31.0935 34.3476 31.3828 34.4953C31.6736 34.6443 32.034 34.5945 32.2733 34.3711C32.5513 34.112 32.5962 33.6827 32.3893 33.3671V33.3671Z" fill="white"/>
</g>
<defs>
<clipPath id="clip0">
<rect width="40" height="40" fill="white"/>
</clipPath>
</defs>
</svg>
