<svg width="40" height="40" viewBox="0 0 40 40" fill="none" xmlns="http://www.w3.org/2000/svg">
<path d="M32.4729 12.1732V5.14234C32.4729 3.95768 31.5091 2.9939 30.3245 2.9939H10.6314C10.3077 2.9939 10.0454 3.25625 10.0454 3.57986C10.0454 3.90346 10.3077 4.16581 10.6314 4.16581H30.3245C30.863 4.16581 31.301 4.60388 31.301 5.14234V12.1732C31.301 12.7117 30.863 13.1497 30.3245 13.1497H23.0709C22.7472 13.1497 22.4849 13.4121 22.4849 13.7357C22.4849 14.0593 22.7472 14.3217 23.0709 14.3217H30.3245C31.5091 14.3217 32.4729 13.3579 32.4729 12.1732Z" fill="white"/>
<path d="M7.90892 2.9939H5.32585C4.14128 2.9939 3.17749 3.95768 3.17749 5.14233V12.1732C3.17749 13.3579 4.14128 14.3217 5.32585 14.3217H20.3417C20.6654 14.3217 20.9277 14.0593 20.9277 13.7357C20.9277 13.4121 20.6654 13.1497 20.3417 13.1497H5.32585C4.78739 13.1497 4.34941 12.7117 4.34941 12.1732V5.14226C4.34941 4.6038 4.78739 4.16574 5.32585 4.16574H7.90892C8.2326 4.16574 8.49487 3.90338 8.49487 3.57978C8.49487 3.25617 8.23252 2.9939 7.90892 2.9939V2.9939Z" fill="white"/>
<path d="M22.3173 19.5948C22.3173 18.6255 21.5286 17.8369 20.5594 17.8369H15.0911C14.1219 17.8369 13.3333 18.6255 13.3333 19.5948V25.063C13.3333 26.0324 14.1219 26.8209 15.0911 26.8209H20.5594C21.5286 26.8209 22.3173 26.0324 22.3173 25.063V19.5948ZM21.1453 25.063C21.1453 25.3862 20.8825 25.649 20.5594 25.649H15.0911C14.768 25.649 14.5052 25.3862 14.5052 25.063V19.5948C14.5052 19.2717 14.768 19.0088 15.0911 19.0088H20.5594C20.8825 19.0088 21.1453 19.2717 21.1453 19.5948V25.063Z" fill="white"/>
<path d="M20.5594 28.0063H15.0911C14.1219 28.0063 13.3333 28.7949 13.3333 29.7642V35.2325C13.3333 36.2018 14.1219 36.9904 15.0911 36.9904H20.5594C21.5286 36.9904 22.3173 36.2018 22.3173 35.2325V29.7642C22.3173 28.795 21.5286 28.0063 20.5594 28.0063ZM21.1453 35.2325C21.1453 35.5556 20.8825 35.8184 20.5594 35.8184H15.0911C14.768 35.8184 14.5052 35.5556 14.5052 35.2325V29.7642C14.5052 29.4411 14.768 29.1783 15.0911 29.1783H20.5594C20.8825 29.1783 21.1453 29.4411 21.1453 29.7642V35.2325Z" fill="white"/>
<path d="M19.802 20.3523C19.5731 20.1235 19.2022 20.1234 18.9733 20.3523L17.8252 21.5004L16.6771 20.3523C16.4481 20.1234 16.0771 20.1236 15.8484 20.3523C15.6195 20.5812 15.6195 20.9522 15.8484 21.1809L16.9965 22.329L15.8484 23.4771C15.6195 23.706 15.6195 24.077 15.8484 24.3057C16.0316 24.4748 16.3729 24.5715 16.6771 24.3057L17.8252 23.1577L18.9733 24.3057C19.1566 24.4747 19.4977 24.5715 19.802 24.3057C20.0308 24.0769 20.0308 23.7059 19.802 23.4771L18.6539 22.3291L19.802 21.181C20.0308 20.9522 20.0308 20.5812 19.802 20.3523V20.3523Z" fill="white"/>
<path d="M19.8803 30.4434C19.6513 30.2145 19.2804 30.2145 19.0516 30.4434L15.7705 33.7244C15.5417 33.9533 15.5417 34.3243 15.7705 34.553C15.885 34.6674 16.035 34.7247 16.1849 34.7247C16.3348 34.7247 16.4848 34.6675 16.5993 34.553L19.8803 31.272C20.1091 31.0431 20.1091 30.6721 19.8803 30.4434Z" fill="white"/>
<path d="M3.17749 25.063C3.17749 26.0324 3.96611 26.8209 4.93537 26.8209H10.4036C11.3729 26.8209 12.1615 26.0324 12.1615 25.063V19.5948C12.1615 18.6255 11.3729 17.8369 10.4036 17.8369H4.93537C3.96611 17.8369 3.17749 18.6255 3.17749 19.5948V25.063ZM4.34941 19.5948C4.34941 19.2717 4.61223 19.0088 4.93537 19.0088H10.4036C10.7268 19.0088 10.9896 19.2717 10.9896 19.5948V25.063C10.9896 25.3862 10.7268 25.649 10.4036 25.649H4.93537C4.61223 25.649 4.34941 25.3862 4.34941 25.063V19.5948Z" fill="white"/>
<path d="M3.17749 35.2325C3.17749 36.2018 3.96611 36.9904 4.93537 36.9904H10.4036C11.3729 36.9904 12.1615 36.2018 12.1615 35.2325V29.7642C12.1615 28.7949 11.3729 28.0063 10.4036 28.0063H4.93537C3.96611 28.0063 3.17749 28.7949 3.17749 29.7642V35.2325ZM4.34941 29.7642C4.34941 29.4411 4.61223 29.1783 4.93537 29.1783H10.4036C10.7268 29.1783 10.9896 29.4411 10.9896 29.7642V35.2325C10.9896 35.5556 10.7268 35.8184 10.4036 35.8184H4.93537C4.61223 35.8184 4.34941 35.5556 4.34941 35.2325V29.7642Z" fill="white"/>
<path d="M6.1072 22.9148H7.08364V23.8913C7.08364 24.2149 7.34592 24.4772 7.6696 24.4772C7.99329 24.4772 8.25556 24.2149 8.25556 23.8913V22.9148H9.23208C9.55577 22.9148 9.81804 22.6525 9.81804 22.3289C9.81804 22.0053 9.55577 21.7429 9.23208 21.7429H8.25556V20.7664C8.25556 20.4428 7.99329 20.1804 7.6696 20.1804C7.34592 20.1804 7.08364 20.4428 7.08364 20.7664V21.7429H6.1072C5.78352 21.7429 5.52124 22.0053 5.52124 22.3289C5.52124 22.6525 5.78359 22.9148 6.1072 22.9148Z" fill="white"/>
<path d="M6.1072 33.0843H9.23208C9.55577 33.0843 9.81804 32.8219 9.81804 32.4983C9.81804 32.1747 9.55577 31.9124 9.23208 31.9124H6.1072C5.78352 31.9124 5.52124 32.1747 5.52124 32.4983C5.52124 32.8219 5.78359 33.0843 6.1072 33.0843Z" fill="white"/>
<path d="M5.71657 15.4932C5.39289 15.4932 5.13062 15.7555 5.13062 16.0791C5.13062 16.4027 5.39289 16.6651 5.71657 16.6651H9.62258C9.94626 16.6651 10.2085 16.4027 10.2085 16.0791C10.2085 15.7555 9.94626 15.4932 9.62258 15.4932H5.71657Z" fill="white"/>
<path d="M19.7783 16.6651C20.102 16.6651 20.3643 16.4027 20.3643 16.0791C20.3643 15.7555 20.102 15.4932 19.7783 15.4932H15.8723C15.5487 15.4932 15.2864 15.7555 15.2864 16.0791C15.2864 16.4027 15.5487 16.6651 15.8723 16.6651H19.7783Z" fill="white"/>
<path d="M26.0281 15.4932C25.7044 15.4932 25.4421 15.7555 25.4421 16.0791C25.4421 16.4027 25.7044 16.6651 26.0281 16.6651H29.9342C30.2579 16.6651 30.5201 16.4027 30.5201 16.0791C30.5201 15.7555 30.2579 15.4932 29.9342 15.4932H26.0281Z" fill="white"/>
<path d="M27.6218 10.1103C27.2345 10.1127 27.1442 10.0986 26.8619 9.91399C26.591 9.73679 26.228 9.81274 26.0508 10.0836C25.8736 10.3544 25.9495 10.7175 26.2204 10.8947C26.5386 11.1029 26.7888 11.203 27.0657 11.2484V11.3922C27.0657 11.7158 27.328 11.9781 27.6517 11.9781C27.9754 11.9781 28.2376 11.7158 28.2376 11.3922V11.1681C28.7966 10.9546 29.2206 10.4596 29.3249 9.83953C29.4564 9.05739 29.0331 8.35104 28.2715 8.08181C28.1279 8.03103 27.9985 7.99251 27.8843 7.95845C27.5761 7.86665 27.4642 7.82868 27.3622 7.70703C27.3382 7.67844 27.3096 7.58679 27.3347 7.46249C27.3479 7.39757 27.3956 7.23787 27.5541 7.15678C27.7822 7.04013 28.0514 7.25334 28.0813 7.27811C28.3307 7.48413 28.7001 7.44913 28.9063 7.19967C29.1124 6.95021 29.0773 6.5809 28.8278 6.37472C28.665 6.24018 28.4628 6.12025 28.2376 6.04205V5.92361C28.2376 5.6 27.9754 5.33765 27.6517 5.33765C27.328 5.33765 27.0657 5.6 27.0657 5.92361V6.09275C26.6874 6.26323 26.2947 6.70051 26.1862 7.22967C26.0943 7.68297 26.1982 8.14291 26.4642 8.46003C26.7975 8.85754 27.1799 8.97145 27.5498 9.08169C27.6556 9.11318 27.7651 9.14576 27.881 9.18677C28.1659 9.28748 28.1951 9.49171 28.1691 9.64523C28.1404 9.8168 27.9926 10.1079 27.6218 10.1103V10.1103Z" fill="white"/>
<path d="M7.0835 11.3919C7.0835 11.7155 7.34577 11.9778 7.66946 11.9778H24.6633C24.987 11.9778 25.2492 11.7155 25.2492 11.3919C25.2492 11.0683 24.987 10.8059 24.6633 10.8059H7.66946C7.34585 10.8059 7.0835 11.0683 7.0835 11.3919V11.3919Z" fill="white"/>
<path d="M39.8157 30.5639C39.7673 30.2438 39.4676 30.0235 39.1486 30.0722C38.8286 30.1206 38.6085 30.4193 38.6569 30.7393C39.0041 33.0339 38.1999 35.349 36.5056 36.9325C35.1501 38.1995 33.423 38.8266 31.6991 38.8264C27.621 38.8445 24.5128 35.367 24.6673 31.5666C24.7304 29.6899 25.5212 27.9498 26.894 26.6668C29.7281 24.0178 34.1899 24.1658 36.8397 26.9965C37.2718 27.458 37.6387 27.9726 37.9303 28.5262C38.0812 28.8124 38.4354 28.9224 38.7219 28.7715C39.0082 28.6206 39.118 28.2662 38.9672 27.9799C38.6268 27.3337 38.1988 26.7334 37.6954 26.1957C37.0607 25.5177 36.3369 24.972 35.5588 24.559V4.49204C35.5588 2.01507 33.5437 0 31.0668 0H4.58376C2.10687 0 0.0917969 2.01507 0.0917969 4.49204V22.479C0.0917969 22.8026 0.354072 23.0649 0.677756 23.0649C1.00144 23.0649 1.26372 22.8026 1.26372 22.479V4.49204C1.26372 2.66127 2.75315 1.17192 4.58376 1.17192H31.0668C32.8975 1.17192 34.3869 2.66127 34.3869 4.49204V24.0504C33.7652 23.8366 33.1224 23.699 32.473 23.6381V19.6085C32.473 18.6392 31.6845 17.8507 30.7153 17.8507H25.2468C24.2775 17.8507 23.489 18.6392 23.489 19.6085L23.4915 31.7881C23.48 33.8162 24.2723 35.8901 25.7044 37.4036C26.2357 37.9711 26.8295 38.4455 27.4651 38.8275L4.58376 38.8261C2.75307 38.8261 1.26372 37.3368 1.26372 35.506V25.2165C1.26372 24.8929 1.00144 24.6305 0.677756 24.6305C0.354072 24.6305 0.0917969 24.8929 0.0917969 25.2165V35.506C0.0917969 37.9829 2.10687 39.998 4.58376 39.998C4.91987 39.9959 31.375 40.0037 31.6995 39.9977C33.7098 39.9975 35.7251 39.2661 37.3058 37.7887C39.2824 35.9414 40.2206 33.2405 39.8157 30.5639V30.5639ZM25.2468 19.0225H30.7153C31.0383 19.0225 31.3011 19.2853 31.3011 19.6084V23.6116C29.4249 23.7021 27.5701 24.4307 26.0939 25.8104C25.5299 26.3375 25.0507 26.9308 24.6626 27.5738L24.6609 19.6084C24.6609 19.2854 24.9237 19.0225 25.2468 19.0225Z" fill="white"/>
<path d="M32.3336 31.2242C32.1861 31.1721 32.0531 31.1326 31.9359 31.0977C31.6144 31.002 31.4978 30.9624 31.3896 30.8334C31.3629 30.8016 31.3307 30.7015 31.3578 30.568C31.3718 30.4987 31.4227 30.3285 31.5927 30.2416C31.8378 30.1164 32.1235 30.3425 32.1552 30.3686C32.4048 30.5746 32.7742 30.5394 32.9801 30.2897C33.1861 30.0401 33.1508 29.6707 32.9011 29.4648C32.7321 29.3253 32.5216 29.2016 32.2873 29.122V28.9878C32.2873 28.6642 32.025 28.4019 31.7013 28.4019C31.3776 28.4019 31.1154 28.6642 31.1154 28.9878V29.1726C30.7247 29.3456 30.3217 29.79 30.2092 30.3351C30.1157 30.7966 30.2213 31.2645 30.492 31.5868C30.8319 31.9918 31.2232 32.1082 31.6016 32.2209C31.7108 32.2534 31.8237 32.287 31.9434 32.3293C32.248 32.4368 32.2791 32.6552 32.2515 32.8194C32.2119 33.0552 32.0132 33.3101 31.6705 33.3124C31.2672 33.3156 31.1729 33.3001 30.8781 33.1074C30.607 32.9302 30.2441 33.0064 30.067 33.2774C29.8899 33.5482 29.966 33.9114 30.2369 34.0884C30.5674 34.3044 30.8264 34.4065 31.1152 34.4518V34.6144C31.1152 34.938 31.3775 35.2003 31.7012 35.2003C32.0248 35.2003 32.2871 34.938 32.2871 34.6144V34.3735C32.9128 34.141 33.3129 33.5744 33.4072 33.0137C33.541 32.2173 33.1095 31.4982 32.3336 31.2242V31.2242Z" fill="white"/>
<path d="M31.6999 25.9915C28.4908 25.9915 25.8799 28.6023 25.8799 31.8115C25.8799 35.0208 28.4908 37.6316 31.6999 37.6316C34.9091 37.6316 37.52 35.0207 37.52 31.8115C37.52 28.6023 34.9092 25.9915 31.6999 25.9915V25.9915ZM31.6999 36.4597C29.1369 36.4597 27.0518 34.3745 27.0518 31.8115C27.0518 29.2485 29.1369 27.1634 31.6999 27.1634C34.263 27.1634 36.3481 29.2485 36.3481 31.8115C36.3482 34.3745 34.263 36.4597 31.6999 36.4597V36.4597Z" fill="white"/>
<path d="M16.1686 31.4268C16.4922 31.4268 16.7545 31.1645 16.7545 30.841C16.7545 30.5174 16.4922 30.2551 16.1686 30.2551C15.8451 30.2551 15.5828 30.5174 15.5828 30.841C15.5828 31.1645 15.8451 31.4268 16.1686 31.4268Z" fill="white"/>
<path d="M19.4828 34.7411C19.8064 34.7411 20.0687 34.4788 20.0687 34.1552C20.0687 33.8316 19.8064 33.5693 19.4828 33.5693C19.1593 33.5693 18.897 33.8316 18.897 34.1552C18.897 34.4788 19.1593 34.7411 19.4828 34.7411Z" fill="white"/>
</svg>
