<svg width="40" height="40" viewBox="0 0 40 40" fill="none" xmlns="http://www.w3.org/2000/svg">
<path d="M6.25 13.75C6.25 12.4577 5.19859 11.4062 3.90625 11.4062C2.61391 11.4062 1.5625 12.4577 1.5625 13.75C1.5625 15.0423 2.61391 16.0938 3.90625 16.0938C5.19859 16.0938 6.25 15.0423 6.25 13.75ZM3.90625 14.5312C3.47547 14.5312 3.125 14.1808 3.125 13.75C3.125 13.3192 3.47547 12.9688 3.90625 12.9688C4.33703 12.9688 4.6875 13.3192 4.6875 13.75C4.6875 14.1808 4.33703 14.5312 3.90625 14.5312Z" fill="white"/>
<path d="M0.78125 25.4688H1.5625V34.0625C1.5625 34.4939 1.91227 34.8438 2.34375 34.8438H5.46875C5.90023 34.8438 6.25 34.4939 6.25 34.0625V25.4688H7.03125C7.46273 25.4688 7.8125 25.1189 7.8125 24.6875V20C7.8125 17.8461 6.06016 16.0938 3.90625 16.0938C1.75234 16.0938 0 17.8461 0 20V24.6875C0 25.1189 0.349766 25.4688 0.78125 25.4688ZM1.5625 20C1.5625 18.7077 2.61391 17.6562 3.90625 17.6562C5.19859 17.6562 6.25 18.7077 6.25 20V23.9062H5.46875C5.03727 23.9062 4.6875 24.2561 4.6875 24.6875V33.2812H3.125V24.6875C3.125 24.2561 2.77523 23.9062 2.34375 23.9062H1.5625V20Z" fill="white"/>
<path d="M10.9375 13.75C10.9375 15.0423 11.9889 16.0938 13.2812 16.0938C14.5736 16.0938 15.625 15.0423 15.625 13.75C15.625 12.4577 14.5736 11.4062 13.2812 11.4062C11.9889 11.4062 10.9375 12.4577 10.9375 13.75ZM14.0625 13.75C14.0625 14.1808 13.712 14.5312 13.2812 14.5312C12.8505 14.5312 12.5 14.1808 12.5 13.75C12.5 13.3192 12.8505 12.9688 13.2812 12.9688C13.712 12.9688 14.0625 13.3192 14.0625 13.75Z" fill="white"/>
<path d="M9.375 20V24.6875C9.375 25.1189 9.72477 25.4688 10.1562 25.4688H10.9375V34.0625C10.9375 34.4939 11.2873 34.8438 11.7188 34.8438H14.8438C15.2752 34.8438 15.625 34.4939 15.625 34.0625V25.4688H16.4062C16.8377 25.4688 17.1875 25.1189 17.1875 24.6875V20C17.1875 17.8461 15.4352 16.0938 13.2812 16.0938C11.1273 16.0938 9.375 17.8461 9.375 20ZM10.9375 20C10.9375 18.7077 11.9889 17.6562 13.2812 17.6562C14.5736 17.6562 15.625 18.7077 15.625 20V23.9062H14.8438C14.4123 23.9062 14.0625 24.2561 14.0625 24.6875V33.2812H12.5V24.6875C12.5 24.2561 12.1502 23.9062 11.7188 23.9062H10.9375V20Z" fill="white"/>
<path d="M25 13.75C25 12.4577 23.9486 11.4062 22.6562 11.4062C21.3639 11.4062 20.3125 12.4577 20.3125 13.75C20.3125 15.0423 21.3639 16.0938 22.6562 16.0938C23.9486 16.0938 25 15.0423 25 13.75ZM22.6562 14.5312C22.2255 14.5312 21.875 14.1808 21.875 13.75C21.875 13.3192 22.2255 12.9688 22.6562 12.9688C23.087 12.9688 23.4375 13.3192 23.4375 13.75C23.4375 14.1808 23.087 14.5312 22.6562 14.5312Z" fill="white"/>
<path d="M18.75 20V24.6875C18.75 25.1189 19.0998 25.4688 19.5312 25.4688H20.3125V34.0625C20.3125 34.4939 20.6623 34.8438 21.0938 34.8438H24.2188C24.6502 34.8438 25 34.4939 25 34.0625V25.4688H25.7812C26.2127 25.4688 26.5625 25.1189 26.5625 24.6875V20C26.5625 17.8461 24.8102 16.0938 22.6562 16.0938C20.5023 16.0938 18.75 17.8461 18.75 20ZM20.3125 20C20.3125 18.7077 21.3639 17.6562 22.6562 17.6562C23.9486 17.6562 25 18.7077 25 20V23.9062H24.2188C23.7873 23.9062 23.4375 24.2561 23.4375 24.6875V33.2812H21.875V24.6875C21.875 24.2561 21.5252 23.9062 21.0938 23.9062H20.3125V20Z" fill="white"/>
<path d="M32.0312 28.5938H36.0938C36.5252 28.5938 36.875 28.2439 36.875 27.8125C36.875 27.3811 36.5252 27.0312 36.0938 27.0312H32.0312C31.5998 27.0312 31.25 27.3811 31.25 27.8125C31.25 28.2439 31.5998 28.5938 32.0312 28.5938Z" fill="white"/>
<path d="M39.2188 16.0938C39.6502 16.0938 40 15.744 40 15.3125C40 14.881 39.6502 14.5312 39.2188 14.5312C38.7873 14.5312 38.4375 14.881 38.4375 15.3125C38.4375 15.744 38.7873 16.0938 39.2188 16.0938Z" fill="white"/>
<path d="M39.2188 5.15625H28.9062C28.4748 5.15625 28.125 5.50609 28.125 5.9375V10.625C28.125 11.0564 28.4748 11.4062 28.9062 11.4062H29.6875V20.7812H28.9062C28.4748 20.7812 28.125 21.1311 28.125 21.5625V34.0625C28.125 34.4939 28.4748 34.8438 28.9062 34.8438H39.2188C39.6502 34.8438 40 34.4939 40 34.0625V18.8281C40 18.3967 39.6502 18.0469 39.2188 18.0469C38.7873 18.0469 38.4375 18.3967 38.4375 18.8281V23.9062H29.6875V22.3438H36.0938C36.5252 22.3438 36.875 21.9939 36.875 21.5625V10.625C36.875 10.1936 36.5252 9.84375 36.0938 9.84375H29.6875V6.71875H38.4375V11.7969C38.4375 12.2283 38.7873 12.5781 39.2188 12.5781C39.6502 12.5781 40 12.2283 40 11.7969V5.9375C40 5.50609 39.6502 5.15625 39.2188 5.15625ZM38.4375 25.4688V33.2812H29.6875V25.4688H38.4375ZM35.3125 20.7812H31.25V11.4062H35.3125V20.7812Z" fill="white"/>
</svg>
