<svg width="40" height="40" viewBox="0 0 40 40" fill="none" xmlns="http://www.w3.org/2000/svg">
<path d="M20 5.54688C16.5917 5.54688 13.282 6.75672 10.6806 8.95367C10.4334 9.16242 10.4023 9.53211 10.6109 9.77938C10.8198 10.0266 11.1893 10.0577 11.4366 9.84898C13.8269 7.83039 16.8681 6.71875 20 6.71875C27.3233 6.71875 33.2812 12.6767 33.2812 20C33.2812 27.3233 27.3233 33.2812 20 33.2812C12.6767 33.2812 6.71875 27.3233 6.71875 20C6.71875 16.8682 7.83039 13.827 9.84898 11.4366C10.0577 11.1894 10.0266 10.8198 9.7793 10.6109C9.53203 10.4021 9.16234 10.4333 8.95359 10.6805C6.75672 13.282 5.54688 16.5918 5.54688 20C5.54688 27.9695 12.0305 34.4531 20 34.4531C27.9695 34.4531 34.4531 27.9695 34.4531 20C34.4531 12.0305 27.9695 5.54688 20 5.54688Z" fill="white"/>
<path d="M38.4194 22.0245C39.35 21.7919 40 20.9593 40 20C40 19.0407 39.35 18.2081 38.4194 17.9755L36.6149 17.5244C36.5355 16.9884 36.4296 16.4542 36.2987 15.9281L37.792 14.8216C38.5627 14.2505 38.8448 13.2326 38.4776 12.3463C38.1105 11.4599 37.1912 10.9395 36.2424 11.0808L34.403 11.3545C34.1238 10.8905 33.821 10.438 33.4984 10.003L34.456 8.40703C34.9495 7.58445 34.8205 6.53609 34.1421 5.85781C33.4638 5.17945 32.4155 5.05039 31.5928 5.54391L29.997 6.50156C29.5617 6.17891 29.1094 5.87609 28.6455 5.59695L28.9191 3.75758C29.0605 2.80867 28.54 1.88953 27.6537 1.52242C26.7675 1.15539 25.7495 1.43727 25.1783 2.20805L24.0719 3.70133C23.5455 3.57031 23.0113 3.46445 22.4756 3.38508L22.0245 1.5807C21.792 0.65 20.9594 0 20 0C19.0406 0 18.208 0.65 17.9755 1.5807L17.5244 3.38516C16.9887 3.46453 16.4545 3.57039 15.9281 3.70141L14.8217 2.20812C14.2506 1.43734 13.233 1.15531 12.3463 1.5225C11.4599 1.88961 10.9395 2.80875 11.0809 3.75758L11.3545 5.59703C10.8906 5.87609 10.4383 6.17891 10.003 6.50164L8.40711 5.54406C7.58437 5.05055 6.53617 5.17961 5.85781 5.85797C5.17945 6.53633 5.05039 7.58461 5.54391 8.40727L6.50148 10.0031C6.17883 10.4384 5.87602 10.8908 5.59695 11.3546L3.75758 11.0809C2.8082 10.9396 1.88937 11.4602 1.52242 12.3464C1.15523 13.2327 1.43719 14.2506 2.20797 14.8218L3.70125 15.9282C3.57023 16.4545 3.46437 16.9888 3.385 17.5245L1.58055 17.9755C0.65 18.2081 0 19.0407 0 20C0 20.9593 0.65 21.7919 1.58063 22.0245L3.38508 22.4756C3.46445 23.0112 3.57031 23.5456 3.70133 24.0718L2.20805 25.1783C1.43727 25.7495 1.15523 26.7673 1.52242 27.6536C1.88953 28.54 2.80891 29.0605 3.75758 28.9191L5.59703 28.6455C5.87617 29.1095 6.17891 29.5618 6.50156 29.9969L5.54398 31.5928C5.05047 32.4154 5.17953 33.4638 5.85789 34.142C6.53633 34.8204 7.58469 34.9495 8.40719 34.4559L10.0031 33.4984C10.4384 33.8211 10.8907 34.1238 11.3546 34.403L11.0809 36.2423C10.9396 37.1913 11.4601 38.1104 12.3464 38.4775C13.2327 38.8445 14.2506 38.5627 14.8218 37.7919L15.9282 36.2986C16.4544 36.4296 16.9888 36.5355 17.5245 36.6148L17.9755 38.4192C18.208 39.35 19.0406 40 20 40C20.9594 40 21.792 39.35 22.0245 38.4193L22.4756 36.6148C23.0112 36.5355 23.5455 36.4296 24.0719 36.2986L25.1783 37.7919C25.7495 38.5627 26.7677 38.8446 27.6537 38.4775C28.5401 38.1104 29.0605 37.1913 28.9191 36.2424L28.6455 34.403C29.1094 34.1238 29.5617 33.8211 29.997 33.4984L31.5929 34.4559C32.4154 34.9494 33.4637 34.8205 34.1422 34.142C34.8205 33.4637 34.9496 32.4154 34.4561 31.5927L33.4984 29.9969C33.8211 29.5618 34.1238 29.1095 34.403 28.6455L36.2423 28.9191C37.1919 29.0602 38.1105 28.5399 38.4775 27.6537C38.8447 26.7674 38.5627 25.7495 37.792 25.1783L36.2987 24.0718C36.4297 23.5458 36.5355 23.0116 36.6149 22.4756L38.4194 22.0245ZM35.2827 24.7775L37.0943 26.1198C37.4322 26.3703 37.5559 26.8166 37.3948 27.2052C37.2339 27.5938 36.8317 27.8223 36.4148 27.7601L34.1837 27.428C33.9444 27.3927 33.7079 27.5076 33.5883 27.7177C33.216 28.3716 32.7926 29.0042 32.3298 29.5979C32.1809 29.7889 32.1648 30.052 32.2894 30.2596L33.451 32.1957C33.6675 32.5564 33.6109 33.016 33.3134 33.3134C33.0159 33.6109 32.5565 33.6675 32.1956 33.451L30.2595 32.2894C30.052 32.1648 29.789 32.1809 29.5978 32.3297C29.0038 32.7927 28.3712 33.2162 27.7177 33.5882C27.5075 33.7079 27.3924 33.9445 27.428 34.1837L27.76 36.4149C27.8219 36.8309 27.5938 37.2339 27.2051 37.3948C26.8164 37.5558 26.3702 37.4322 26.1198 37.0942L24.7774 35.2826C24.6334 35.0882 24.3851 35.0025 24.1512 35.0664C23.4245 35.2662 22.6777 35.4141 21.9316 35.5061C21.6911 35.5358 21.4937 35.7104 21.4348 35.9455L20.8874 38.1351C20.7856 38.5431 20.4206 38.8281 20 38.8281C19.5794 38.8281 19.2144 38.5431 19.1124 38.135L18.565 35.9455C18.5062 35.7105 18.3088 35.5358 18.0683 35.5061C17.322 35.4141 16.5752 35.2662 15.8486 35.0665C15.7972 35.0523 15.7449 35.0455 15.6933 35.0455C15.5107 35.0455 15.3348 35.1311 15.2225 35.2827L13.8802 37.0943C13.6298 37.4323 13.1834 37.5559 12.7948 37.3949C12.4062 37.234 12.178 36.831 12.2399 36.4149L12.5719 34.1838C12.6075 33.9445 12.4924 33.708 12.2822 33.5883C11.6287 33.2162 10.996 32.7928 10.4021 32.3298C10.2111 32.1809 9.94805 32.1648 9.74039 32.2895L7.8043 33.4511C7.44375 33.6676 6.98406 33.6109 6.68656 33.3135C6.38906 33.0161 6.3325 32.5565 6.54891 32.1958L7.71055 30.2597C7.83516 30.052 7.81914 29.789 7.67016 29.598C7.20727 29.0042 6.78383 28.3716 6.41164 27.7178C6.29203 27.5077 6.05508 27.3926 5.81625 27.4281L3.585 27.7602C3.16953 27.822 2.76602 27.594 2.605 27.2052C2.44398 26.8166 2.56766 26.3704 2.90563 26.1199L4.71727 24.7776C4.91164 24.6335 4.99758 24.3848 4.93344 24.1515C4.73367 23.4249 4.58578 22.6781 4.49375 21.9319C4.46414 21.6913 4.28945 21.4939 4.05437 21.4352L1.86492 20.8878C1.4568 20.7856 1.17188 20.4206 1.17188 20C1.17188 19.5794 1.4568 19.2144 1.86492 19.1123L4.05437 18.565C4.28945 18.5063 4.46414 18.3088 4.49375 18.0683C4.58578 17.322 4.73367 16.5752 4.93344 15.8486C4.99758 15.6152 4.91172 15.3666 4.71727 15.2224L2.90563 13.8802C2.56773 13.6297 2.44406 13.1834 2.60508 12.7948C2.76602 12.4062 3.16859 12.178 3.58508 12.2399L5.81625 12.572C6.05578 12.6075 6.29203 12.4924 6.41164 12.2823C6.78375 11.6286 7.20719 10.996 7.67016 10.402C7.81906 10.211 7.83508 9.94805 7.71055 9.74031L6.54891 7.8043C6.33242 7.44359 6.38906 6.98398 6.68656 6.68656C6.98398 6.38914 7.44359 6.33258 7.8043 6.54891L9.74039 7.71055C9.94805 7.83523 10.211 7.81922 10.4021 7.67023C10.9961 7.20719 11.6287 6.78375 12.2823 6.41164C12.4924 6.29203 12.6075 6.05547 12.5719 5.81625L12.2399 3.58508C12.178 3.16906 12.4062 2.76609 12.7948 2.60516C13.1835 2.44414 13.6297 2.56773 13.8802 2.90578L15.2225 4.71742C15.3666 4.91187 15.6152 4.99758 15.8486 4.93359C16.5755 4.73383 17.3223 4.58594 18.0684 4.49398C18.3088 4.4643 18.5062 4.28969 18.5651 4.05453L19.1125 1.865C19.2144 1.45687 19.5794 1.17188 20 1.17188C20.4206 1.17188 20.7856 1.45687 20.8876 1.865L21.435 4.05445C21.4938 4.28953 21.6913 4.46422 21.9317 4.49391C22.6778 4.58586 23.4246 4.73375 24.1515 4.93352C24.3848 4.99758 24.6335 4.9118 24.7776 4.71734L26.1199 2.9057C26.3703 2.56781 26.8166 2.44414 27.2052 2.60508C27.5939 2.76602 27.822 3.16898 27.7602 3.58508L27.4282 5.81625C27.3926 6.05547 27.5077 6.29203 27.7178 6.41164C28.3714 6.78375 29.0041 7.20719 29.598 7.67023C29.7889 7.81914 30.0519 7.83516 30.2597 7.71055L32.1958 6.54891C32.5564 6.33258 33.0161 6.38906 33.3135 6.68656C33.611 6.98398 33.6676 7.44359 33.4512 7.8043L32.2895 9.74039C32.1649 9.94813 32.1809 10.2111 32.3299 10.4021C32.7927 10.9958 33.2162 11.6284 33.5884 12.2823C33.708 12.4925 33.9449 12.6073 34.1838 12.572L36.4151 12.24C36.8303 12.1778 37.2341 12.4062 37.3951 12.7949C37.5561 13.1835 37.4324 13.6298 37.0945 13.8802L35.2828 15.2225C35.0884 15.3666 35.0025 15.6153 35.0666 15.8487C35.2662 16.5748 35.4141 17.3216 35.5063 18.0684C35.536 18.3089 35.7106 18.5063 35.9457 18.5651L38.1352 19.1124C38.5432 19.2144 38.8281 19.5794 38.8281 20C38.8281 20.4206 38.5432 20.7856 38.1351 20.8877L35.9456 21.435C35.7105 21.4938 35.5359 21.6912 35.5063 21.9316C35.4141 22.6784 35.2662 23.4252 35.0666 24.1513C35.0023 24.3848 35.0883 24.6335 35.2827 24.7775V24.7775Z" fill="white"/>
<path d="M17.0703 20C17.0703 21.6155 18.3845 22.9297 20 22.9297C21.6155 22.9297 22.9297 21.6155 22.9297 20C22.9297 18.3845 21.6155 17.0703 20 17.0703C18.3845 17.0703 17.0703 18.3845 17.0703 20ZM21.7578 20C21.7578 20.9693 20.9692 21.7578 20 21.7578C19.0308 21.7578 18.2422 20.9693 18.2422 20C18.2422 19.0307 19.0308 18.2422 20 18.2422C20.9692 18.2422 21.7578 19.0307 21.7578 20Z" fill="white"/>
<path d="M18.7005 10.9236C18.2519 10.5911 17.6898 10.493 17.1582 10.6545C14.0347 11.6032 11.6034 14.0344 10.6548 17.1579C10.4933 17.6896 10.5912 18.2517 10.9237 18.7002C11.2601 19.1539 11.7764 19.414 12.3405 19.414H15.4604C15.7277 19.414 15.9612 19.2331 16.0279 18.9742C16.3999 17.5287 17.529 16.3996 18.9744 16.0276C19.2333 15.961 19.4143 15.7275 19.4143 15.4602V12.3403C19.4142 11.7763 19.1541 11.2599 18.7005 10.9236V10.9236ZM18.2423 15.0266C16.7401 15.5564 15.5566 16.7398 15.0268 18.2421H12.3405C12.1514 18.2421 11.9781 18.1547 11.8652 18.0023C11.756 17.855 11.7235 17.6714 11.776 17.4985C12.6109 14.7499 14.7502 12.6106 17.4987 11.7758C17.553 11.7593 17.6082 11.7513 17.6631 11.7513C17.7832 11.7513 17.9014 11.7901 18.0025 11.865C18.1548 11.978 18.2423 12.1513 18.2423 12.3403V15.0266H18.2423Z" fill="white"/>
<path d="M29.3455 17.158C28.3966 14.0344 25.9655 11.6031 22.842 10.6545C22.3102 10.4931 21.7482 10.591 21.2997 10.9236C20.8461 11.2599 20.5859 11.7763 20.5859 12.3402V15.4601C20.5859 15.7274 20.7669 15.9609 21.0259 16.0275C22.4713 16.3995 23.6003 17.5286 23.9723 18.9741C24.0391 19.233 24.2725 19.4139 24.5398 19.4139H27.6598C28.2238 19.4139 28.7402 19.1538 29.0765 18.7001C29.4089 18.2517 29.5069 17.6895 29.3455 17.158ZM28.135 18.0023C28.022 18.1547 27.8488 18.2421 27.6597 18.2421H24.9734C24.4436 16.7398 23.2601 15.5563 21.7578 15.0266V12.3402C21.7578 12.1512 21.8452 11.978 21.9976 11.865C22.1449 11.7558 22.3284 11.7234 22.5013 11.7758C25.2499 12.6106 27.3892 14.7499 28.2241 17.4986C28.2766 17.6714 28.2441 17.855 28.135 18.0023V18.0023Z" fill="white"/>
<path d="M10.6547 22.842C11.6035 25.9655 14.0347 28.3968 17.1582 29.3455C17.3262 29.3965 17.4971 29.4216 17.6667 29.4216C18.0337 29.4216 18.3938 29.3038 18.7005 29.0763C19.1541 28.7401 19.4142 28.2237 19.4142 27.6597V24.5398C19.4142 24.2724 19.2333 24.039 18.9743 23.9723C17.5289 23.6003 16.3999 22.4713 16.0278 21.0258C15.9611 20.7669 15.7277 20.5859 15.4603 20.5859H12.3404C11.7764 20.5859 11.26 20.8461 10.9237 21.2998C10.5913 21.7482 10.4933 22.3104 10.6547 22.842V22.842ZM11.8652 21.9977C11.9781 21.8452 12.1514 21.7578 12.3405 21.7578H15.0268C15.5566 23.2602 16.7401 24.4435 18.2424 24.9734V27.6597C18.2424 27.8487 18.1549 28.022 18.0026 28.1349C17.8553 28.2441 17.6717 28.2766 17.4988 28.2241C14.7503 27.3893 12.611 25.25 11.776 22.5013C11.7235 22.3285 11.756 22.1449 11.8652 21.9977Z" fill="white"/>
<path d="M27.6598 20.5859H24.5398C24.2725 20.5859 24.0391 20.7669 23.9723 21.0258C23.6003 22.4713 22.4712 23.6003 21.0259 23.9723C20.767 24.039 20.5859 24.2724 20.5859 24.5398V27.6597C20.5859 28.2237 20.8461 28.7401 21.2997 29.0763C21.6066 29.3038 21.9665 29.4216 22.3335 29.4216C22.503 29.4216 22.674 29.3965 22.842 29.3455C25.9655 28.3968 28.3967 25.9655 29.3454 22.842C29.5069 22.3104 29.4089 21.7483 29.0764 21.2998C28.7401 20.8461 28.2238 20.5859 27.6598 20.5859V20.5859ZM28.2242 22.5014C27.3894 25.25 25.2501 27.3894 22.5015 28.2241C22.3287 28.2766 22.145 28.2441 21.9977 28.1349C21.8454 28.022 21.758 27.8487 21.758 27.6597V24.9734C23.2602 24.4436 24.4437 23.2602 24.9735 21.7578H27.6598C27.8489 21.7578 28.0222 21.8452 28.1351 21.9977C28.2442 22.1449 28.2767 22.3285 28.2242 22.5014V22.5014Z" fill="white"/>
</svg>
