<svg width="40" height="40" viewBox="0 0 40 40" fill="none" xmlns="http://www.w3.org/2000/svg">
<g clip-path="url(#clip0)">
<path d="M38.709 4.17856H33.559C33.7999 2.66974 33.1435 1.09103 31.7698 0.229108C31.2195 -0.116255 30.491 0.0506337 30.1458 0.600929L27.9012 4.17856H11.8508L9.60622 0.600929C9.26109 0.050712 8.53264 -0.116099 7.98226 0.229108C6.62664 1.0796 5.9464 2.65049 6.19298 4.17856H1.29096C0.579102 4.17856 0 4.75766 0 5.46952V23.5758C0 24.2877 0.579102 24.8669 1.29096 24.8669H3.09199C3.41622 24.8669 3.67907 24.604 3.67907 24.2798C3.67907 23.9555 3.41622 23.6927 3.09199 23.6927H1.29096C1.22654 23.6927 1.17417 23.6403 1.17417 23.5758V5.46952C1.17417 5.4051 1.22654 5.35265 1.29096 5.35265H27.1644L26.4277 6.52682H10.6416C10.3174 6.52682 10.0545 6.78968 10.0545 7.11391C10.0545 7.43814 10.3174 7.701 10.6416 7.701H25.6911L24.1035 10.2314C22.958 9.29631 21.5377 8.78758 20.0391 8.78758C16.4873 8.78758 13.5976 11.6772 13.5976 15.2291C13.5976 16.7642 14.1323 18.2164 15.1114 19.376L13.9537 21.3443H5.96848C5.73443 20.1958 4.82749 19.289 3.67907 19.0549V15.1097H8.22516C8.54939 15.1097 8.81225 14.8469 8.81225 14.5226C8.81225 14.1984 8.54939 13.9355 8.22516 13.9355H3.67907V9.9904C4.82749 9.75635 5.73435 8.84942 5.96848 7.701H8.13968C8.46391 7.701 8.72677 7.43814 8.72677 7.11391C8.72677 6.78968 8.46391 6.52682 8.13968 6.52682H5.44033C5.11611 6.52682 4.85325 6.78968 4.85325 7.11391C4.85325 8.08511 4.06319 8.87517 3.09199 8.87517C2.76776 8.87517 2.5049 9.13803 2.5049 9.46226V19.583C2.5049 19.9072 2.76776 20.1701 3.09199 20.1701C4.06319 20.1701 4.85325 20.9602 4.85325 21.9313C4.85325 22.2556 5.11611 22.5184 5.44033 22.5184H13.2631L12.5725 23.6926H5.59399C5.26977 23.6926 5.00691 23.9555 5.00691 24.2797C5.00691 24.6039 5.26977 24.8668 5.59399 24.8668H12.9083C13.1164 24.8668 13.3089 24.7566 13.4144 24.5773L15.9352 20.2915L16.8635 21.7713L14.4952 25.5462C14.3119 25.531 14.1255 25.5437 13.941 25.5859C13.4707 25.6936 13.0703 25.978 12.8138 26.3868L12.133 27.472C10.0686 27.5542 8.20434 28.6288 7.09788 30.3923C6.21169 31.8047 5.92856 33.4777 6.30069 35.1031C6.67282 36.7284 7.65569 38.1116 9.06814 38.9977C10.0968 39.6431 11.2425 39.9508 12.3756 39.9507C14.4545 39.9505 16.4896 38.9146 17.6736 37.0275C18.78 35.2638 18.9366 33.1179 18.1122 31.2234L18.7931 30.1381C19.1637 29.5473 19.149 28.8229 18.8177 28.2597L19.876 26.5728L20.9343 28.2597C20.603 28.8229 20.5883 29.5474 20.959 30.1381L21.6398 31.2234C20.8154 33.1179 20.972 35.2638 22.0784 37.0275C23.2626 38.9147 25.2974 39.9508 27.3764 39.9507C28.5093 39.9507 29.6555 39.643 30.6839 38.9977C32.0963 38.1116 33.0791 36.7284 33.4513 35.1031C33.8235 33.4777 33.5403 31.8047 32.6541 30.3923C31.5477 28.6287 29.6836 27.554 27.6191 27.472L26.9382 26.3868C26.6817 25.9779 26.2814 25.6936 25.8111 25.5858C25.6266 25.5437 25.4402 25.531 25.2569 25.5461L22.8885 21.7713L23.9449 20.0875L26.5857 24.5774C26.6912 24.7567 26.8837 24.8669 27.0918 24.8669H38.709C39.4209 24.8669 40 24.2878 40 23.5758V5.46952C40 4.75766 39.4209 4.17856 38.709 4.17856V4.17856ZM8.61162 1.22488L10.4647 4.17848H7.38891C7.12512 3.05104 7.60113 1.85479 8.61162 1.22488ZM14.7718 15.2292C14.7718 12.3247 17.1347 9.96183 20.0391 9.96183C21.3134 9.96183 22.5178 10.4126 23.4729 11.2366L21.7327 14.0102L20.7315 12.308C20.5775 12.0459 20.304 11.8895 20 11.8895C19.696 11.8895 19.4225 12.046 19.2685 12.3079L15.7512 18.288C15.1158 17.4012 14.7718 16.3419 14.7718 15.2292V15.2292ZM19.876 16.9697L18.8504 15.3349L20.0001 13.3802L21.0297 15.1309L19.876 16.9697ZM16.6058 19.1512L18.1797 16.4752L19.183 18.0743L17.5566 20.6666L16.6058 19.1512ZM17.7984 29.5142L16.9479 30.8699C16.8391 31.0432 16.8285 31.2606 16.9198 31.4438C17.7157 33.0405 17.6257 34.8946 16.679 36.4036C15.1937 38.7709 12.0595 39.4884 9.69209 38.0033C8.54532 37.2838 7.74735 36.1608 7.4452 34.8411C7.14312 33.5215 7.37294 32.1632 8.0924 31.0164C9.02775 29.5256 10.6299 28.6412 12.3887 28.6412C12.4101 28.6412 12.4318 28.6414 12.4533 28.6416C12.6586 28.6456 12.8491 28.5399 12.9578 28.3665L13.8084 27.0108C13.8981 26.8677 14.0383 26.7681 14.203 26.7304C14.3676 26.6926 14.5372 26.7214 14.6803 26.8112L17.5988 28.6423C17.8942 28.8276 17.9837 29.2187 17.7984 29.5142V29.5142ZM25.9436 27.0108L26.7942 28.3665C26.9029 28.5398 27.0951 28.6457 27.2987 28.6416C29.0815 28.6193 30.7128 29.5074 31.6595 31.0163C32.379 32.1631 32.6088 33.5214 32.3067 34.8411C32.0046 36.1607 31.2066 37.2837 30.0598 38.0032C27.6926 39.4885 24.5582 38.7708 23.073 36.4035C22.1263 34.8946 22.0362 33.0404 22.8322 31.4437C22.9235 31.2606 22.9128 31.0432 22.8041 30.8698L21.9535 29.5141C21.7681 29.2187 21.8577 28.8275 22.1531 28.6421L25.0716 26.8111C25.2147 26.7213 25.3842 26.6925 25.5489 26.7303C25.7137 26.7682 25.8538 26.8677 25.9436 27.0108V27.0108ZM24.1555 25.9999L21.8214 27.4644L20.569 25.4683L22.1955 22.8759L24.1555 25.9999ZM24.9038 17.4545C24.6292 17.2822 24.2669 17.3651 24.0945 17.6397L17.9306 27.4643L15.5965 25.9999L31.1457 1.22371C32.4309 2.03005 32.8205 3.73167 32.0141 5.01684L25.4242 15.5204C25.2518 15.7951 25.3348 16.1575 25.6095 16.3298C25.8842 16.5021 26.2466 16.4192 26.4188 16.1445L31.7161 7.70115H34.0315C34.2656 8.84957 35.1725 9.75643 36.3209 9.99056V13.9357H29.2342C28.9099 13.9357 28.6471 14.1986 28.6471 14.5228C28.6471 14.847 28.9099 15.1099 29.2342 15.1099H36.3209V19.055C35.1725 19.2891 34.2657 20.196 34.0315 21.3444H26.0464L24.648 18.9668L25.0891 18.2637C25.2615 17.9891 25.1785 17.6268 24.9038 17.4545V17.4545ZM38.8258 23.5758C38.8258 23.6402 38.7735 23.6927 38.709 23.6927H27.4276L26.737 22.5185H34.5597C34.884 22.5185 35.1468 22.2557 35.1468 21.9314C35.1468 20.9602 35.9369 20.1702 36.9081 20.1702C37.2323 20.1702 37.4952 19.9073 37.4952 19.5831V9.46233C37.4952 9.13811 37.2323 8.87525 36.9081 8.87525C35.9369 8.87525 35.1468 8.08519 35.1468 7.11399C35.1468 6.78976 34.884 6.5269 34.5597 6.5269H32.4529L33.0088 5.64087C33.0681 5.54647 33.1217 5.45011 33.1719 5.35273H38.7091C38.7735 5.35273 38.8259 5.4051 38.8259 5.4696V23.5758H38.8258Z" fill="white"/>
<path d="M14.2888 30.6768C13.717 30.318 13.0607 30.1284 12.3909 30.1284C11.1476 30.1284 10.0116 30.7559 9.35215 31.8069C8.84374 32.6172 8.68139 33.5769 8.89485 34.5093C9.10832 35.4417 9.67208 36.2351 10.4824 36.7436C11.0542 37.1023 11.7104 37.2919 12.3802 37.2919C13.6235 37.2919 14.7595 36.6644 15.4189 35.6133C16.4684 33.9406 15.9614 31.7261 14.2888 30.6768V30.6768ZM14.4243 34.9893C13.981 35.6959 13.2168 36.1177 12.3802 36.1177C11.9315 36.1177 11.491 35.9902 11.1064 35.7489C10.5619 35.4073 10.1829 34.874 10.0394 34.2473C9.89595 33.6206 10.0051 32.9756 10.3468 32.4311C10.7901 31.7245 11.5543 31.3026 12.3909 31.3026C12.8397 31.3026 13.2802 31.4301 13.6647 31.6714C14.7889 32.3766 15.1297 33.865 14.4243 34.9893V34.9893Z" fill="white"/>
<path d="M24.3329 35.6132C24.9924 36.6643 26.1283 37.2918 27.3716 37.2918C28.0414 37.2918 28.6976 37.1022 29.2694 36.7434C30.0797 36.2351 30.6435 35.4417 30.857 34.5092C31.0704 33.5768 30.9081 32.6171 30.3997 31.8069C29.7403 30.7558 28.6042 30.1283 27.3609 30.1283C26.6911 30.1283 26.0348 30.3179 25.463 30.6766C23.7904 31.726 23.2834 33.9406 24.3329 35.6132V35.6132ZM26.0871 31.6713C26.4716 31.4301 26.9121 31.3025 27.3609 31.3025C28.1975 31.3025 28.9617 31.7244 29.4051 32.431C29.7468 32.9756 29.8559 33.6206 29.7124 34.2473C29.5689 34.8739 29.19 35.4072 28.6455 35.7489C28.2609 35.9902 27.8204 36.1177 27.3717 36.1177C26.5351 36.1177 25.7708 35.6958 25.3275 34.9892C24.6221 33.865 24.9629 32.3766 26.0871 31.6713V31.6713Z" fill="white"/>
<path d="M19.7978 21.0282C19.4736 21.0282 19.2107 21.2911 19.2107 21.6153V22.006C19.2107 22.3303 19.4736 22.5931 19.7978 22.5931C20.122 22.5931 20.3849 22.3303 20.3849 22.006V21.6153C20.3849 21.2911 20.122 21.0282 19.7978 21.0282V21.0282Z" fill="white"/>
<path d="M11.2693 15.1097C11.5935 15.1097 11.8564 14.8469 11.8564 14.5226C11.8564 14.1984 11.5935 13.9355 11.2693 13.9355H10.6003C10.276 13.9355 10.0132 14.1984 10.0132 14.5226C10.0132 14.8469 10.276 15.1097 10.6003 15.1097H11.2693Z" fill="white"/>
</g>
<defs>
<clipPath id="clip0">
<rect width="40" height="40" fill="white"/>
</clipPath>
</defs>
</svg>
