<svg width="40" height="40" viewBox="0 0 40 40" fill="none" xmlns="http://www.w3.org/2000/svg">
<g clip-path="url(#clip0)">
<path d="M9.40166 29.2789H14.4582C14.7812 29.2789 15.043 29.0171 15.043 28.6941C15.043 28.3712 14.7812 28.1094 14.4582 28.1094H9.40166C9.07869 28.1094 8.81689 28.3712 8.81689 28.6941C8.81689 29.0171 9.07869 29.2789 9.40166 29.2789V29.2789Z" fill="white"/>
<path d="M9.40166 31.7099H17.4458C17.7688 31.7099 18.0306 31.4481 18.0306 31.1252C18.0306 30.8022 17.7688 30.5404 17.4458 30.5404H9.40166C9.07869 30.5404 8.81689 30.8022 8.81689 31.1252C8.81689 31.4481 9.07869 31.7099 9.40166 31.7099Z" fill="white"/>
<path d="M32.1907 3.79324C29.4018 3.79324 26.9501 5.26308 25.5684 7.46847H24.7813L23.6521 4.61972C23.3871 3.95128 22.7513 3.51941 22.0323 3.51941H4.55258C3.5918 3.51941 2.81008 4.30105 2.81008 5.26183V6.89558C2.81008 7.21152 2.55305 7.46847 2.23719 7.46847H2.13039C0.955703 7.46847 0 8.42417 0 9.59886V33.3075C0 35.0572 1.42344 36.4807 3.17313 36.4807H3.17328H3.17336H36.1067C37.2814 36.4807 38.2371 35.525 38.2371 34.3503V30.2809C38.2371 29.9579 37.9753 29.6961 37.6523 29.6961C37.3294 29.6961 37.0676 29.9579 37.0676 30.2809V34.3503C37.0676 34.88 36.6366 35.3111 36.1067 35.3111H5.63234C6.07875 34.7643 6.34672 34.0665 6.34672 33.3073V13.1482C6.34672 12.6183 6.77773 12.1873 7.30758 12.1873H13.55C13.873 12.1873 14.1348 11.9255 14.1348 11.6025C14.1348 11.2796 13.873 11.0178 13.55 11.0178H7.30758C6.13289 11.0178 5.17719 11.9735 5.17719 13.1482V33.3074C5.17719 34.4123 4.27828 35.3112 3.17336 35.3112H3.17328H3.17313C2.06836 35.3112 1.16953 34.4124 1.16953 33.3076V9.59886C1.16953 9.06902 1.60055 8.638 2.13039 8.638H2.23719C3.19797 8.638 3.97969 7.85636 3.97969 6.89558V5.26183C3.97969 4.94589 4.23672 4.68894 4.55258 4.68894H12.7357C12.9721 4.68894 13.1812 4.83097 13.2683 5.05074L14.2541 7.53761C14.5191 8.20613 15.1548 8.638 15.8739 8.638H24.9666C24.6605 9.38105 24.4656 10.1811 24.4034 11.0177H16.243C15.92 11.0177 15.6582 11.2795 15.6582 11.6025C15.6582 11.9254 15.92 12.1872 16.243 12.1872H24.4034C24.7034 16.2212 28.0815 19.4118 32.1908 19.4118C34.0343 19.4118 35.7304 18.7692 37.0677 17.6969V27.5696C37.0677 27.8926 37.3295 28.1544 37.6524 28.1544C37.9754 28.1544 38.2372 27.8926 38.2372 27.5696V16.5389C39.3384 15.1926 40 13.4734 40 11.6025C40 7.29644 36.4968 3.79324 32.1907 3.79324V3.79324ZM15.8739 7.46847C15.6375 7.46847 15.4284 7.32644 15.3413 7.10667L14.383 4.68894H22.0323C22.2688 4.68894 22.4778 4.83097 22.5649 5.05074L23.5233 7.46855H15.8739V7.46847ZM32.1907 18.2422C28.5295 18.2422 25.5509 15.2636 25.5509 11.6025C25.5509 7.94128 28.5295 4.96269 32.1907 4.96269C35.8519 4.96269 38.8305 7.94128 38.8305 11.6025C38.8305 15.2636 35.8519 18.2422 32.1907 18.2422V18.2422Z" fill="white"/>
<path d="M33.5012 7.03376C33.1686 6.65993 32.6909 6.44556 32.1906 6.44556C31.6903 6.44556 31.2125 6.65993 30.88 7.03376L28.1283 10.1265C27.8168 10.4766 27.6604 10.927 27.6876 11.3949C27.7149 11.8627 27.9228 12.2918 28.2729 12.6033C28.6229 12.9148 29.0733 13.0714 29.5412 13.044C29.8672 13.0249 30.1746 12.9182 30.4363 12.7367V15.0052C30.4363 15.9726 31.2232 16.7595 32.1906 16.7595C33.1579 16.7595 33.9449 15.9726 33.9449 15.0052V12.7358C34.2355 12.9365 34.5832 13.047 34.9426 13.047C35.3728 13.047 35.7868 12.8894 36.1083 12.6033C36.4584 12.2918 36.6662 11.8627 36.6936 11.3949C36.7208 10.927 36.5643 10.4767 36.2529 10.1265L33.5012 7.03376ZM35.526 11.3267C35.5169 11.4827 35.4476 11.6257 35.331 11.7295C35.2238 11.8249 35.0858 11.8774 34.9426 11.8774C34.7732 11.8774 34.6178 11.8078 34.5054 11.6813L33.797 10.8852C33.6356 10.7038 33.3789 10.6409 33.1522 10.7274C32.9253 10.8137 32.7754 11.0312 32.7754 11.2739V15.0052C32.7754 15.3277 32.513 15.59 32.1906 15.59C31.8681 15.59 31.6058 15.3277 31.6058 15.0052V11.2739C31.6058 11.0312 31.4559 10.8137 31.229 10.7274C31.1613 10.7016 31.0909 10.6891 31.0212 10.6891C30.8575 10.6891 30.6974 10.758 30.5842 10.8852L29.8758 11.6813C29.772 11.798 29.6289 11.8673 29.473 11.8764C29.317 11.8857 29.1669 11.8334 29.0502 11.7295C28.9335 11.6257 28.8643 11.4827 28.8551 11.3267C28.846 11.1708 28.8982 11.0206 29.0021 10.9039L31.7537 7.8111C31.8646 7.68657 32.0238 7.61509 32.1906 7.61509C32.3574 7.61509 32.5166 7.68657 32.6275 7.81118L35.3791 10.9039C35.4829 11.0206 35.535 11.1708 35.526 11.3267V11.3267Z" fill="white"/>
</g>
<defs>
<clipPath id="clip0">
<rect width="40" height="40" fill="white"/>
</clipPath>
</defs>
</svg>
