<svg width="40" height="40" viewBox="0 0 40 40" fill="none" xmlns="http://www.w3.org/2000/svg">
<g clip-path="url(#clip0)">
<path d="M35.1642 2.13855H27.4625C27.1387 2.13855 26.8762 2.40095 26.8762 2.72479C26.8762 3.04862 27.1387 3.31102 27.4625 3.31102H35.1642C35.5662 3.31102 35.8931 3.63806 35.8931 4.03991V31.3129C35.8931 31.6367 36.1556 31.8991 36.4794 31.8991C36.8031 31.8991 37.0656 31.6367 37.0656 31.3129V4.03998C37.0655 2.99148 36.2126 2.13855 35.1642 2.13855V2.13855Z" fill="white"/>
<path d="M36.4793 33.2251C36.1556 33.2251 35.8931 33.4875 35.8931 33.8113V38.0986C35.8931 38.5006 35.5661 38.8275 35.1642 38.8275H4.83568C4.43376 38.8275 4.1068 38.5005 4.1068 38.0986V4.04003C4.1068 3.63811 4.43376 3.31114 4.83568 3.31114H12.5375C12.8612 3.31114 13.1237 3.04874 13.1237 2.72491C13.1237 2.40107 12.8612 2.13867 12.5375 2.13867H4.83568C3.78726 2.13867 2.93433 2.99161 2.93433 4.04003V38.0986C2.93433 39.147 3.78726 39.9999 4.83568 39.9999H35.1643C36.2127 39.9999 37.0657 39.147 37.0657 38.0986V33.8113C37.0656 33.4876 36.8031 33.2251 36.4793 33.2251V33.2251Z" fill="white"/>
<path d="M13.1237 5.06988C13.1237 4.74604 12.8612 4.48364 12.5374 4.48364H5.86553C5.54177 4.48364 5.2793 4.74604 5.2793 5.06988V16.096C5.2793 16.4199 5.54177 16.6823 5.86553 16.6823C6.18929 16.6823 6.45177 16.4199 6.45177 16.096V5.65611H12.5374C12.8613 5.65611 13.1237 5.39371 13.1237 5.06988V5.06988Z" fill="white"/>
<path d="M5.2793 37.0689C5.2793 37.3928 5.54177 37.6552 5.86553 37.6552H34.1344C34.4582 37.6552 34.7207 37.3928 34.7207 37.0689V5.06988C34.7207 4.74604 34.4582 4.48364 34.1344 4.48364H27.4625C27.1388 4.48364 26.8763 4.74604 26.8763 5.06988C26.8763 5.39371 27.1388 5.65611 27.4625 5.65611H33.5482V36.4827H6.45177V18.5943C6.45177 18.2705 6.18929 18.0081 5.86553 18.0081C5.54177 18.0081 5.2793 18.2705 5.2793 18.5943V37.0689Z" fill="white"/>
<path d="M15.5342 8.80908H16.5062C16.8299 8.80908 17.0924 8.54668 17.0924 8.22285C17.0924 7.89901 16.8299 7.63661 16.5062 7.63661H15.5342C15.4981 7.63661 15.4686 7.60722 15.4686 7.57103V2.56857C15.4686 2.53246 15.498 2.50307 15.5342 2.50307H18.0219C18.2602 2.50307 18.4748 2.3587 18.5648 2.13796C18.8037 1.55149 19.3671 1.17247 20 1.17247C20.6329 1.17247 21.1962 1.55149 21.4351 2.13804C21.525 2.35878 21.7397 2.50315 21.9781 2.50315H24.4657C24.5019 2.50315 24.5313 2.53254 24.5313 2.56865V7.57103C24.5313 7.60722 24.5019 7.63661 24.4657 7.63661H19.0045C18.6808 7.63661 18.4183 7.89901 18.4183 8.22285C18.4183 8.54668 18.6808 8.80908 19.0045 8.80908H24.4657C25.1484 8.80908 25.7038 8.25372 25.7038 7.57103V2.56857C25.7038 1.88596 25.1484 1.3306 24.4657 1.3306H22.3399C21.8547 0.511041 20.9742 0 20 0C19.0257 0 18.1453 0.511041 17.66 1.3306H15.5342C14.8516 1.3306 14.2961 1.88588 14.2961 2.56857V7.57103C14.2961 8.25372 14.8516 8.80908 15.5342 8.80908V8.80908Z" fill="white"/>
<path d="M18.3415 5.06988C18.3415 4.74604 18.0791 4.48364 17.7553 4.48364H17.3387C17.0149 4.48364 16.7524 4.74604 16.7524 5.06988C16.7524 5.39371 17.0149 5.65611 17.3387 5.65611H17.7553C18.0791 5.65611 18.3415 5.39371 18.3415 5.06988Z" fill="white"/>
<path d="M22.7394 5.65611C23.0632 5.65611 23.3257 5.39371 23.3257 5.06988C23.3257 4.74604 23.0632 4.48364 22.7394 4.48364H22.3228C21.9991 4.48364 21.7366 4.74604 21.7366 5.06988C21.7366 5.39371 21.9991 5.65611 22.3228 5.65611H22.7394Z" fill="white"/>
<path d="M13.0902 11.3211C13.0902 10.9973 12.8277 10.7349 12.504 10.7349C12.1802 10.7349 11.9177 10.9973 11.9177 11.3211V15.6146C11.9177 16.0529 12.2743 16.4095 12.7127 16.4095H13.9328C14.2566 16.4095 14.519 16.1471 14.519 15.8233C14.519 15.4995 14.2566 15.2371 13.9328 15.2371H13.0902V11.3211Z" fill="white"/>
<path d="M15.3604 12.4827V14.6616C15.3604 15.6254 16.1444 16.4095 17.1082 16.4095C18.072 16.4095 18.856 15.6254 18.856 14.6616V12.4827C18.856 11.5189 18.072 10.7349 17.1082 10.7349C16.1444 10.7349 15.3604 11.5189 15.3604 12.4827ZM16.5328 12.4827C16.5328 12.1654 16.7909 11.9073 17.1082 11.9073C17.4255 11.9073 17.6836 12.1655 17.6836 12.4827V14.6616C17.6836 14.9789 17.4255 15.237 17.1082 15.237C16.7909 15.237 16.5328 14.9788 16.5328 14.6616V12.4827Z" fill="white"/>
<path d="M22.9178 16.4095C23.2416 16.4095 23.5041 16.1471 23.5041 15.8233V12.0848C23.5041 11.3405 22.8985 10.7349 22.1542 10.7349H21.3582C20.6139 10.7349 20.0083 11.3404 20.0083 12.0848V15.8233C20.0083 16.1471 20.2708 16.4095 20.5945 16.4095C20.9183 16.4095 21.1808 16.1471 21.1808 15.8233V14.2528H22.3316V15.8233C22.3316 16.1471 22.5941 16.4095 22.9178 16.4095ZM21.1808 13.0803V12.0848C21.1808 11.987 21.2604 11.9073 21.3583 11.9073H22.1542C22.252 11.9073 22.3317 11.987 22.3317 12.0848V13.0803H21.1808Z" fill="white"/>
<path d="M25.1446 10.7494C24.8776 10.8099 24.6882 11.0473 24.6882 11.321V15.8232C24.6882 16.147 24.9507 16.4094 25.2745 16.4094C25.5982 16.4094 25.8607 16.147 25.8607 15.8232V13.9017L26.9025 16.0764C27.0015 16.2832 27.2093 16.4095 27.431 16.4095C27.474 16.4095 27.5176 16.4047 27.561 16.3948C27.828 16.3342 28.0174 16.0968 28.0174 15.8232V11.321C28.0174 10.9971 27.7549 10.7347 27.4312 10.7347C27.1074 10.7347 26.8449 10.9971 26.8449 11.321V13.2425L25.8032 11.0677C25.6849 10.821 25.4118 10.6888 25.1446 10.7494Z" fill="white"/>
<path d="M12.6497 19.0122H11.9014C11.5777 19.0122 11.3152 19.2746 11.3152 19.5984C11.3152 19.9223 11.5777 20.1847 11.9014 20.1847H12.6497C12.9735 20.1847 13.2359 19.9223 13.2359 19.5984C13.2359 19.2746 12.9735 19.0122 12.6497 19.0122V19.0122Z" fill="white"/>
<path d="M14.7922 19.5984C14.7922 19.9223 15.0547 20.1847 15.3785 20.1847H30.243C30.5667 20.1847 30.8292 19.9223 30.8292 19.5984C30.8292 19.2746 30.5667 19.0122 30.243 19.0122H15.3785C15.0547 19.0122 14.7922 19.2747 14.7922 19.5984V19.5984Z" fill="white"/>
<path d="M9.14526 22.5477C9.14526 22.8715 9.40774 23.1339 9.7315 23.1339H30.243C30.5668 23.1339 30.8293 22.8715 30.8293 22.5477C30.8293 22.2238 30.5668 21.9614 30.243 21.9614H9.7315C9.40774 21.9614 9.14526 22.2238 9.14526 22.5477V22.5477Z" fill="white"/>
<path d="M30.8293 25.4966C30.8293 25.1728 30.5668 24.9104 30.243 24.9104H9.7315C9.40774 24.9104 9.14526 25.1728 9.14526 25.4966C9.14526 25.8205 9.40774 26.0829 9.7315 26.0829H30.243C30.5668 26.0829 30.8293 25.8205 30.8293 25.4966Z" fill="white"/>
<path d="M25.7567 28.8136C25.5727 28.5472 25.2077 28.4804 24.9412 28.6644L23.1078 29.9307C22.5278 28.8268 21.3702 28.0718 20.039 28.0718C18.1284 28.0718 16.574 29.6262 16.574 31.5367C16.574 33.4473 18.1284 35.0018 20.039 35.0018C21.9497 35.0018 23.5041 33.4473 23.5041 31.5367C23.5041 31.3892 23.4937 31.2442 23.4758 31.1015L25.6075 29.6291C25.8739 29.4451 25.9407 29.0799 25.7567 28.8136ZM20.0389 33.8293C18.7749 33.8293 17.7464 32.8009 17.7464 31.5367C17.7464 30.2727 18.7748 29.2442 20.0389 29.2442C20.9711 29.2442 21.7745 29.8038 22.1325 30.6043L20.4259 31.783L19.8713 31.1503C19.658 30.9069 19.2875 30.8824 19.0441 31.0958C18.8006 31.3092 18.7762 31.6796 18.9896 31.9231L19.8884 32.9486C20.0035 33.08 20.1656 33.1485 20.3296 33.1485C20.4449 33.1485 20.5612 33.1145 20.6624 33.0446L22.2999 31.9136C22.1197 32.999 21.1747 33.8293 20.0389 33.8293V33.8293Z" fill="white"/>
</g>
<defs>
<clipPath id="clip0">
<rect width="40" height="40" fill="white"/>
</clipPath>
</defs>
</svg>
