<svg width="40" height="40" viewBox="0 0 40 40" fill="none" xmlns="http://www.w3.org/2000/svg">
<g clip-path="url(#clip0)">
<path d="M37.1469 16.4396C37.0998 13.5142 35.9144 10.7654 33.8088 8.69977C33.578 8.4732 33.207 8.4768 32.9803 8.70766C32.7537 8.93867 32.7573 9.30969 32.9882 9.53625C36.9098 13.3838 37.0077 19.5044 33.2111 23.4704C30.2816 26.5308 25.727 27.3929 21.8776 25.6154C20.633 25.0409 19.2001 25.0269 17.9459 25.5773L16.4666 26.2266L17.117 24.7137C17.6524 23.4687 17.6286 22.0412 17.0519 20.7973C15.3063 17.0325 16.1023 12.5342 19.0325 9.60414C22.1695 6.46711 27.0593 5.79969 30.9232 7.98133C31.2048 8.14016 31.5624 8.04094 31.7216 7.75914C31.8806 7.47734 31.7812 7.11992 31.4994 6.96078C30.0837 6.16156 28.5449 5.7043 26.9923 5.57414V3.71094C26.9922 1.66477 25.3274 0 23.2812 0H6.5625C4.51633 0 2.85156 1.66477 2.85156 3.71094V6.11828C2.87844 6.89414 3.99687 6.89352 4.02344 6.11828V3.71094C4.02344 2.31086 5.16242 1.17188 6.5625 1.17188H23.2812C24.6813 1.17188 25.8203 2.31086 25.8203 3.71094V5.53805C25.5331 5.54422 25.2465 5.56125 24.9609 5.58945V3.71094C24.9609 2.78477 24.2074 2.03125 23.2812 2.03125H20.1484C19.7152 2.03125 19.3303 2.30625 19.1913 2.71383L18.8152 3.80617H11.0294L10.653 2.71328C10.5121 2.30531 10.1275 2.03125 9.69617 2.03125H6.5625C5.63633 2.03125 4.88281 2.78477 4.88281 3.71094V36.2891C4.88281 37.2152 5.63633 37.9688 6.5625 37.9688H19.419C20.1948 37.9419 20.1942 36.8234 19.419 36.7969H6.5625C6.2825 36.7969 6.05469 36.5691 6.05469 36.2891V3.71094C6.05469 3.43094 6.2825 3.20312 6.5625 3.20312H9.58226L9.95789 4.29375C10.0974 4.70305 10.4823 4.97813 10.9156 4.97813H18.9289C19.3604 4.97813 19.745 4.70398 19.886 4.29555L20.2622 3.20312H23.2812C23.5612 3.20312 23.7891 3.43094 23.7891 3.71094V5.76852C16.9088 7.07797 12.9538 14.9466 15.9887 21.2902C16.4255 22.2323 16.4445 23.3114 16.0405 24.2509L15.042 26.5734C14.9072 26.8865 14.9765 27.244 15.2184 27.4841C15.4614 27.7259 15.822 27.7901 16.1306 27.654L18.417 26.6504C19.3639 26.2348 20.4462 26.2452 21.3865 26.6795C22.1666 27.0396 22.9728 27.3015 23.7892 27.4707V36.2891C23.7892 36.5691 23.5614 36.7969 23.2814 36.7969H22.1663C21.3905 36.8238 21.3911 37.9422 22.1663 37.9688H23.2812C24.2074 37.9688 24.9609 37.2152 24.9609 36.2891V27.648C25.2473 27.6759 25.5339 27.6927 25.8203 27.6983V36.2891C25.8203 37.6891 24.6813 38.8281 23.2812 38.8281H6.5625C5.16242 38.8281 4.02344 37.6891 4.02344 36.2891V8.76789C3.99656 7.99203 2.87812 7.99266 2.85156 8.76789V36.2891C2.85156 38.3352 4.51633 40 6.5625 40H23.2812C25.3274 40 26.9922 38.3352 26.9922 36.2891V27.6596C29.6205 27.4333 32.148 26.2756 34.0576 24.2808C36.0969 22.1504 37.1941 19.3657 37.1469 16.4396V16.4396Z" fill="white"/>
<path d="M17.9689 28.4766H11.8752C8.92067 28.5992 8.92294 32.8081 11.8752 32.9297H17.9689C20.9235 32.807 20.9212 28.5981 17.9689 28.4766ZM17.9689 31.7578H11.8752C10.4757 31.6998 10.4768 29.7059 11.8752 29.6484H17.9689C19.3685 29.7065 19.3674 31.7003 17.9689 31.7578Z" fill="white"/>
<path d="M26.0548 9.9917C25.7311 9.9917 25.4689 10.254 25.4689 10.5776V11.2341C22.5768 11.5286 20.3126 13.9781 20.3126 16.9466V16.9857H19.1798C18.4039 17.0126 18.4046 18.131 19.1798 18.1576H19.6399L20.1739 19.5171C20.3716 20.0201 20.8485 20.3451 21.3889 20.3451H30.7208C31.2612 20.3451 31.7381 20.0201 31.9357 19.517L32.4698 18.1576H32.9299C33.7057 18.1307 33.7051 17.0122 32.9299 16.9857H31.797V16.9466C31.797 13.9781 29.5329 11.5286 26.6407 11.2341V10.5776C26.6407 10.254 26.3785 9.9917 26.0548 9.9917V9.9917ZM30.845 19.0885C30.8247 19.1399 30.776 19.1732 30.7207 19.1732H21.3888C21.3336 19.1732 21.2848 19.1399 21.2646 19.0886L20.8988 18.1576H31.2107L30.845 19.0885ZM30.6251 16.9466V16.9857H21.4845V16.9466C21.7363 10.882 30.3756 10.8867 30.6251 16.9466Z" fill="white"/>
</g>
<defs>
<clipPath id="clip0">
<rect width="40" height="40" fill="white"/>
</clipPath>
</defs>
</svg>
