<svg width="40" height="40" viewBox="0 0 40 40" fill="none" xmlns="http://www.w3.org/2000/svg">
<g clip-path="url(#clip0)">
<path d="M9.40166 29.2787H14.4582C14.7812 29.2787 15.043 29.0169 15.043 28.6939C15.043 28.3709 14.7812 28.1091 14.4582 28.1091H9.40166C9.07869 28.1091 8.81689 28.3709 8.81689 28.6939C8.81689 29.0169 9.07869 29.2787 9.40166 29.2787V29.2787Z" fill="white"/>
<path d="M9.40166 31.7098H17.4458C17.7688 31.7098 18.0306 31.448 18.0306 31.125C18.0306 30.8021 17.7688 30.5403 17.4458 30.5403H9.40166C9.07869 30.5403 8.81689 30.8021 8.81689 31.125C8.81689 31.448 9.07869 31.7098 9.40166 31.7098Z" fill="white"/>
<path d="M32.1907 3.79312C29.4018 3.79312 26.9501 5.26296 25.5684 7.46835H24.7813L23.6521 4.6196C23.3871 3.95116 22.7513 3.51929 22.0323 3.51929H4.55258C3.5918 3.51929 2.81008 4.30093 2.81008 5.26171V6.89546C2.81008 7.2114 2.55305 7.46835 2.23719 7.46835H2.13039C0.955703 7.46835 0 8.42405 0 9.59874V33.3074C0 35.0571 1.42344 36.4805 3.17313 36.4805H3.17328H3.17336H36.1067C37.2814 36.4805 38.2371 35.5248 38.2371 34.3501V30.2808C38.2371 29.9578 37.9753 29.696 37.6523 29.696C37.3294 29.696 37.0676 29.9578 37.0676 30.2808V34.3501C37.0676 34.8799 36.6366 35.311 36.1067 35.311H5.63234C6.07875 34.7642 6.34672 34.0664 6.34672 33.3072V13.148C6.34672 12.6182 6.77773 12.1872 7.30758 12.1872H13.55C13.873 12.1872 14.1348 11.9254 14.1348 11.6024C14.1348 11.2794 13.873 11.0176 13.55 11.0176H7.30758C6.13289 11.0176 5.17719 11.9733 5.17719 13.148V33.3073C5.17719 34.4122 4.27828 35.3111 3.17336 35.3111H3.17328H3.17313C2.06836 35.3111 1.16953 34.4123 1.16953 33.3075V9.59874C1.16953 9.0689 1.60055 8.63788 2.13039 8.63788H2.23719C3.19797 8.63788 3.97969 7.85624 3.97969 6.89546V5.26171C3.97969 4.94577 4.23672 4.68882 4.55258 4.68882H12.7357C12.9721 4.68882 13.1812 4.83085 13.2683 5.05062L14.2541 7.53749C14.5191 8.20601 15.1548 8.63788 15.8739 8.63788H24.9666C24.6605 9.38093 24.4656 10.181 24.4034 11.0176H16.243C15.92 11.0176 15.6582 11.2794 15.6582 11.6023C15.6582 11.9253 15.92 12.1871 16.243 12.1871H24.4034C24.7034 16.2211 28.0815 19.4116 32.1908 19.4116C34.0343 19.4116 35.7304 18.7691 37.0677 17.6968V27.5695C37.0677 27.8925 37.3295 28.1543 37.6524 28.1543C37.9754 28.1543 38.2372 27.8925 38.2372 27.5695V16.5388C39.3384 15.1925 40 13.4733 40 11.6023C40 7.29632 36.4968 3.79312 32.1907 3.79312V3.79312ZM15.8739 7.46835C15.6375 7.46835 15.4284 7.32632 15.3413 7.10655L14.383 4.68882H22.0323C22.2688 4.68882 22.4778 4.83085 22.5649 5.05062L23.5233 7.46843H15.8739V7.46835ZM32.1907 18.2421C28.5295 18.2421 25.5509 15.2635 25.5509 11.6023C25.5509 7.94116 28.5295 4.96257 32.1907 4.96257C35.8519 4.96257 38.8305 7.94116 38.8305 11.6023C38.8305 15.2635 35.8519 18.2421 32.1907 18.2421V18.2421Z" fill="white"/>
<path d="M33.5012 7.03352C33.1686 6.65969 32.6909 6.44531 32.1906 6.44531C31.6903 6.44531 31.2125 6.65969 30.88 7.03352L28.1283 10.1262C27.8168 10.4763 27.6604 10.9268 27.6876 11.3946C27.7149 11.8624 27.9228 12.2916 28.2729 12.603C28.6229 12.9145 29.0733 13.0712 29.5412 13.0438C29.8672 13.0247 30.1746 12.918 30.4363 12.7365V15.005C30.4363 15.9723 31.2232 16.7593 32.1906 16.7593C33.1579 16.7593 33.9449 15.9723 33.9449 15.005V12.7355C34.2355 12.9362 34.5832 13.0467 34.9426 13.0467C35.3728 13.0467 35.7868 12.8891 36.1083 12.603C36.4584 12.2916 36.6662 11.8624 36.6936 11.3946C36.7208 10.9268 36.5643 10.4764 36.2529 10.1262L33.5012 7.03352ZM35.526 11.3265C35.5169 11.4824 35.4476 11.6255 35.331 11.7293C35.2238 11.8247 35.0858 11.8772 34.9426 11.8772C34.7732 11.8772 34.6178 11.8076 34.5054 11.6811L33.797 10.8849C33.6356 10.7036 33.3789 10.6407 33.1522 10.7271C32.9253 10.8134 32.7754 11.0309 32.7754 11.2737V15.005C32.7754 15.3274 32.513 15.5898 32.1906 15.5898C31.8681 15.5898 31.6058 15.3275 31.6058 15.005V11.2737C31.6058 11.0309 31.4559 10.8134 31.229 10.7271C31.1613 10.7013 31.0909 10.6888 31.0212 10.6888C30.8575 10.6888 30.6974 10.7577 30.5842 10.8849L29.8758 11.6811C29.772 11.7977 29.6289 11.867 29.473 11.8762C29.317 11.8855 29.1669 11.8331 29.0502 11.7293C28.9335 11.6255 28.8643 11.4824 28.8551 11.3265C28.846 11.1705 28.8982 11.0204 29.0021 10.9037L31.7537 7.81086C31.8646 7.68633 32.0238 7.61484 32.1906 7.61484C32.3574 7.61484 32.5166 7.68633 32.6275 7.81094L35.3791 10.9037C35.4829 11.0204 35.535 11.1705 35.526 11.3265V11.3265Z" fill="white"/>
</g>
<defs>
<clipPath id="clip0">
<rect width="40" height="40" fill="white"/>
</clipPath>
</defs>
</svg>
