<svg width="40" height="40" viewBox="0 0 40 40" fill="none" xmlns="http://www.w3.org/2000/svg">
<g clip-path="url(#clip0)">
<path d="M7.20409 9.97342C7.52721 9.97342 7.78903 9.7116 7.78903 9.38848V3.97015C7.78903 2.42605 9.04527 1.16989 10.5893 1.16989H29.3327C30.8768 1.16989 32.133 2.42605 32.133 3.97015V9.38848C32.133 9.7116 32.3948 9.97342 32.7179 9.97342C33.041 9.97342 33.3029 9.7116 33.3029 9.38848V3.97015C33.3029 1.78105 31.5219 0 29.3328 0H10.5893C8.40019 0 6.61914 1.78105 6.61914 3.97015V9.38848C6.61914 9.7116 6.88104 9.97342 7.20409 9.97342V9.97342Z" fill="white"/>
<path d="M32.718 33.311C32.3949 33.311 32.133 33.5729 32.133 33.896V36.0298C32.133 37.5739 30.8769 38.8301 29.3328 38.8301H10.5893C9.04519 38.8301 7.78903 37.5739 7.78903 36.0298V33.896C7.78903 33.5729 7.52721 33.311 7.20409 33.311C6.88096 33.311 6.61914 33.5729 6.61914 33.896V36.0298C6.61914 38.2189 8.40019 40 10.5893 40H29.3327C31.5218 40 33.3029 38.2189 33.3029 36.0298V33.896C33.3029 33.5729 33.0411 33.311 32.718 33.311Z" fill="white"/>
<path d="M30.3779 7.19165C30.0548 7.19165 29.793 7.45347 29.793 7.7766V9.38832C29.793 9.71145 30.0548 9.97327 30.3779 9.97327C30.701 9.97327 30.9629 9.71145 30.9629 9.38832V7.7766C30.9629 7.45347 30.701 7.19165 30.3779 7.19165V7.19165Z" fill="white"/>
<path d="M30.963 3.97021C30.963 3.07126 30.2316 2.33984 29.3327 2.33984H26.338C25.9597 2.33984 25.6037 2.54122 25.4086 2.86552L24.9137 3.68865C24.8178 3.84792 24.6429 3.94697 24.457 3.94697H15.4649C15.279 3.94697 15.104 3.84792 15.0083 3.68858L14.5133 2.86544C14.3183 2.54122 13.9622 2.33984 13.584 2.33984H10.5893C9.69032 2.33984 8.95898 3.07126 8.95898 3.97021V9.38853C8.95898 9.71166 9.22081 9.97348 9.54393 9.97348C9.86706 9.97348 10.1289 9.71166 10.1289 9.38853V3.97021C10.1289 3.71626 10.3354 3.50974 10.5893 3.50974H13.5356L14.0056 4.29138C14.3117 4.80052 14.8709 5.11678 15.4649 5.11678H24.457C25.051 5.11678 25.6102 4.80052 25.9163 4.29146L26.3863 3.50974H29.3326C29.5865 3.50974 29.793 3.71626 29.793 3.97021V5.28392C29.793 5.60705 30.0548 5.86887 30.378 5.86887C30.7011 5.86887 30.9629 5.60705 30.9629 5.28392V3.97021H30.963Z" fill="white"/>
<path d="M9.54393 33.311C9.22081 33.311 8.95898 33.5729 8.95898 33.896V36.0298C8.95898 36.9287 9.69032 37.6602 10.5893 37.6602H29.3327C30.2316 37.6602 30.963 36.9287 30.963 36.0298V33.896C30.963 33.5729 30.7012 33.311 30.378 33.311C30.0549 33.311 29.7931 33.5729 29.7931 33.896V36.0298C29.7931 36.2837 29.5866 36.4903 29.3327 36.4903H10.5893C10.3354 36.4903 10.1289 36.2837 10.1289 36.0298V33.896C10.1289 33.5729 9.86706 33.311 9.54393 33.311Z" fill="white"/>
<path d="M35.7166 11.1433H26.3657C26.0426 11.1433 25.7808 11.4051 25.7808 11.7283C25.7808 12.0514 26.0426 12.3132 26.3657 12.3132H35.7167C36.2616 12.3132 36.705 12.7566 36.705 13.3015V29.9829C36.705 30.5278 36.2616 30.9712 35.7167 30.9712H28.7542C28.4311 30.9712 28.1693 31.233 28.1693 31.5562C28.1693 31.8793 28.4311 32.1411 28.7542 32.1411H35.7167C36.9068 32.1411 37.8749 31.173 37.8749 29.9829V13.3015C37.8748 12.1114 36.9067 11.1433 35.7166 11.1433Z" fill="white"/>
<path d="M26.8462 31.5562C26.8462 31.233 26.5844 30.9712 26.2612 30.9712H4.28322C3.73828 30.9712 3.29489 30.5278 3.29489 29.9829V13.3015C3.29489 12.7566 3.73828 12.3132 4.28322 12.3132H13.1509C13.4741 12.3132 13.7359 12.0514 13.7359 11.7283C13.7359 11.4051 13.4741 11.1433 13.1509 11.1433H4.28322C3.09313 11.1433 2.125 12.1114 2.125 13.3015V29.9829C2.125 31.173 3.09313 32.1411 4.28322 32.1411H26.2612C26.5843 32.1411 26.8462 31.8792 26.8462 31.5562Z" fill="white"/>
<path d="M6.16529 19.3215H10.3655C11.0597 19.3215 11.6246 18.7567 11.6246 18.0624V15.594C11.6246 14.8998 11.0598 14.335 10.3655 14.335H6.16529C5.47107 14.335 4.90625 14.8997 4.90625 15.594V18.0624C4.90625 18.7567 5.471 19.3215 6.16529 19.3215V19.3215ZM6.07614 15.594C6.07614 15.5449 6.11615 15.5049 6.16529 15.5049H10.3655C10.4147 15.5049 10.4547 15.5449 10.4547 15.594V18.0624C10.4547 18.1116 10.4147 18.1516 10.3655 18.1516H6.16529C6.11615 18.1516 6.07614 18.1116 6.07614 18.0624V15.594Z" fill="white"/>
<path d="M34.4893 29.5523C35.0748 29.5523 35.5511 29.076 35.5511 28.4904V24.3138C35.5511 23.7283 35.0748 23.252 34.4893 23.252H27.9848C27.3992 23.252 26.9229 23.7283 26.9229 24.3138V28.4904C26.9229 29.076 27.3992 29.5523 27.9848 29.5523H34.4893ZM34.3812 28.3824H32.3531V26.5089C32.3531 26.3538 32.2915 26.2051 32.1818 26.0953L31.822 25.7354V24.4218H34.3812V28.3824ZM28.0927 24.4218H30.652V25.9777C30.652 26.1328 30.7136 26.2815 30.8233 26.3913L31.1831 26.7512V28.3824H28.0926V24.4218H28.0927Z" fill="white"/>
<path d="M26.9064 8.99094C27.2296 8.99094 27.4914 8.72912 27.4914 8.40599C27.4914 8.08287 27.2296 7.82104 26.9064 7.82104H25.6199C25.187 7.82104 24.7975 8.07842 24.6276 8.47673L24.2978 9.25034H15.4132C15.1024 9.25034 14.8136 9.40469 14.6409 9.66332C14.4683 9.92178 14.4364 10.2476 14.5555 10.5349L16.1918 14.4789C16.3361 14.8268 16.6728 15.0517 17.0495 15.0517H21.8243L21.1638 16.6009H16.0032C15.6801 16.6009 15.4183 16.8628 15.4183 17.1859C15.4183 17.509 15.6801 17.7708 16.0032 17.7708H21.224C21.6572 17.7708 22.0467 17.5134 22.2163 17.1152L23.2472 14.6975C23.248 14.6956 23.2489 14.6936 23.2497 14.6916L25.6802 8.99094H26.9064ZM17.2107 13.8818L15.7745 10.4202H23.799L22.3232 13.8818H17.2107Z" fill="white"/>
<path d="M34.9659 16.2434H27.0693C26.7462 16.2434 26.4844 16.5052 26.4844 16.8284C26.4844 17.1515 26.7462 17.4133 27.0693 17.4133H34.9659C35.2891 17.4133 35.5509 17.1515 35.5509 16.8284C35.5509 16.5052 35.2891 16.2434 34.9659 16.2434Z" fill="white"/>
<path d="M22.8791 27.3037H10.3433C10.0202 27.3037 9.75835 27.5656 9.75835 27.8887C9.75835 28.2118 10.0202 28.4736 10.3433 28.4736H22.879C23.5676 28.4736 24.1278 27.9133 24.1278 27.2247V25.5794C24.1278 24.8908 23.5676 24.3306 22.879 24.3306H6.15515C5.46655 24.3306 4.90625 24.8908 4.90625 25.5794V27.2247C4.90625 27.9133 5.46655 28.4736 6.15515 28.4736H7.85048C8.17361 28.4736 8.43543 28.2118 8.43543 27.8887C8.43543 27.5656 8.17361 27.3037 7.85048 27.3037H6.15515C6.11155 27.3037 6.07614 27.2683 6.07614 27.2247V25.5794C6.07614 25.5359 6.11155 25.5005 6.15515 25.5005H22.8791C22.9226 25.5005 22.958 25.5359 22.958 25.5794V27.2247C22.9579 27.2683 22.9225 27.3037 22.8791 27.3037Z" fill="white"/>
<path d="M5.4912 22.7624H6.23728C6.5604 22.7624 6.82222 22.5006 6.82222 22.1775C6.82222 21.8544 6.5604 21.5925 6.23728 21.5925H5.4912C5.16807 21.5925 4.90625 21.8544 4.90625 22.1775C4.90625 22.5006 5.16815 22.7624 5.4912 22.7624Z" fill="white"/>
<path d="M23.5428 21.5925H8.59911C8.27598 21.5925 8.01416 21.8544 8.01416 22.1775C8.01416 22.5006 8.27598 22.7624 8.59911 22.7624H23.5429C23.866 22.7624 24.1278 22.5006 24.1278 22.1775C24.1278 21.8544 23.8659 21.5925 23.5428 21.5925V21.5925Z" fill="white"/>
</g>
<defs>
<clipPath id="clip0">
<rect width="40" height="40" fill="white"/>
</clipPath>
</defs>
</svg>
