<svg width="40" height="40" viewBox="0 0 40 40" fill="none" xmlns="http://www.w3.org/2000/svg">
<g clip-path="url(#clip0)">
<path d="M8.87285 16.3814V10.7098C8.87285 10.3865 9.13418 10.1252 9.45973 10.1252C9.78308 10.1252 10.0443 10.3866 10.0443 10.7098V16.3814H16.0547C16.739 16.3814 17.3591 16.6605 17.8086 17.11C18.2582 17.5596 18.5373 18.1796 18.5373 18.8639V23.4416C18.5373 24.1236 18.2582 24.7437 17.8086 25.1933C17.4919 25.51 17.0911 25.7425 16.6416 25.8532V28.6878C16.6416 29.0112 16.3803 29.2748 16.0547 29.2748C15.8931 29.2748 15.7446 29.2082 15.6384 29.0998L12.4605 25.9219H10.0443V30.98H29.9557V28.9115C29.9557 28.5881 30.2171 28.3246 30.5403 28.3246C30.8659 28.3246 31.1272 28.5881 31.1272 28.9115V31.5646V37.1388C31.1272 37.9272 30.8061 38.6424 30.2879 39.1607C29.7697 39.6789 29.0544 40 28.266 40H11.7341C10.9457 40 10.2304 39.6789 9.71215 39.1607C9.19394 38.6424 8.87285 37.9272 8.87285 37.1388V25.9219H2.86246C2.17816 25.9219 1.55801 25.6429 1.10848 25.1933C0.658945 24.7437 0.379883 24.1237 0.379883 23.4416V18.8639C0.379883 18.1796 0.658867 17.5596 1.10848 17.11C1.55801 16.6605 2.17816 16.3814 2.86246 16.3814H8.87285ZM29.9314 11.8237C29.608 11.8237 29.3445 11.5624 29.3445 11.2391C29.3445 10.9159 29.608 10.6523 29.9314 10.6523H37.0092C37.3325 10.6523 37.5961 10.9159 37.5961 11.2391C37.5961 11.5625 37.3325 11.8237 37.0092 11.8237H29.9314ZM29.9314 14.2244C29.608 14.2244 29.3445 13.9608 29.3445 13.6374C29.3445 13.3141 29.608 13.0505 29.9314 13.0505H35.1135C35.4368 13.0505 35.7003 13.3141 35.7003 13.6374C35.7003 13.9608 35.4368 14.2244 35.1135 14.2244H29.9314ZM8.84848 20.5382C8.5252 20.5382 8.2616 20.2746 8.2616 19.9513C8.2616 19.628 8.5252 19.3667 8.84848 19.3667H15.9264C16.2496 19.3667 16.5132 19.628 16.5132 19.9513C16.5132 20.2746 16.2496 20.5382 15.9264 20.5382H8.84848ZM8.84848 22.9366C8.5252 22.9366 8.2616 22.6752 8.2616 22.352C8.2616 22.0287 8.5252 21.7651 8.84848 21.7651H14.0306C14.3539 21.7651 14.6175 22.0286 14.6175 22.352C14.6175 22.6753 14.3539 22.9366 14.0306 22.9366H8.84848ZM24.324 10.0609H27.9072C28.2306 10.0609 28.4919 10.3223 28.4919 10.6478V14.2288C28.4919 14.5522 28.2306 14.8157 27.9072 14.8157H24.324C24.0007 14.8157 23.7371 14.5522 23.7371 14.2288V10.6478C23.7371 10.3223 24.0007 10.0609 24.324 10.0609ZM27.3204 11.2324H24.9086V13.6441H27.3204V11.2324ZM3.24113 18.7754H6.82434C7.14769 18.7754 7.40902 19.0366 7.40902 19.3599V22.9431C7.40902 23.2665 7.14769 23.5278 6.82434 23.5278H3.24113C2.91777 23.5278 2.65426 23.2664 2.65426 22.9431V19.3599C2.65426 19.0366 2.91777 18.7754 3.24113 18.7754ZM6.23746 19.9468H3.82801V22.3563H6.23746V19.9468ZM37.1376 8.83844H23.9453C23.5843 8.83844 23.2566 8.98688 23.0196 9.22383C22.7826 9.46305 22.6343 9.78859 22.6343 10.1496V14.7271C22.6343 15.0859 22.7826 15.4137 23.0196 15.6506C23.2565 15.8898 23.5843 16.0359 23.9453 16.0359C24.2686 16.0359 24.53 16.2995 24.53 16.623V18.5607L26.8818 16.2088C26.997 16.0936 27.1476 16.036 27.296 16.036H37.1376C37.4986 16.036 37.8264 15.8899 38.0633 15.6507C38.3003 15.4137 38.4487 15.0859 38.4487 14.7272V10.1497C38.4487 9.78867 38.3003 9.46313 38.0633 9.22391C37.8264 8.9868 37.4986 8.83844 37.1376 8.83844ZM23.9453 7.66695H29.9557V5.98828H10.0443V8.05672C10.0443 8.38008 9.78301 8.64133 9.45973 8.64133C9.13418 8.64133 8.87285 8.38 8.87285 8.05672V2.86125C8.87285 2.07289 9.19394 1.35758 9.71215 0.839375C10.2304 0.321094 10.9457 0 11.7341 0H28.266C29.0544 0 29.7697 0.321094 30.2879 0.839375C30.8061 1.35758 31.1272 2.07289 31.1272 2.86125V7.66695H37.1376C37.8219 7.66695 38.4421 7.94594 38.8916 8.39555C39.3411 8.84516 39.6202 9.46516 39.6202 10.1495V14.727C39.6202 15.4091 39.3412 16.0314 38.8916 16.481C38.4421 16.9306 37.8219 17.2097 37.1376 17.2097H31.1272V26.2562C31.1272 26.5796 30.8659 26.8431 30.5403 26.8431C30.217 26.8431 29.9557 26.5796 29.9557 26.2562V17.2097H27.5396L24.3616 20.3853C24.2554 20.4938 24.1069 20.5602 23.9453 20.5602C23.622 20.5602 23.3584 20.2989 23.3584 19.9756V17.1387C22.9089 17.028 22.508 16.7977 22.1913 16.4809C21.7418 16.0313 21.4626 15.4091 21.4626 14.727V10.1495C21.4626 9.46508 21.7417 8.84508 22.1913 8.39547C22.6409 7.94586 23.2611 7.66695 23.9453 7.66695ZM16.0547 17.5529H2.86246C2.50145 17.5529 2.1759 17.7013 1.93676 17.9383C1.6998 18.1752 1.55137 18.503 1.55137 18.864V23.4416C1.55137 23.8004 1.6998 24.1281 1.93676 24.3651C2.17598 24.602 2.50152 24.7505 2.86246 24.7505H9.45973H12.7041C12.8546 24.7505 13.0031 24.808 13.1182 24.9232L15.4701 27.2751V25.3373C15.4701 25.014 15.7314 24.7505 16.0548 24.7505C16.4157 24.7505 16.7435 24.6021 16.9805 24.3651C17.2175 24.128 17.3658 23.8003 17.3658 23.4416V18.864C17.3658 18.503 17.2175 18.1753 16.9805 17.9383C16.7435 17.7013 16.4157 17.5529 16.0547 17.5529ZM18.2184 3.58109C17.895 3.58109 17.6315 3.3175 17.6315 2.99414C17.6315 2.67078 17.895 2.40719 18.2184 2.40719H21.7817C22.105 2.40719 22.3686 2.67078 22.3686 2.99414C22.3686 3.3175 22.105 3.58109 21.7817 3.58109H18.2184ZM20.0011 33.2543C20.6168 33.2543 21.1771 33.5045 21.5801 33.9098C21.9854 34.3152 22.2357 34.8732 22.2357 35.4911C22.2357 36.1067 21.9854 36.667 21.5801 37.0702C21.1771 37.4755 20.6168 37.7257 20.0011 37.7257C19.3832 37.7257 18.823 37.4755 18.42 37.0702C18.0146 36.667 17.7644 36.1067 17.7644 35.4911C17.7644 34.8732 18.0146 34.3151 18.42 33.9098C18.823 33.5045 19.3832 33.2543 20.0011 33.2543ZM20.7519 34.738C20.5593 34.5454 20.2935 34.4259 20.0012 34.4259C19.7067 34.4259 19.4409 34.5454 19.2482 34.738C19.0556 34.9308 18.936 35.1965 18.936 35.4911C18.936 35.7834 19.0556 36.0491 19.2482 36.2418C19.4409 36.4345 19.7067 36.554 20.0012 36.554C20.2936 36.554 20.5593 36.4345 20.7519 36.2418C20.9446 36.0491 21.0642 35.7834 21.0642 35.4911C21.0642 35.1966 20.9446 34.9308 20.7519 34.738ZM10.0443 4.8168H29.9557V2.86125C29.9557 2.39836 29.7653 1.97539 29.4596 1.66977C29.1518 1.36203 28.7311 1.17156 28.266 1.17156H11.7341C11.269 1.17156 10.8482 1.36195 10.5404 1.66977C10.2348 1.97539 10.0443 2.39836 10.0443 2.86125V4.8168ZM29.9557 32.1515H10.0443V37.1388C10.0443 37.6038 10.2348 38.0268 10.5404 38.3324C10.8482 38.638 11.269 38.8285 11.7341 38.8285H28.266C28.7311 38.8285 29.1518 38.638 29.4596 38.3324C29.7653 38.0246 29.9557 37.6038 29.9557 37.1388V32.1515Z" fill="white"/>
</g>
<defs>
<clipPath id="clip0">
<rect width="40" height="40" fill="white"/>
</clipPath>
</defs>
</svg>
