<svg width="40" height="40" viewBox="0 0 40 40" fill="none" xmlns="http://www.w3.org/2000/svg">
<g clip-path="url(#clip0)">
<path d="M29.7575 18.5149C29.1404 18.2372 28.5549 18.0985 28.0068 18.0582V14.5003C28.0068 14.1767 27.7446 13.9144 27.4209 13.9144C27.0972 13.9144 26.835 14.1767 26.835 14.5003V18.12C25.6289 18.3385 24.6852 18.9912 24.1054 19.502C23.8798 19.7008 23.5396 19.7009 23.3139 19.502C22.3232 18.6292 20.2719 17.3403 17.6617 18.515C16.4828 19.0455 15.6466 19.9818 15.2772 21.1705C14.5801 20.7734 13.8855 20.6078 13.413 20.5398V6.07726C13.413 5.37024 13.9882 4.79493 14.6952 4.79493C15.4023 4.79493 15.9775 5.37016 15.9775 6.07726V16.6132C15.9775 16.9368 16.2398 17.1992 16.5635 17.1992C16.8871 17.1992 17.1494 16.9368 17.1494 16.6132V3.358C17.1494 2.65098 17.7246 2.07567 18.4317 2.07567C19.1387 2.07567 19.7139 2.6509 19.7139 3.358L19.714 16.1714C19.714 16.495 19.9762 16.7573 20.2999 16.7573C20.6236 16.7573 20.8858 16.495 20.8858 16.1714C20.8858 16.1714 20.8858 4.29627 20.8858 4.26439C20.8858 3.55737 21.461 2.98214 22.1681 2.98214C22.8752 2.98214 23.4504 3.55737 23.4504 4.26439L23.4503 17.0551C23.4503 17.3787 23.7126 17.641 24.0363 17.641C24.3599 17.641 24.6222 17.3787 24.6222 17.0551C24.6222 17.0551 24.6223 8.88747 24.6223 8.84723C24.6223 8.23716 25.1186 7.74092 25.7286 7.74092C26.3386 7.74092 26.8349 8.23724 26.8349 8.84723V11.6935C26.8349 12.0171 27.0972 12.2795 27.4208 12.2795C27.7445 12.2795 28.0068 12.0171 28.0068 11.6935V8.84723C28.0068 7.591 26.9848 6.56905 25.7286 6.56905C25.3273 6.56905 24.95 6.67327 24.6223 6.85616V4.26439C24.6223 2.91121 23.5213 1.81028 22.1681 1.81028C21.6 1.81028 21.0762 2.00434 20.6597 2.32965C20.2701 1.48857 19.4179 0.903809 18.4317 0.903809C17.0785 0.903809 15.9775 2.00473 15.9775 3.358V3.98549C15.6042 3.75581 15.1649 3.62315 14.6952 3.62315C13.342 3.62315 12.2411 4.72408 12.2411 6.07734V13.6144C11.5668 12.974 10.6557 12.5804 9.65457 12.5804C8.70747 12.5804 7.93701 13.3509 7.93701 14.2979V25.4389C7.93701 26.5775 8.38044 27.6479 9.18543 28.4529L11.2033 30.4709C11.6752 30.9428 11.9351 31.5702 11.9351 32.2377V34.2556C10.965 34.4269 10.2256 35.2753 10.2256 36.2937V38.672C10.2256 39.4043 10.8214 40.0001 11.5537 40.0001H12.9439C13.2676 40.0001 13.5298 39.7377 13.5298 39.4141C13.5298 39.0905 13.2676 38.8282 12.9439 38.8282H11.5537C11.4675 38.8282 11.3974 38.7581 11.3974 38.672V36.2937C11.3974 35.7983 11.8004 35.3954 12.2958 35.3954H16.7863V38.8281H15.7507C15.427 38.8281 15.1647 39.0905 15.1647 39.4141C15.1647 39.7377 15.427 40 15.7507 40H27.0205C27.7528 40 28.3486 39.4042 28.3486 38.6719V36.2936C28.3486 35.355 27.7204 34.5608 26.8626 34.3079C26.8962 33.0295 27.0158 31.7449 27.2211 30.4846C28.4945 29.6122 29.5774 28.6238 30.4179 27.5551C31.6819 25.9482 32.3708 24.1854 32.3577 22.5914C32.3424 20.7375 31.3948 19.2516 29.7575 18.5149ZM27.1767 36.2936V38.6719C27.1767 38.7581 27.1067 38.8281 27.0205 38.8281H17.9581V35.3954H26.2784C26.7737 35.3953 27.1767 35.7982 27.1767 36.2936ZM29.4969 26.8306C28.2243 28.4486 26.3311 29.8775 24.022 30.9624C23.8235 31.0556 23.5959 31.0556 23.3974 30.9624C22.1214 30.3628 20.9725 29.6602 19.9826 28.8742C19.7294 28.6729 19.3606 28.7151 19.1594 28.9686C18.9581 29.2221 19.0004 29.5906 19.2538 29.7918C20.3146 30.6342 21.541 31.3849 22.899 32.0231C23.1566 32.1441 23.4332 32.2047 23.7096 32.2047C23.9862 32.2047 24.2628 32.1441 24.5203 32.0231C25.0041 31.7958 25.4706 31.5534 25.9195 31.2981C25.7957 32.2681 25.7202 33.2474 25.6927 34.2234H13.107V32.2376C13.107 31.2571 12.7252 30.3354 12.032 29.6422L10.0141 27.6243C9.43035 27.0405 9.10887 26.2645 9.10887 25.4389V14.2979C9.10887 13.9969 9.35371 13.7522 9.65457 13.7522C11.0808 13.7522 12.2411 14.9126 12.2411 16.3387V21.0779C12.2411 21.2339 12.3045 21.3834 12.4152 21.4934C12.525 21.6026 12.6747 21.6638 12.8295 21.6638H12.833C12.8456 21.6629 14.0469 21.6661 15.0653 22.4295C14.999 24.1228 15.7315 26.01 17.1551 27.7454C17.3604 27.9956 17.7296 28.0319 17.9798 27.8268C18.2299 27.6215 18.2664 27.2523 18.0612 27.0022C16.5978 25.2183 15.9678 23.3027 16.3328 21.7466C16.5643 20.7602 17.1901 20.0123 18.1427 19.5836C20.0526 18.7241 21.5878 19.543 22.5392 20.3812C23.2064 20.9692 24.2128 20.9692 24.8801 20.3812C25.8316 19.5429 27.3665 18.724 29.2765 19.5836C30.4963 20.1325 31.1744 21.2041 31.1858 22.6011C31.1968 23.9299 30.597 25.432 29.4969 26.8306Z" fill="white"/>
<path d="M39.9479 3.45786C39.824 3.07654 39.5005 2.80373 39.1036 2.74615L37.0466 2.44725L36.1267 0.583206C35.9493 0.223601 35.5899 0.000244141 35.1889 0.000244141C34.7879 0.000244141 34.4286 0.223601 34.2511 0.583206L33.3312 2.44725L31.2741 2.74615C30.8773 2.80381 30.5538 3.07654 30.4299 3.45786C30.306 3.83918 30.4074 4.24996 30.6945 4.52988L32.1831 5.9808L31.8316 8.0296C31.7639 8.42483 31.9233 8.81678 32.2478 9.0524C32.4311 9.18561 32.6455 9.25326 32.8613 9.25318C33.0275 9.25318 33.1947 9.21311 33.349 9.13193L35.1889 8.1646L37.0288 9.13186C37.3835 9.31842 37.8057 9.28803 38.1301 9.05233C38.4546 8.81663 38.614 8.42476 38.5462 8.02945L38.1947 5.98088L39.6833 4.52996C39.9704 4.24996 40.0718 3.83926 39.9479 3.45786ZM37.1561 5.35674C37.018 5.49135 36.9551 5.68533 36.9877 5.87541L37.3479 7.97601L35.4616 6.98422C35.3762 6.93938 35.2826 6.91696 35.1889 6.91696C35.0952 6.91696 35.0016 6.93938 34.9162 6.98422L33.0299 7.97601L33.3901 5.87541C33.4227 5.68533 33.3597 5.49135 33.2217 5.35674L31.6955 3.86911L33.8045 3.56262C33.9954 3.53489 34.1604 3.41505 34.2457 3.24208L35.1889 1.33093L36.1321 3.24208C36.2175 3.41497 36.3824 3.53489 36.5733 3.56262L38.6823 3.86911L37.1561 5.35674Z" fill="white"/>
<path d="M8.16827 8.03034L7.81687 5.98161L9.30544 4.53069C9.59255 4.25077 9.69395 3.83999 9.57005 3.45867C9.44615 3.07735 9.12263 2.80454 8.72576 2.74696L6.66876 2.44806L5.74877 0.583938C5.57135 0.224333 5.21198 0.000976562 4.81097 0.000976562C4.40995 0.000976562 4.05066 0.224333 3.87316 0.583938L2.95325 2.44798L0.896168 2.74688C0.499376 2.80454 0.175864 3.07727 0.0519591 3.45859C-0.0719457 3.83992 0.0294594 4.25069 0.316565 4.53061L1.80514 5.98153L1.45366 8.03034C1.38593 8.42557 1.54538 8.81751 1.86983 9.05314C2.05319 9.18634 2.26756 9.25399 2.48341 9.25391C2.64958 9.25391 2.81677 9.21384 2.97107 9.13267L4.81097 8.16533L6.65087 9.13259C7.00563 9.31915 7.42773 9.28876 7.75218 9.05306C8.07663 8.81751 8.23608 8.42564 8.16827 8.03034ZM6.77829 5.35748C6.64016 5.49208 6.57719 5.68607 6.60985 5.87614L6.97008 7.97674L5.08362 6.98488C4.99823 6.94004 4.90464 6.91761 4.81097 6.91761C4.71729 6.91761 4.6237 6.94004 4.53831 6.98488L2.65193 7.97666L3.01216 5.87606C3.04481 5.68599 2.98177 5.49201 2.84372 5.3574L1.31749 3.86976L3.42653 3.56328C3.61739 3.53554 3.78238 3.4157 3.8677 3.24274L4.81089 1.33159L5.75408 3.24274C5.83947 3.41562 6.00439 3.53554 6.19525 3.56328L8.30428 3.86976L6.77829 5.35748Z" fill="white"/>
</g>
<defs>
<clipPath id="clip0">
<rect width="40" height="40" fill="white"/>
</clipPath>
</defs>
</svg>
