<svg width="40" height="40" viewBox="0 0 40 40" fill="none" xmlns="http://www.w3.org/2000/svg">
<path d="M12.0482 23.3654C11.8799 23.306 11.7077 23.2436 11.5361 23.1786V20.4376C11.9675 20.5409 12.2246 20.759 12.2475 20.779C12.483 20.9922 12.8468 20.9762 13.0626 20.7422C13.2797 20.5069 13.2648 20.1402 13.0295 19.9232C12.9965 19.8928 12.4428 19.3938 11.5361 19.2578V18.698C11.5361 18.3779 11.2765 18.1184 10.9565 18.1184C10.6364 18.1184 10.3769 18.3779 10.3769 18.698V19.3023C10.2908 19.3212 10.2036 19.343 10.1144 19.37C9.28522 19.6197 8.66569 20.3293 8.49749 21.2219C8.3442 22.0356 8.60483 22.8203 9.17788 23.2697C9.48147 23.5079 9.85936 23.726 10.3769 23.9564V27.4318C9.9292 27.3988 9.61905 27.2895 9.11085 26.957C8.84295 26.7817 8.48366 26.8569 8.3085 27.1247C8.13327 27.3926 8.20835 27.7519 8.47624 27.9271C9.21717 28.4118 9.72342 28.5563 10.3769 28.5931V29.2199C10.3769 29.54 10.6365 29.7995 10.9565 29.7995C11.2766 29.7995 11.5362 29.54 11.5362 29.2199V28.547C12.8365 28.2919 13.5962 27.2196 13.7645 26.2179C13.9808 24.9302 13.3073 23.8105 12.0482 23.3654ZM9.89311 22.3576C9.66202 22.1763 9.56366 21.8234 9.63655 21.4365C9.70186 21.0899 9.93069 20.6734 10.3768 20.505V22.6668C10.1948 22.568 10.0301 22.4651 9.89311 22.3576ZM12.6212 26.0258C12.5319 26.5565 12.1624 27.1189 11.536 27.343V24.4134C11.5778 24.4284 11.6187 24.4433 11.6618 24.4585C12.7329 24.837 12.6669 25.7538 12.6212 26.0258Z" fill="white"/>
<path d="M39.968 22.6195C39.8684 22.1666 39.5491 21.8007 39.1138 21.6407L37.4548 21.0309C37.1545 20.9206 36.8213 21.0745 36.7108 21.375C36.6004 21.6755 36.7544 22.0086 37.0549 22.119L38.7139 22.7288C38.8002 22.7605 38.8274 22.83 38.8359 22.8686C38.8444 22.9072 38.8489 22.9816 38.7838 23.0467L23.9748 37.8558C23.9095 37.921 23.835 37.9163 23.7966 37.9079C23.758 37.8994 23.6885 37.8723 23.6568 37.7858L21.5756 32.1234C21.4384 31.7502 21.1458 31.4577 20.7727 31.3206L15.1104 29.2395C15.024 29.2077 14.9969 29.1382 14.9884 29.0996C14.9798 29.061 14.9753 28.9866 15.0404 28.9215L29.8495 14.1124C29.9147 14.0473 29.989 14.0519 30.0277 14.0603C30.0662 14.0688 30.1357 14.0959 30.1674 14.1824L32.2485 19.8447C32.3856 20.2179 32.6784 20.5105 33.0515 20.6476L34.4916 21.1769C34.7921 21.2874 35.1252 21.1333 35.2356 20.8328C35.346 20.5324 35.192 20.1992 34.8915 20.0888L33.4512 19.5595C33.398 19.5399 33.3563 19.4981 33.3367 19.4449L31.2556 13.7825C31.0956 13.3472 30.7298 13.0279 30.2769 12.9282C29.8241 12.8284 29.3579 12.9649 29.0298 13.2927L28.4692 13.8534V8.1029C28.4692 7.3572 27.8625 6.75048 27.1168 6.75048H21.2134C21.7534 5.70048 21.5847 4.3772 20.7061 3.49868C19.9539 2.74649 18.8631 2.49938 17.8859 2.81188C17.5084 1.71704 16.4684 0.927979 15.247 0.927979C14.0257 0.927979 12.9858 1.71688 12.6083 2.81157C11.6311 2.49853 10.5414 2.74517 9.78805 3.4986C9.26086 4.02571 8.97055 4.72657 8.97055 5.47212C8.97055 5.92431 9.07805 6.35985 9.27977 6.7504H8.79352C8.47344 6.7504 8.21391 7.00993 8.21391 7.33001C8.21391 7.65009 8.47344 7.90962 8.79352 7.90962H12.924V13.3955C12.2827 13.2788 11.6299 13.2184 10.9736 13.2184C9.76547 13.2184 8.62859 13.4066 7.54062 13.769L3.18422 13.7691V8.10282C3.18422 7.99626 3.27086 7.90962 3.37742 7.90962H6.02C6.34008 7.90962 6.59961 7.65009 6.59961 7.33001C6.59961 7.00993 6.34008 6.7504 6.02 6.7504H3.37727C2.63156 6.7504 2.02484 7.35712 2.02484 8.10282V17.8359C2.02484 17.8395 2.02531 17.8429 2.02539 17.8465C0.750391 19.6391 0 21.8295 0 24.1919C0 26.5489 0.739219 28.7969 2.13773 30.6928C2.25141 30.8469 2.4268 30.9284 2.60461 30.9284C2.72414 30.9284 2.84469 30.8916 2.9482 30.8152C3.20586 30.6252 3.26063 30.2623 3.07055 30.0046C1.82008 28.3095 1.15914 26.2994 1.15914 24.1918C1.15914 18.7802 5.5618 14.3777 10.9734 14.3777C15.5093 14.3777 19.4086 17.4336 20.4984 21.8241L19.5171 22.8053C19.2236 20.983 18.355 19.3046 17.008 17.9929C15.3814 16.4092 13.2383 15.5369 10.9734 15.5369C6.20102 15.5369 2.31836 19.4195 2.31836 24.1918C2.31836 28.9642 6.20094 32.8468 10.9734 32.8468C12.943 32.8468 14.8509 32.1727 16.3837 30.9425L17.626 31.3991C15.82 33.0646 13.4403 34.006 10.9734 34.006C8.7343 34.006 6.54266 33.2288 4.80219 31.8175C4.55359 31.6159 4.18859 31.654 3.98695 31.9027C3.78531 32.1513 3.82344 32.5163 4.07211 32.718C6.01836 34.2962 8.4693 35.1653 10.9734 35.1653C13.928 35.1653 16.7702 33.9584 18.8321 31.8424L20.3728 32.4086C20.4261 32.4282 20.4679 32.47 20.4874 32.5233L22.5685 38.1856C22.7285 38.6209 23.0944 38.9402 23.5472 39.0399C23.6448 39.0614 23.7431 39.072 23.8405 39.072C24.1947 39.072 24.537 38.9327 24.7943 38.6754L39.6034 23.8664C39.9313 23.5385 40.0677 23.0724 39.968 22.6195ZM3.18406 16.4706V14.9285H5.09703C4.40258 15.3706 3.76109 15.8885 3.18406 16.4706ZM27.3099 8.1029V13.7692H17.5701V7.9097H27.1167C27.2233 7.9097 27.3099 7.99642 27.3099 8.1029ZM19.8864 4.31837C20.5226 4.95462 20.5226 5.98985 19.8865 6.62595C19.8611 6.65142 19.8118 6.6936 19.7262 6.75048H16.9023C17.7436 5.1679 17.9617 4.39353 18.018 4.00446C18.639 3.70087 19.3891 3.8211 19.8864 4.31837ZM15.247 2.0872C16.1467 2.0872 16.8787 2.81923 16.8787 3.71892C16.8787 3.88642 16.7834 4.59673 15.582 6.7504H14.912C13.7108 4.59728 13.6152 3.88673 13.6152 3.71892C13.6152 2.81923 14.3472 2.0872 15.247 2.0872ZM10.6077 6.62603C10.2995 6.31782 10.1297 5.90806 10.1297 5.4722C10.1297 5.03634 10.2995 4.62657 10.6077 4.31837C11.1058 3.82024 11.8548 3.70071 12.4759 4.00478C12.5323 4.39399 12.7503 5.16798 13.5916 6.75048H10.7678C10.6823 6.69368 10.6331 6.65149 10.6077 6.62603ZM14.083 7.9097H16.4109V13.7692H14.4039C14.4013 13.7692 14.3989 13.7695 14.3963 13.7696C14.2924 13.7354 14.1879 13.7032 14.083 13.6721V7.9097ZM17.8318 15.6313C17.5165 15.3782 17.1878 15.1439 16.8482 14.9285H27.31V15.0126L25.0662 17.2563H19.469C18.9835 16.6616 18.4352 16.1156 17.8318 15.6313ZM20.2968 18.4156H23.907L21.4368 20.8857C21.1612 20.0182 20.7769 19.1879 20.2968 18.4156ZM10.9734 31.6877C6.84023 31.6877 3.47773 28.3251 3.47773 24.192C3.47773 20.0588 6.84031 16.6963 10.9734 16.6963C14.9524 16.6963 18.2872 19.9 18.4614 23.8613L14.2208 28.1019C13.8929 28.4298 13.7566 28.8959 13.8562 29.3488C13.9559 29.8017 14.2753 30.1676 14.7105 30.3276L15.0759 30.4619C13.8621 31.2576 12.4374 31.6877 10.9734 31.6877Z" fill="white"/>
<path d="M28.4203 30.8672C28.4933 30.8672 28.5677 30.8533 28.6394 30.8239C28.9357 30.7029 29.0778 30.3644 28.9566 30.0681L25.6192 21.9037C25.4982 21.6075 25.1599 21.4652 24.8634 21.5865C24.5671 21.7076 24.425 22.0461 24.5462 22.3424L27.8835 30.5068C27.9753 30.7313 28.1918 30.8672 28.4203 30.8672Z" fill="white"/>
<path d="M21.5295 24.3206C21.1234 24.7267 20.9248 25.2844 20.9703 25.8909C21.0133 26.4646 21.2733 27.0169 21.7023 27.4459C22.1313 27.875 22.6836 28.135 23.2574 28.178C23.3143 28.1823 23.3708 28.1844 23.4267 28.1844C23.9672 28.1844 24.4596 27.9867 24.8277 27.6187C25.2338 27.2126 25.4323 26.655 25.3869 26.0485C25.3438 25.4747 25.0838 24.9224 24.6548 24.4933C24.2258 24.0643 23.6735 23.8043 23.0997 23.7613C22.4927 23.7156 21.9355 23.9145 21.5295 24.3206ZM23.8352 25.3131C24.0681 25.5461 24.2087 25.838 24.2309 26.1352C24.2508 26.3997 24.1716 26.6355 24.0079 26.7991C23.8443 26.9627 23.6083 27.0416 23.3441 27.0221C23.0469 26.9998 22.7549 26.8593 22.522 26.6263C22.2891 26.3934 22.1484 26.1014 22.1262 25.8043C22.1063 25.5398 22.1856 25.3041 22.3492 25.1404C22.4963 24.9933 22.7017 24.9144 22.934 24.9144C22.96 24.9144 22.9864 24.9155 23.0131 24.9174C23.3102 24.9396 23.6022 25.0801 23.8352 25.3131C23.8351 25.3131 23.8351 25.3131 23.8352 25.3131Z" fill="white"/>
<path d="M30.6181 28.857C31.1587 28.857 31.6511 28.6593 32.0191 28.2913C32.8331 27.4773 32.7556 26.0753 31.8463 25.1659C31.8463 25.1659 31.8463 25.1659 31.8463 25.1659C30.937 24.2566 29.535 24.1792 28.7209 24.9931C27.907 25.8071 27.9845 27.2091 28.8938 28.1184C29.3228 28.5475 29.8751 28.8075 30.4489 28.8505C30.5059 28.8549 30.5623 28.857 30.6181 28.857ZM29.5407 25.8129C29.6942 25.6594 29.9024 25.5849 30.1263 25.5849C30.4303 25.5849 30.7632 25.7223 31.0266 25.9857C31.4839 26.4431 31.5614 27.1097 31.1993 27.4717C31.0357 27.6352 30.7999 27.7145 30.5356 27.6947C30.2384 27.6724 29.9463 27.5319 29.7134 27.2989C29.2562 26.8415 29.1787 26.1749 29.5407 25.8129Z" fill="white"/>
</svg>
