<svg width="40" height="40" viewBox="0 0 40 40" fill="none" xmlns="http://www.w3.org/2000/svg">
<g clip-path="url(#clip0)">
<path d="M8.72994 27.9956C8.39916 27.7185 7.90643 27.7621 7.62939 28.0929L5.67588 30.4252L4.96986 29.827C4.64065 29.5481 4.14775 29.5889 3.86877 29.9181C3.58986 30.2473 3.63064 30.7403 3.95986 31.0192L5.26533 32.1252C5.40697 32.2452 5.58611 32.3104 5.77033 32.3104C5.79252 32.3104 5.81471 32.3094 5.83697 32.3075C6.04416 32.2898 6.2358 32.1902 6.36932 32.0308L8.82736 29.0962C9.10424 28.7654 9.06064 28.2727 8.72994 27.9956Z" fill="white"/>
<path d="M38.3455 15.9461H37.2227C36.2822 15.9027 35.5259 15.1017 34.6508 14.1748C34.066 13.5555 33.4399 12.8924 32.6857 12.4009V5.72247C32.6857 4.54614 31.7287 3.58911 30.5524 3.58911H5.07008C3.89375 3.58911 2.9368 4.54614 2.9368 5.72247V11.1418C2.9368 11.5733 3.28656 11.9231 3.71805 11.9231C4.14953 11.9231 4.4993 11.5733 4.4993 11.1418V5.72247C4.4993 5.4131 4.7607 5.15161 5.07008 5.15161H13.7153V12.0639C13.7153 12.3479 13.8695 12.6095 14.1178 12.7472C14.2358 12.8126 14.3662 12.8451 14.4965 12.8451C14.6405 12.8451 14.7841 12.8054 14.9106 12.7264L17.8122 10.9129L20.7116 12.7263C20.9525 12.8768 21.256 12.885 21.5045 12.7473C21.753 12.6097 21.9072 12.348 21.9072 12.064V5.15161H30.5525C30.8619 5.15161 31.1233 5.41302 31.1233 5.72247V11.7386C30.8691 11.6854 30.6023 11.6534 30.3202 11.6484C30.3156 11.6483 30.3111 11.6483 30.3065 11.6483H28.3273H26.79H25.9046C25.9005 11.6483 25.8966 11.6483 25.8925 11.6484C24.9507 11.663 24.4668 12.09 24.2266 12.4455C23.8539 12.9974 23.8194 13.7448 24.1291 14.5493C24.2012 14.7371 24.2891 14.9147 24.3903 15.0817H18.4662C17.1934 15.0817 16.1578 16.1172 16.1578 17.39C16.1578 17.6518 16.2016 17.9035 16.282 18.1382H16.0746C14.8018 18.1382 13.7662 19.1737 13.7662 20.4466C13.7662 21.7195 14.8018 22.755 16.0746 22.755H16.2814C16.2013 22.9891 16.1577 23.24 16.1577 23.501C16.1577 24.734 17.1276 25.7445 18.3438 25.8084C18.2629 26.0434 18.219 26.2954 18.219 26.5575C18.219 27.8304 19.2545 28.866 20.5273 28.866H30.2066C30.5399 28.866 30.8434 28.8252 31.123 28.7554V31.2033C31.123 31.514 30.8616 31.7763 30.5523 31.7763H12.4562C12.6095 31.2305 12.6932 30.6559 12.6932 30.0618C12.6932 26.5621 9.84609 23.7149 6.34648 23.7149C5.70406 23.7149 5.08391 23.8116 4.49906 23.99V18.1658C4.49906 17.7343 4.1493 17.3846 3.71781 17.3846C3.28633 17.3846 2.93656 17.7343 2.93656 18.1658V24.7129C1.17273 25.8417 0 27.8168 0 30.0618C0 33.5628 2.84711 36.411 6.34672 36.411C8.64852 36.411 10.6678 35.1786 11.7806 33.3389H30.5525C31.7287 33.3389 32.6858 32.3809 32.6858 31.2034V27.9868C32.8583 27.8635 33.0232 27.737 33.1831 27.6137C33.873 27.0821 34.4688 26.6229 35.4176 26.6229H38.3455C39.2578 26.6229 40.0001 25.8817 40.0001 24.9706V17.6008C40 16.6883 39.2578 15.9461 38.3455 15.9461ZM20.3447 10.6538L18.2266 9.32903C17.9733 9.17067 17.6518 9.1706 17.3983 9.32895L15.2778 10.6543V5.15161H20.3447V10.6538ZM6.34672 34.8485C3.70867 34.8485 1.5625 32.7012 1.5625 30.0618C1.5625 27.4237 3.70867 25.2775 6.34672 25.2775C8.98477 25.2775 11.1309 27.4237 11.1309 30.0618C11.1309 32.7012 8.98477 34.8485 6.34672 34.8485ZM38.4375 24.9706C38.4375 25.0185 38.3945 25.0604 38.3455 25.0604H35.4175C33.9365 25.0604 33.0295 25.7593 32.2293 26.3761C31.5569 26.8943 31.0258 27.3036 30.2066 27.3036H20.5275C20.1163 27.3036 19.7816 26.969 19.7816 26.5576C19.7816 26.1463 20.1163 25.8117 20.5275 25.8117H23.1208C23.5523 25.8117 23.902 25.4619 23.902 25.0304C23.902 24.599 23.5523 24.2492 23.1208 24.2492H18.4662C18.0549 24.2492 17.7204 23.9136 17.7204 23.5011C17.7204 23.0897 18.055 22.7551 18.4662 22.7551H23.1208C23.5523 22.7551 23.902 22.4054 23.902 21.9739C23.902 21.5424 23.5523 21.1926 23.1208 21.1926H16.0747C15.6634 21.1926 15.3288 20.858 15.3288 20.4467C15.3288 20.0354 15.6634 19.7008 16.0747 19.7008H23.1208C23.5523 19.7008 23.902 19.351 23.902 18.9195C23.902 18.488 23.5523 18.1383 23.1208 18.1383H18.4662C18.0549 18.1383 17.7204 17.8026 17.7204 17.3901C17.7204 16.9788 18.055 16.6443 18.4662 16.6443H27.1835H28.8791H30.0117C30.4432 16.6443 30.793 16.2945 30.793 15.863C30.793 15.4315 30.4432 15.0818 30.0117 15.0818H28.8791H27.1835C26.4689 15.0818 25.8426 14.6529 25.5876 13.9887C25.439 13.6026 25.4795 13.3825 25.5216 13.32C25.564 13.2573 25.7166 13.2146 25.9113 13.2109H28.3273H30.2993C31.6167 13.2372 32.5387 14.2138 33.5148 15.2475C34.5359 16.329 35.5917 17.4473 37.1764 17.5081C37.1863 17.5085 37.1963 17.5086 37.2063 17.5086H38.3456C38.3955 17.5086 38.4377 17.5508 38.4377 17.6007V24.9706H38.4375Z" fill="white"/>
<path d="M3.71826 15.4363C4.14975 15.4363 4.49951 15.0843 4.49951 14.6528C4.49951 14.2213 4.14975 13.8716 3.71826 13.8716C3.28678 13.8716 2.93701 14.2213 2.93701 14.6528V14.6573C2.93701 15.0887 3.28678 15.4363 3.71826 15.4363Z" fill="white"/>
</g>
<defs>
<clipPath id="clip0">
<rect width="40" height="40" fill="white"/>
</clipPath>
</defs>
</svg>
