<svg width="40" height="40" viewBox="0 0 40 40" fill="none" xmlns="http://www.w3.org/2000/svg">
<path d="M40 19.9099C40 18.9623 39.7265 18.0438 39.2089 17.2538C38.7678 16.5805 38.6023 15.7575 38.7434 14.9363C38.8981 14.0353 38.7942 13.1109 38.443 12.2631C38.0803 11.3877 37.4762 10.6438 36.696 10.1121C36.0397 9.66484 35.5684 8.95289 35.3692 8.10742C35.163 7.23234 34.7166 6.4325 34.0783 5.79422C33.419 5.13492 32.5909 4.68203 31.6834 4.48453C30.8615 4.30555 30.1475 3.83734 29.673 3.16617C29.1455 2.41953 28.4183 1.83922 27.5702 1.48797C26.6945 1.12531 25.7416 1.02656 24.8136 1.20242C24.0228 1.35219 23.1991 1.19008 22.4944 0.745625C21.7213 0.257734 20.8276 0 19.9098 0C18.9621 0 18.0436 0.273516 17.2537 0.791016C16.5804 1.23219 15.7573 1.39758 14.9363 1.25648C14.0354 1.10188 13.1109 1.2057 12.263 1.55687C11.3875 1.91961 10.6438 2.52367 10.112 3.30391C9.66477 3.96023 8.95273 4.43148 8.10734 4.63078C7.23242 4.83695 6.4325 5.28328 5.79414 5.92164C5.13492 6.5807 4.68203 7.40883 4.48438 8.31648C4.30547 9.13828 3.83727 9.85227 3.16594 10.3268C2.41922 10.8546 1.83898 11.5817 1.48773 12.4297C1.12508 13.3053 1.02641 14.2584 1.20219 15.1863C1.35203 15.9772 1.18992 16.8009 0.745469 17.5055C0.257734 18.2785 0 19.1723 0 20.0902C0 21.0378 0.273516 21.9563 0.791094 22.7463C1.23219 23.4195 1.39766 24.2426 1.25656 25.0638C1.10187 25.9648 1.20578 26.8891 1.55703 27.737C1.91969 28.6124 2.52375 29.3563 3.30398 29.888C3.96031 30.3352 4.43156 31.0472 4.63078 31.8927C4.83703 32.7677 5.28336 33.5676 5.92172 34.2059C6.58102 34.8652 7.40906 35.318 8.31656 35.5155C9.13859 35.6945 9.8525 36.1627 10.327 36.8339C10.8545 37.5805 11.5817 38.1609 12.4298 38.5121C13.3054 38.8748 14.2585 38.9735 15.1865 38.7977C15.9772 38.6477 16.801 38.81 17.5056 39.2545C18.2788 39.7422 19.1726 39.9999 20.0903 39.9999C21.038 39.9999 21.9565 39.7264 22.7464 39.2089C23.4197 38.7677 24.2427 38.6023 25.0638 38.7434C25.9648 38.898 26.8891 38.7943 27.7371 38.443C28.6126 38.0803 29.3563 37.4762 29.888 36.696C30.3353 36.0397 31.0473 35.5684 31.8927 35.3691C32.7677 35.163 33.5676 34.7166 34.2059 34.0783C34.8652 33.4191 35.318 32.591 35.5156 31.6834C35.6945 30.8616 36.1627 30.1476 36.8341 29.673C37.5808 29.1452 38.161 28.4181 38.5123 27.5702C38.8749 26.6945 38.9736 25.7414 38.7978 24.8136C38.648 24.0227 38.8101 23.199 39.2545 22.4944C39.7423 21.7215 40 20.8277 40 19.9099ZM37.9068 21.6444C37.2466 22.6912 37.007 23.9221 37.2321 25.1105C37.3501 25.7327 37.2836 26.3724 37.0399 26.9605C36.8041 27.53 36.4148 28.018 35.9143 28.3719C34.917 29.0769 34.2225 30.1326 33.9586 31.3445C33.8261 31.9531 33.5221 32.5088 33.0792 32.9516C32.6505 33.3803 32.1138 33.68 31.5273 33.8182C30.2931 34.1091 29.2434 34.8125 28.5712 35.7988C28.2147 36.322 27.7154 36.7273 27.1273 36.9709C26.5578 37.2067 25.9377 37.2766 25.3336 37.1729C24.1137 36.9635 22.8848 37.2131 21.873 37.876C21.3434 38.223 20.7269 38.4065 20.0903 38.4065C19.4739 38.4065 18.8741 38.2337 18.3557 37.9067C17.5654 37.4083 16.6704 37.1496 15.7677 37.1496C15.4748 37.1496 15.1808 37.1769 14.8895 37.2321C14.267 37.3499 13.6275 37.2835 13.0393 37.0399C12.4698 36.804 11.9818 36.4148 11.628 35.9143C10.9232 34.9171 9.8675 34.2225 8.65531 33.9586C8.04688 33.8261 7.49117 33.522 7.04836 33.0791C6.61961 32.6505 6.31984 32.1138 6.18164 31.5273C5.89086 30.2931 5.18758 29.2434 4.20125 28.5712C3.67805 28.2146 3.27273 27.7153 3.02906 27.1272C2.7932 26.5578 2.72336 25.9376 2.82695 25.3336C3.03641 24.1137 2.78672 22.8848 2.12391 21.8731C1.77688 21.3434 1.59344 20.7269 1.59344 20.0903C1.59344 19.4739 1.76625 18.8741 2.09312 18.3558C2.75336 17.3089 2.99297 16.078 2.76781 14.8896C2.64992 14.2674 2.71633 13.6277 2.96 13.0395C3.19586 12.4701 3.58508 11.982 4.08563 11.6282C5.08289 10.9232 5.77742 9.8675 6.04133 8.65555C6.17383 8.04695 6.47781 7.49133 6.9207 7.04852C7.34945 6.61977 7.88609 6.32008 8.47266 6.18187C9.70687 5.89102 10.7566 5.18758 11.4287 4.20133C11.7852 3.67813 12.2845 3.27281 12.8726 3.02922C13.4422 2.79344 14.0623 2.72352 14.6663 2.82719C15.8861 3.03656 17.1152 2.78695 18.1269 2.12406C18.6565 1.77703 19.273 1.59359 19.9096 1.59359C20.526 1.59359 21.1259 1.76641 21.6444 2.09328C22.6912 2.75352 23.9222 2.99305 25.1106 2.76797C25.7329 2.65 26.3725 2.71656 26.9607 2.96016C27.5302 3.19609 28.0182 3.58523 28.372 4.08578C29.0768 5.08297 30.1325 5.77758 31.3447 6.04148C31.9531 6.17398 32.5088 6.47805 32.9516 6.92094C33.3804 7.34961 33.6802 7.88633 33.8184 8.47281C34.1091 9.70695 34.8125 10.7567 35.7988 11.4289C36.322 11.7855 36.7273 12.2848 36.9709 12.8729C37.2068 13.4423 37.2766 14.0625 37.173 14.6665C36.9636 15.8863 37.2133 17.1153 37.8761 18.127C38.2231 18.6566 38.4066 19.2732 38.4066 19.9098C38.4066 20.5263 38.2337 21.1261 37.9068 21.6444Z" fill="white"/>
<path d="M17.6143 17.6571V13.9553C17.6143 11.8329 16.2075 11.0432 14.4307 11.0432C12.6291 11.0432 11.2471 11.8329 11.2471 13.9553V17.6571C11.2471 19.7795 12.6291 20.5693 14.4307 20.5692C16.2075 20.5692 17.6143 19.7795 17.6143 17.6571ZM16.1336 17.6571C16.1336 18.743 15.4918 19.2613 14.4307 19.2613C13.3695 19.2613 12.7278 18.743 12.7278 17.6571V13.9553C12.7278 12.8695 13.3694 12.3512 14.4307 12.3512C15.4918 12.3512 16.1336 12.8695 16.1336 13.9553V17.6571Z" fill="white"/>
<path d="M25.166 19.6316C23.3645 19.6316 21.9824 20.4213 21.9824 22.5437V26.2455C21.9824 28.3679 23.3645 29.1576 25.166 29.1576C26.9429 29.1576 28.3496 28.3679 28.3496 26.2455V22.5437C28.3495 20.4213 26.9429 19.6316 25.166 19.6316ZM26.8688 26.2454C26.8688 27.3313 26.2271 27.8496 25.1659 27.8496C24.1048 27.8496 23.463 27.3313 23.463 26.2454V22.5436C23.463 21.4578 24.1047 20.9395 25.1659 20.9395C26.227 20.9395 26.8688 21.4578 26.8688 22.5436V26.2454Z" fill="white"/>
<path d="M25.2647 10.8952C25.2647 10.4264 24.8206 10.0807 24.4258 10.0808C24.179 10.0808 23.9323 10.2042 23.8088 10.451L14.5541 28.7629C14.5047 28.8616 14.48 28.9849 14.48 29.0837C14.48 29.4786 14.8254 29.8241 15.2697 29.8241C15.5658 29.8241 15.8373 29.7007 15.9607 29.4292L25.1908 11.2407C25.2401 11.1173 25.2647 11.0185 25.2647 10.8952Z" fill="white"/>
</svg>
