<svg width="40" height="40" viewBox="0 0 40 40" fill="none" xmlns="http://www.w3.org/2000/svg">
<g clip-path="url(#clip0)">
<path d="M37.1812 5.72695H20.7667C19.9899 5.72695 19.2596 5.42438 18.7102 4.87516L16.5117 2.67664C15.7088 1.87375 14.6415 1.43164 13.5062 1.43164H2.81883C1.26453 1.43172 0 2.69617 0 4.25047V35.7494C0 37.3037 1.26453 38.5682 2.81883 38.5682H37.1813C38.7355 38.5682 40.0001 37.3037 40.0001 35.7494V8.54578C40 6.99149 38.7355 5.72695 37.1812 5.72695ZM38.6577 10.4412C38.228 10.1759 37.7223 10.0223 37.1813 10.0223H35.7495C35.3788 10.0223 35.0783 10.3227 35.0783 10.6934C35.0783 11.0641 35.3787 11.3646 35.7495 11.3646H37.1813C37.9954 11.3646 38.6577 12.027 38.6577 12.8411V35.7494C38.6577 36.5635 37.9954 37.2259 37.1813 37.2259H2.81883C2.00469 37.2259 1.34234 36.5635 1.34234 35.7494V12.8411C1.34234 12.027 2.00469 11.3646 2.81883 11.3646H32.8859C33.2566 11.3646 33.5571 11.0641 33.5571 10.6934C33.5571 10.3227 33.2566 10.0223 32.8859 10.0223H2.81883C2.27781 10.0223 1.77203 10.1759 1.34234 10.4412V4.25047C1.34234 3.43633 2.00469 2.77398 2.81883 2.77398H13.5063C14.283 2.77398 15.0134 3.07656 15.5627 3.62578L17.7612 5.8243C18.5641 6.62719 19.6315 7.0693 20.7668 7.0693H37.1813C37.9955 7.0693 38.6578 7.73164 38.6578 8.54578V10.4412H38.6577Z" fill="white"/>
<path d="M20 17.897C18.4457 17.897 17.1812 19.1615 17.1812 20.7158C17.1812 22.2701 18.4457 23.5346 20 23.5346C21.5543 23.5346 22.8188 22.2701 22.8188 20.7158C22.8188 19.1615 21.5543 17.897 20 17.897ZM20 22.1923C19.1858 22.1923 18.5235 21.53 18.5235 20.7158C18.5235 19.9017 19.1858 19.2393 20 19.2393C20.8141 19.2393 21.4765 19.9017 21.4765 20.7158C21.4765 21.5299 20.8141 22.1923 20 22.1923Z" fill="white"/>
<path d="M22.1122 24.2036C21.8078 24.028 21.4194 24.1171 21.2218 24.4078C20.9459 24.8138 20.4891 25.0561 19.9999 25.0561C19.5107 25.0561 19.054 24.8138 18.7779 24.4078C18.5804 24.1171 18.192 24.0281 17.8876 24.2036C16.5686 24.9642 15.7493 26.3709 15.7493 27.8749V29.3067C15.7493 29.6773 16.0497 29.9778 16.4204 29.9778H23.5793C23.9499 29.9778 24.2504 29.6774 24.2504 29.3067V27.8749C24.2505 26.3708 23.4312 24.9642 22.1122 24.2036ZM22.9083 28.6354H17.0917V27.8748C17.0917 27.0135 17.4667 26.2231 18.1162 25.6759C18.6281 26.1361 19.2964 26.3983 20 26.3983C20.7036 26.3983 21.3719 26.1361 21.8837 25.6759C22.5332 26.2231 22.9083 27.0135 22.9083 27.8748V28.6354Z" fill="white"/>
<path d="M25.8874 16.2382C23.986 14.8456 21.6381 14.1729 19.2751 14.344C16.8876 14.517 14.6395 15.5456 12.9448 17.2402C11.2501 18.9348 10.2216 21.1831 10.0486 23.5706C9.87752 25.9333 10.5502 28.2816 11.9429 30.183C12.0744 30.3625 12.2782 30.4575 12.4849 30.4575C12.6225 30.4575 12.7613 30.4152 12.881 30.3277C13.1799 30.1087 13.2448 29.6887 13.0257 29.3898C11.8213 27.745 11.2394 25.7129 11.3875 23.6674C11.5371 21.6015 12.4274 19.6558 13.894 18.1892C15.3607 16.7226 17.3062 15.8323 19.3721 15.6827C21.4173 15.5345 23.4496 16.1164 25.0942 17.321C25.3933 17.5401 25.8132 17.4752 26.0322 17.1762C26.2512 16.8772 26.1864 16.4572 25.8874 16.2382Z" fill="white"/>
<path d="M28.0573 18.4079C27.8382 18.1088 27.4181 18.0441 27.1193 18.2629C26.8203 18.482 26.7555 18.9019 26.9745 19.2009C28.1792 20.8455 28.7609 22.8777 28.6128 24.923C28.4631 26.9889 27.5729 28.9345 26.1063 30.4011C24.6396 31.8678 22.694 32.758 20.6281 32.9077C18.5824 33.0552 16.5505 32.4739 14.9059 31.2693C14.6069 31.0504 14.1869 31.1151 13.9679 31.4141C13.7489 31.7131 13.8137 32.133 14.1128 32.352C15.8197 33.6026 17.8869 34.2727 20.0016 34.2727C20.2421 34.2727 20.4835 34.264 20.7248 34.2466C23.1124 34.0737 25.3605 33.0452 27.0552 31.3504C28.7499 29.6557 29.7784 27.4076 29.9514 25.0201C30.1226 22.6575 29.4499 20.3092 28.0573 18.4079Z" fill="white"/>
</g>
<defs>
<clipPath id="clip0">
<rect width="40" height="40" fill="white"/>
</clipPath>
</defs>
</svg>
