<svg width="40" height="40" viewBox="0 0 40 40" fill="none" xmlns="http://www.w3.org/2000/svg">
<path d="M11.7187 32.9297H17.8125C20.767 32.807 20.7647 28.5981 17.8125 28.4766H11.7187C8.76418 28.5992 8.76645 32.8081 11.7187 32.9297ZM11.7187 29.6484H17.8125C19.212 29.7065 19.2109 31.7002 17.8125 31.7578H11.7187C10.3192 31.6998 10.3203 29.706 11.7187 29.6484Z" fill="white"/>
<path d="M35.625 7.53906H32.9928C32.217 7.56594 32.2176 8.68437 32.9928 8.71094H35.625C35.905 8.71094 36.1328 8.93875 36.1328 9.21875V23.75C36.1328 24.03 35.905 24.2578 35.625 24.2578H15.9375C15.6575 24.2578 15.4297 24.03 15.4297 23.75V9.21875C15.4297 8.93875 15.6575 8.71094 15.9375 8.71094H30.2523C31.0282 8.68406 31.0276 7.56563 30.2523 7.53906H26.8359V3.71094C26.8359 1.66477 25.1712 0 23.125 0H6.40625C4.36008 0 2.69531 1.66477 2.69531 3.71094V6.75477C2.72219 7.53062 3.84062 7.53 3.86719 6.75477V3.71094C3.86719 2.31094 5.00617 1.17188 6.40625 1.17188H23.125C24.5251 1.17188 25.6641 2.31094 25.6641 3.71094V7.53906H24.8047V3.71094C24.8047 2.78477 24.0512 2.03125 23.125 2.03125H19.9922C19.5602 2.03125 19.1754 2.30539 19.0341 2.71422L18.6588 3.80633H10.8723L10.4966 2.71352C10.3559 2.30539 9.97102 2.03125 9.53906 2.03125H6.40625C5.48008 2.03125 4.72656 2.78477 4.72656 3.71094V36.2891C4.72656 37.2152 5.48008 37.9688 6.40625 37.9688H23.125C24.0512 37.9688 24.8047 37.2152 24.8047 36.2891V34.1907C24.7778 33.4148 23.6594 33.4155 23.6328 34.1907V36.2891C23.6328 36.5691 23.405 36.7969 23.125 36.7969H6.40625C6.12625 36.7969 5.89844 36.5691 5.89844 36.2891V3.71094C5.89844 3.43094 6.12625 3.20312 6.40625 3.20312H9.42594L9.80164 4.29594C9.9425 4.70398 10.3273 4.97813 10.7594 4.97813H18.7719C19.2038 4.97813 19.5887 4.70398 19.7299 4.29516L20.1053 3.20312H23.125C23.405 3.20312 23.6328 3.43094 23.6328 3.71094V7.53906H15.9375C15.0113 7.53906 14.2578 8.29258 14.2578 9.21875V23.75C14.2578 24.6762 15.0113 25.4297 15.9375 25.4297H23.6328V31.4343C23.6597 32.2102 24.7781 32.2095 24.8047 31.4343V25.4297H25.6641V36.2891C25.6641 37.6891 24.5251 38.8281 23.125 38.8281H6.40625C5.00617 38.8281 3.86719 37.6891 3.86719 36.2891V9.54328C3.84031 8.76742 2.72188 8.76805 2.69531 9.54328V36.2891C2.69531 38.3352 4.36008 40 6.40625 40H23.125C25.1712 40 26.8359 38.3352 26.8359 36.2891V25.4297H35.625C36.5512 25.4297 37.3047 24.6762 37.3047 23.75V9.21875C37.3047 8.29258 36.5512 7.53906 35.625 7.53906Z" fill="white"/>
<path d="M8.76611 16.2869C8.76611 16.6105 9.02838 16.8729 9.35205 16.8729H11.5868L10.7553 17.9018C10.5519 18.1536 10.591 18.5225 10.8428 18.7258C10.9512 18.8135 11.0813 18.8561 11.2106 18.8561C11.3816 18.8561 11.551 18.7816 11.6667 18.6383L13.2693 16.6551C13.443 16.4403 13.443 16.1334 13.2693 15.9186L11.6667 13.9354C11.4634 13.6837 11.0946 13.6447 10.8428 13.8479C10.591 14.0514 10.5519 14.4203 10.7553 14.6719L11.5868 15.7008H9.35213C9.02838 15.701 8.76611 15.9633 8.76611 16.2869Z" fill="white"/>
<path d="M23.4746 21.8874C23.7657 22.0117 24.1164 21.8753 24.2417 21.5739L28.5404 11.3308C28.6657 11.0325 28.5253 10.689 28.2268 10.5638C27.9285 10.4387 27.585 10.579 27.4598 10.8773L23.161 21.1204C23.0358 21.4187 23.1762 21.7622 23.4746 21.8874Z" fill="white"/>
<path d="M25.3638 12.8337C25.3638 11.2935 24.2489 10.0405 22.8785 10.0405C19.5819 10.1915 19.5831 15.4765 22.8785 15.6269C24.2489 15.6269 25.3638 14.3739 25.3638 12.8337V12.8337ZM22.8785 14.455C22.1542 14.455 21.565 13.7276 21.565 12.8337C21.6393 10.682 24.1179 10.6824 24.192 12.8337C24.1919 13.7277 23.6027 14.455 22.8785 14.455Z" fill="white"/>
<path d="M28.6841 22.6303C30.0546 22.6303 31.1695 21.3773 31.1695 19.8372C31.0317 16.1313 26.3362 16.1321 26.1987 19.8372C26.1988 21.3773 27.3137 22.6303 28.6841 22.6303ZM28.6841 18.2159C29.4084 18.2159 29.9976 18.9432 29.9976 19.8371C29.9233 21.9888 27.4447 21.9884 27.3706 19.8371C27.3707 18.9432 27.9599 18.2159 28.6841 18.2159Z" fill="white"/>
</svg>
