<svg width="40" height="40" viewBox="0 0 40 40" fill="none" xmlns="http://www.w3.org/2000/svg">
<g clip-path="url(#clip0)">
<path d="M29.0315 11.4814C28.9594 11.1653 28.6445 10.9674 28.3288 11.0395C28.0128 11.1116 27.815 11.4262 27.887 11.7422L31.3951 27.1319C31.6221 28.128 30.0662 28.4995 29.8355 27.4873L24.0624 2.16105C23.8292 1.13451 25.3656 0.681019 25.6061 1.73629L27.193 8.69792C27.2651 9.01392 27.5797 9.21167 27.8957 9.13975C28.2117 9.06768 28.4095 8.75309 28.3375 8.4371L26.7506 1.47539C26.1934 -0.969064 22.3535 -0.16296 22.8985 2.33423C22.5582 6.47603 18.6089 8.30735 18.5689 8.32551C18.5675 8.32613 18.5662 8.32692 18.5648 8.32754C18.5636 8.32817 18.5621 8.32848 18.5609 8.32911L3.74168 15.2558C3.72587 15.2633 3.71038 15.2713 3.6952 15.2802C2.8664 15.762 2.37551 16.6265 2.36236 17.5511L1.30944 17.7767C0.408257 17.9822 -0.157683 18.8824 0.0477364 19.7835L0.361617 21.1605C0.563593 22.0459 1.47276 22.6267 2.36103 22.4239L3.4188 22.1973C3.82925 23.0315 4.6492 23.6032 5.60978 23.6786C5.61831 23.6793 5.627 23.6797 5.63561 23.6801L8.09438 23.764C8.02027 24.2187 7.95853 24.6811 7.91251 25.1471C7.67759 27.5279 7.80679 30.042 8.29667 32.6197C8.43909 33.3689 9.59304 33.1538 9.44983 32.4005C8.98093 29.9331 8.85674 27.5315 9.08062 25.2624C9.12922 24.7702 9.19488 24.2818 9.27634 23.8043L12.7814 23.9239C12.5644 25.5117 12.6233 27.1879 12.9567 28.8132C13.3659 30.8087 14.2366 32.7059 15.4748 34.2996C16.2217 35.2611 15.9357 36.2279 15.0587 36.9393C14.3653 37.5016 13.7188 38.1283 12.9731 38.6234C12.5512 38.9036 11.9847 38.8998 11.5637 38.6141C10.7689 38.0748 10.5506 36.5783 10.2842 35.7251C10.0655 35.024 8.93483 35.3419 9.16373 36.075C9.52848 37.243 9.81747 38.8477 10.9046 39.5854C11.7094 40.1315 12.8118 40.1395 13.6225 39.6013C14.4001 39.0849 15.0753 38.4373 15.7981 37.8509C17.1778 36.7317 17.5354 35.0387 16.4018 33.5795C15.2736 32.1271 14.4798 30.3974 14.1065 28.5773C14.0619 28.3595 14.0227 28.1407 13.9887 27.9213L14.8719 27.72C16.2142 27.4139 17.1687 26.1921 17.1414 24.8148L17.1267 24.0721L22.1622 24.244C22.1646 24.244 22.167 24.244 22.1695 24.2441C22.1699 24.2441 22.1705 24.2442 22.1709 24.2442C22.2178 24.2451 26.852 24.3734 28.6932 27.7568C29.2673 30.2255 33.1052 29.3529 32.5395 26.8711L29.0315 11.4814ZM2.10756 21.2777C1.83735 21.3397 1.56447 21.156 1.50602 20.8995L1.19214 19.5225C1.13055 19.2525 1.30021 18.9827 1.56275 18.9227L2.54853 18.7115C2.72758 19.497 2.9067 20.2825 3.08575 21.0681L2.10756 21.2777ZM15.9678 24.8381C15.9841 25.6618 15.4135 26.3925 14.611 26.5755L13.8588 26.7469C13.795 25.8059 13.8294 24.8683 13.9622 23.9641L15.9519 24.0321L15.9678 24.8381ZM5.68952 22.5073C5.03508 22.4509 4.49841 21.984 4.35215 21.342L3.57437 17.93C3.42952 17.2923 3.70639 16.6435 4.26435 16.3074L18.3988 9.7006L21.4406 23.0449L5.68952 22.5073ZM22.6571 23.0996L19.4828 9.17442C20.3834 8.67312 22.4382 7.31101 23.4747 4.86437L28.1162 25.2266C26.1799 23.5859 23.6821 23.1932 22.6571 23.0996Z" fill="white"/>
<path d="M34.0712 11.7386C33.9652 11.9106 33.9552 12.125 34.0445 12.3061L34.5201 13.2703L31.7206 13.2899C30.9627 13.2953 30.9748 14.4637 31.7288 14.4637L35.465 14.4377C35.8909 14.4347 36.1757 13.9731 35.9873 13.5911L35.5111 12.6258L38.4812 12.6016C39.2391 12.5954 39.2254 11.4277 38.4715 11.4277L34.5661 11.4597C34.3641 11.4613 34.1771 11.5666 34.0712 11.7386V11.7386Z" fill="white"/>
<path d="M30.6717 9.84208C30.7609 9.84208 30.8513 9.82173 30.9363 9.77861L34.2698 8.09081C34.6498 7.89846 34.6991 7.35835 34.3602 7.10026L33.504 6.44816L36.1523 5.1032C36.8072 4.77061 36.3056 3.70885 35.6209 4.05662L32.1386 5.82502C31.7589 6.01776 31.71 6.55733 32.0487 6.81526L32.9041 7.46665L30.4062 8.73141C29.8784 8.99865 30.0769 9.84208 30.6717 9.84208V9.84208Z" fill="white"/>
<path d="M39.4398 19.5265L36.4703 19.4624L36.9593 18.5035C37.1529 18.1241 36.8744 17.6588 36.4486 17.6501L32.7131 17.5739C31.9589 17.5599 31.9315 18.732 32.6891 18.7474L35.4882 18.8045L34.9997 19.7622C34.8062 20.1414 35.0842 20.6065 35.5098 20.6157L39.4145 20.7C40.1686 20.7198 40.1973 19.5428 39.4398 19.5265V19.5265Z" fill="white"/>
</g>
<defs>
<clipPath id="clip0">
<rect width="40" height="40" fill="white"/>
</clipPath>
</defs>
</svg>
