<svg width="40" height="40" viewBox="0 0 40 40" fill="none" xmlns="http://www.w3.org/2000/svg">
<path d="M18.5938 1.1748H24.5874C25.6334 1.1748 26.4844 2.02207 26.4844 3.06355V11.4092H15.4126C14.0245 11.4092 12.8495 12.3332 12.4716 13.5967H6.01562C5.69195 13.5967 5.42969 13.8589 5.42969 14.1826C5.42969 14.5063 5.69195 14.7686 6.01562 14.7686H12.3438V15.7842H3.67188C3.3482 15.7842 3.08594 16.0464 3.08594 16.3701C3.08594 16.6938 3.3482 16.9561 3.67188 16.9561H12.3438V17.9717H3.67188C3.3482 17.9717 3.08594 18.2339 3.08594 18.5576C3.08594 18.8813 3.3482 19.1436 3.67188 19.1436H12.3438V20.2373C12.3438 20.561 12.606 20.8232 12.9297 20.8232C13.2534 20.8232 13.5156 20.561 13.5156 20.2373V14.4698C13.5156 13.4283 14.3666 12.5811 15.4126 12.5811H31.3281C31.6518 12.5811 31.9141 12.3188 31.9141 11.9951C31.9141 11.6714 31.6518 11.4092 31.3281 11.4092H27.6562V3.06355C27.6562 1.3759 26.2796 0.00292969 24.5874 0.00292969H18.5938C18.2701 0.00292969 18.0078 0.265195 18.0078 0.588867C18.0078 0.912539 18.2701 1.1748 18.5938 1.1748V1.1748Z" fill="white"/>
<path d="M36.9312 11.4092H34.0625C33.7388 11.4092 33.4766 11.6714 33.4766 11.9951C33.4766 12.3188 33.7388 12.5811 34.0625 12.5811H36.9312C37.9772 12.5811 38.8281 13.4283 38.8281 14.4698V31.6278C38.8281 32.6693 37.9771 33.5165 36.9312 33.5165H34.9448C33.7091 33.5165 32.7036 34.5195 32.7036 35.7522V38.5907C32.7036 38.7171 32.6218 38.7779 32.573 38.8029C32.5234 38.8282 32.4245 38.8596 32.3194 38.7836L25.612 33.9411C25.2272 33.6633 24.7728 33.5165 24.2979 33.5165H15.4126C14.3666 33.5165 13.5156 32.6693 13.5156 31.6278V22.9717C13.5156 22.648 13.2534 22.3857 12.9297 22.3857C12.606 22.3857 12.3438 22.648 12.3438 22.9717V24.0107L7.68062 27.3773C7.57555 27.4533 7.47656 27.4219 7.42695 27.3965C7.37813 27.3716 7.29633 27.3108 7.29633 27.1843V24.346C7.29633 23.1132 6.29094 22.1103 5.05508 22.1103H3.06883C2.02289 22.1103 1.17188 21.263 1.17188 20.2215V3.06355C1.17188 2.02207 2.02289 1.1748 3.06883 1.1748H15.8594C16.183 1.1748 16.4453 0.912539 16.4453 0.588867C16.4453 0.265195 16.183 0.00292969 15.8594 0.00292969H3.06883C1.37664 0.00292969 0 1.3759 0 3.06355V20.2215C0 21.9092 1.37664 23.2821 3.06883 23.2821H5.05516C5.64477 23.2821 6.12453 23.7593 6.12453 24.346V27.1844C6.12453 27.7163 6.41914 28.1974 6.89336 28.4399C7.27102 28.6283 7.86297 28.6811 8.36664 28.3275L12.3438 25.4561V31.6278C12.3438 33.3154 13.7204 34.6884 15.4126 34.6884H24.2978C24.5249 34.6884 24.7421 34.7585 24.9259 34.8913L31.6334 39.7338C32.0148 39.984 32.5282 40.1195 33.1066 39.8461C33.5808 39.6036 33.8754 39.1225 33.8754 38.5907V35.7522C33.8754 35.1656 34.3552 34.6884 34.9448 34.6884H36.9311C38.6233 34.6884 39.9999 33.3154 39.9999 31.6278V14.4698C40 12.7821 38.6234 11.4092 36.9312 11.4092V11.4092Z" fill="white"/>
<path d="M29.0508 16.1164C28.7271 16.1164 28.4648 16.3787 28.4648 16.7024C28.4648 17.0261 28.7271 17.2883 29.0508 17.2883H30.2657C30.547 18.5352 31.1034 19.682 31.8785 20.6573C31.2855 21.2235 30.5916 21.6929 29.818 22.0377L29.0107 22.3974C28.7152 22.5291 28.5823 22.8755 28.714 23.1711C28.8112 23.3892 29.0252 23.5186 29.2495 23.5186C29.3292 23.5186 29.4102 23.5023 29.4877 23.4678L30.2949 23.1081C31.1855 22.7112 31.9852 22.1724 32.67 21.5227C33.3548 22.1724 34.1544 22.7112 35.045 23.1081L35.8523 23.4678C35.9298 23.5023 36.0108 23.5186 36.0905 23.5186C36.3148 23.5186 36.5288 23.3891 36.626 23.1711C36.7577 22.8754 36.6248 22.529 36.3293 22.3974L35.522 22.0377C34.7482 21.6929 34.0545 21.2235 33.4614 20.6573C34.2364 19.682 34.7928 18.5353 35.0741 17.2883H36.2891C36.6127 17.2883 36.875 17.0261 36.875 16.7024C36.875 16.3787 36.6127 16.1164 36.2891 16.1164H33.2559V15.1201C33.2559 14.7964 32.9936 14.5342 32.6699 14.5342C32.3462 14.5342 32.084 14.7964 32.084 15.1201V16.1164H29.0508ZM32.6699 19.7643C32.1209 19.031 31.7112 18.193 31.4719 17.2883H33.868C33.6287 18.193 33.219 19.031 32.6699 19.7643V19.7643Z" fill="white"/>
<path d="M3.50413 12.0745C3.80702 12.1889 4.14499 12.036 4.25921 11.7332L4.84015 10.1939H8.74476L9.33164 11.7349C9.4207 11.9687 9.64312 12.1125 9.87929 12.1125C9.94867 12.1125 10.0191 12.1001 10.0877 12.0739C10.3902 11.9587 10.542 11.6202 10.4268 11.3178L7.4932 3.61535C7.49156 3.61082 7.48976 3.60645 7.48796 3.60199C7.37023 3.31418 7.09328 3.12816 6.78249 3.12793C6.78226 3.12793 6.78203 3.12793 6.78179 3.12793C6.47117 3.12793 6.19421 3.31348 6.07617 3.60082C6.07398 3.60605 6.07187 3.61137 6.06992 3.61668L3.16296 11.3195C3.04858 11.6221 3.2014 11.9603 3.50413 12.0745ZM6.78343 5.04441L8.29836 9.02199H5.28234L6.78343 5.04441Z" fill="white"/>
<path d="M13.0078 8.20605H22.7734C23.0971 8.20605 23.3594 7.94379 23.3594 7.62012C23.3594 7.29645 23.0971 7.03418 22.7734 7.03418H13.0078C12.6841 7.03418 12.4219 7.29645 12.4219 7.62012C12.4219 7.94379 12.6841 8.20605 13.0078 8.20605Z" fill="white"/>
<path d="M13.0078 10.3936H20.4297C20.7534 10.3936 21.0156 10.1313 21.0156 9.80762C21.0156 9.48395 20.7534 9.22168 20.4297 9.22168H13.0078C12.6841 9.22168 12.4219 9.48395 12.4219 9.80762C12.4219 10.1313 12.6841 10.3936 13.0078 10.3936Z" fill="white"/>
<path d="M25.4688 18.3623H15.7031C15.3795 18.3623 15.1172 18.6246 15.1172 18.9482C15.1172 19.2719 15.3795 19.5342 15.7031 19.5342H25.4688C25.7924 19.5342 26.0547 19.2719 26.0547 18.9482C26.0547 18.6246 25.7924 18.3623 25.4688 18.3623Z" fill="white"/>
<path d="M15.7031 21.7217H23.125C23.4487 21.7217 23.7109 21.4594 23.7109 21.1357C23.7109 20.8121 23.4487 20.5498 23.125 20.5498H15.7031C15.3795 20.5498 15.1172 20.8121 15.1172 21.1357C15.1172 21.4594 15.3795 21.7217 15.7031 21.7217Z" fill="white"/>
<path d="M29.0234 25.5107C29.0234 25.1871 28.7611 24.9248 28.4374 24.9248H18.0469C17.7232 24.9248 17.4609 25.1871 17.4609 25.5107C17.4609 25.8344 17.7232 26.0967 18.0469 26.0967H28.4374C28.7611 26.0967 29.0234 25.8343 29.0234 25.5107Z" fill="white"/>
<path d="M34.8048 24.9248H31.1719C30.8482 24.9248 30.5859 25.1871 30.5859 25.5107C30.5859 25.8344 30.8482 26.0967 31.1719 26.0967H34.8048C35.1284 26.0967 35.3907 25.8344 35.3907 25.5107C35.3907 25.1871 35.1284 24.9248 34.8048 24.9248Z" fill="white"/>
<path d="M15.7031 27.1123C15.3795 27.1123 15.1172 27.3746 15.1172 27.6982C15.1172 28.0219 15.3795 28.2842 15.7031 28.2842H20.8593C21.183 28.2842 21.4452 28.0219 21.4452 27.6982C21.4452 27.3746 21.183 27.1123 20.8593 27.1123H15.7031Z" fill="white"/>
<path d="M35.3907 27.6982C35.3907 27.3746 35.1284 27.1123 34.8048 27.1123H23.5938C23.2701 27.1123 23.0078 27.3746 23.0078 27.6982C23.0078 28.0219 23.2701 28.2842 23.5938 28.2842H34.8048C35.1284 28.2842 35.3907 28.0218 35.3907 27.6982Z" fill="white"/>
<path d="M15.7031 30.4717H30.1172C30.4409 30.4717 30.7031 30.2094 30.7031 29.8857C30.7031 29.5621 30.4409 29.2998 30.1172 29.2998H15.7031C15.3795 29.2998 15.1172 29.5621 15.1172 29.8857C15.1172 30.2094 15.3795 30.4717 15.7031 30.4717V30.4717Z" fill="white"/>
</svg>
