<svg width="94" height="37" viewBox="0 0 94 37" fill="none" xmlns="http://www.w3.org/2000/svg">
<path d="M20.6891 15C23.5891 15.6 25.8057 16.8 27.3391 18.6C28.9057 20.3667 29.6891 22.5167 29.6891 25.05C29.6891 27.1167 29.1224 29.0333 27.9891 30.8C26.8891 32.5667 25.1891 34 22.8891 35.1C20.6224 36.1667 17.8057 36.7 14.4391 36.7C11.9724 36.7 9.5224 36.4 7.08906 35.8C4.68906 35.2 2.60573 34.35 0.839062 33.25L4.43906 25.8C5.80573 26.7333 7.33906 27.45 9.03906 27.95C10.7724 28.45 12.4724 28.7 14.1391 28.7C15.8391 28.7 17.1891 28.3833 18.1891 27.75C19.1891 27.1167 19.6891 26.2167 19.6891 25.05C19.6891 22.7833 17.9057 21.65 14.3391 21.65H10.1891V15.4L16.4391 8.65H2.63906V0.999998H27.9391V7.2L20.6891 15ZM48.316 36.7C45.316 36.7 42.6493 35.9833 40.316 34.55C37.9827 33.1167 36.1493 31.0333 34.816 28.3C33.516 25.5333 32.866 22.2667 32.866 18.5C32.866 14.7333 33.516 11.4833 34.816 8.75C36.1493 5.98333 37.9827 3.88333 40.316 2.45C42.6493 1.01667 45.316 0.299998 48.316 0.299998C51.2827 0.299998 53.9327 1.01667 56.266 2.45C58.5994 3.88333 60.416 5.98333 61.716 8.75C63.0493 11.4833 63.716 14.7333 63.716 18.5C63.716 22.2667 63.0493 25.5333 61.716 28.3C60.416 31.0333 58.5994 33.1167 56.266 34.55C53.9327 35.9833 51.2827 36.7 48.316 36.7ZM48.316 28.6C49.9827 28.6 51.2993 27.8 52.266 26.2C53.266 24.5667 53.766 22 53.766 18.5C53.766 15 53.266 12.45 52.266 10.85C51.2993 9.21666 49.9827 8.4 48.316 8.4C46.616 8.4 45.266 9.21666 44.266 10.85C43.2993 12.45 42.816 15 42.816 18.5C42.816 22 43.2993 24.5667 44.266 26.2C45.266 27.8 46.616 28.6 48.316 28.6ZM93.0422 22.15H84.5922V30.4H76.8922V22.15H68.3922V14.85H76.8922V6.6H84.5922V14.85H93.0422V22.15Z" fill="#0F0E0E"/>
</svg>
