<svg width="131" height="37" viewBox="0 0 131 37" fill="none" xmlns="http://www.w3.org/2000/svg">
<path d="M34.1834 29.3H28.9834V36H19.3334V29.3H0.833398V22.85L16.5334 0.999998H26.7834L12.5334 21.45H19.6334V15.5H28.9834V21.45H34.1834V29.3ZM51.6432 36.7C48.6432 36.7 45.9765 35.9833 43.6432 34.55C41.3098 33.1167 39.4765 31.0333 38.1432 28.3C36.8432 25.5333 36.1932 22.2667 36.1932 18.5C36.1932 14.7333 36.8432 11.4833 38.1432 8.75C39.4765 5.98333 41.3098 3.88333 43.6432 2.45C45.9765 1.01667 48.6432 0.299998 51.6432 0.299998C54.6098 0.299998 57.2598 1.01667 59.5932 2.45C61.9265 3.88333 63.7432 5.98333 65.0432 8.75C66.3765 11.4833 67.0432 14.7333 67.0432 18.5C67.0432 22.2667 66.3765 25.5333 65.0432 28.3C63.7432 31.0333 61.9265 33.1167 59.5932 34.55C57.2598 35.9833 54.6098 36.7 51.6432 36.7ZM51.6432 28.6C53.3098 28.6 54.6265 27.8 55.5932 26.2C56.5932 24.5667 57.0932 22 57.0932 18.5C57.0932 15 56.5932 12.45 55.5932 10.85C54.6265 9.21666 53.3098 8.4 51.6432 8.4C49.9432 8.4 48.5932 9.21666 47.5932 10.85C46.6265 12.45 46.1432 15 46.1432 18.5C46.1432 22 46.6265 24.5667 47.5932 26.2C48.5932 27.8 49.9432 28.6 51.6432 28.6ZM85.8717 36.7C82.8717 36.7 80.205 35.9833 77.8717 34.55C75.5383 33.1167 73.705 31.0333 72.3717 28.3C71.0717 25.5333 70.4217 22.2667 70.4217 18.5C70.4217 14.7333 71.0717 11.4833 72.3717 8.75C73.705 5.98333 75.5383 3.88333 77.8717 2.45C80.205 1.01667 82.8717 0.299998 85.8717 0.299998C88.8383 0.299998 91.4883 1.01667 93.8217 2.45C96.155 3.88333 97.9717 5.98333 99.2717 8.75C100.605 11.4833 101.272 14.7333 101.272 18.5C101.272 22.2667 100.605 25.5333 99.2717 28.3C97.9717 31.0333 96.155 33.1167 93.8217 34.55C91.4883 35.9833 88.8383 36.7 85.8717 36.7ZM85.8717 28.6C87.5383 28.6 88.855 27.8 89.8217 26.2C90.8217 24.5667 91.3217 22 91.3217 18.5C91.3217 15 90.8217 12.45 89.8217 10.85C88.855 9.21666 87.5383 8.4 85.8717 8.4C84.1717 8.4 82.8217 9.21666 81.8217 10.85C80.855 12.45 80.3717 15 80.3717 18.5C80.3717 22 80.855 24.5667 81.8217 26.2C82.8217 27.8 84.1717 28.6 85.8717 28.6ZM130.598 22.15H122.148V30.4H114.448V22.15H105.948V14.85H114.448V6.6H122.148V14.85H130.598V22.15Z" fill="#0F0E0E"/>
</svg>
