<svg width="50" height="50" viewBox="0 0 50 50" fill="none" xmlns="http://www.w3.org/2000/svg">
<path d="M40.1934 11.4332L19.3406 31.5927L13.0526 25.52L3.93018 34.35L19.3359 49.248L49.3236 20.2617L40.1934 11.4332ZM8.45128 34.35L13.0604 29.8949L19.3485 35.9661L40.1934 15.8066L44.8025 20.2617L19.3359 44.8747L8.45128 34.35Z" fill="white"/>
<path d="M36.2632 4.37334L42.0404 9.9587L44.2255 7.69815L36.2632 0L30.3572 5.70955L32.5438 7.96853L36.2632 4.37334Z" fill="#77B6FF"/>
<path d="M30.2835 10.1529L28.0974 7.89331L25.8378 10.0794L28.0238 12.339L30.2835 10.1529Z" fill="#77B6FF"/>
<path d="M25.7622 14.5244L23.5762 12.2648L21.3166 14.4508L23.5026 16.7104L25.7622 14.5244Z" fill="#77B6FF"/>
<path d="M8.06914 26.3438L4.52111 22.9168L9.13025 18.4617L15.4104 24.5328L21.241 18.8956L19.0559 16.635L15.4104 20.1595L9.13025 14.0884L0 22.9168L5.88404 28.6059L8.06914 26.3438Z" fill="#77B6FF"/>
</svg>
