<svg width="55" height="56" viewBox="0 0 55 56" fill="none" xmlns="http://www.w3.org/2000/svg">
<path d="M54.927 30.0485C54.3879 25.8733 52.6716 21.9377 49.9788 18.7017C47.2859 15.4657 43.7276 13.063 39.7198 11.7743C35.712 10.4856 31.4202 10.3642 27.346 11.4242C23.2717 12.4843 19.5833 14.682 16.7118 17.7606C13.8403 20.8392 11.9043 24.6715 11.13 28.8095C10.3558 32.9476 10.7753 37.2206 12.3395 41.1291C13.9037 45.0377 16.5479 48.4203 19.9633 50.8817C23.3787 53.3431 27.4241 54.7816 31.6267 55.0291C33.9128 55.162 36.2057 54.9424 38.425 54.3779C39.4018 54.1195 40.2512 53.5144 40.8146 52.6756C41.3781 51.8368 41.617 50.8217 41.4869 49.8196C41.3567 48.8176 40.8664 47.8972 40.1074 47.2302C39.3484 46.5631 38.3726 46.1951 37.3622 46.1948C36.421 46.1948 35.5184 45.8209 34.8529 45.1554C34.1874 44.4899 33.8135 43.5873 33.8135 42.6461C33.8135 41.705 34.1874 40.8024 34.8529 40.1369C35.5184 39.4714 36.421 39.0975 37.3622 39.0975H46.9967C48.1372 39.102 49.2654 38.8617 50.3051 38.3929C51.3448 37.9241 52.2718 37.2376 53.0235 36.3798C53.7752 35.5221 54.3341 34.513 54.6625 33.4208C54.9909 32.3286 55.0811 31.1786 54.927 30.0485ZM16.5734 32.049C16.1528 31.3805 15.94 30.6023 15.9619 29.8128C15.9837 29.0232 16.2393 28.258 16.6962 27.6137C17.1531 26.9695 17.7909 26.4753 18.5287 26.1936C19.2666 25.9119 20.0714 25.8554 20.8414 26.0312C21.6114 26.2071 22.3119 26.6074 22.8544 27.1815C23.3968 27.7556 23.7567 28.4777 23.8887 29.2564C24.0206 30.0351 23.9186 30.8355 23.5955 31.5562C23.2725 32.2769 22.7429 32.8856 22.0738 33.3053C21.1776 33.8673 20.095 34.0508 19.0637 33.8152C18.0324 33.5797 17.1367 32.9445 16.5734 32.049ZM25.0112 44.306C24.3938 44.7981 23.6443 45.0961 22.8576 45.1624C22.0708 45.2286 21.2821 45.06 20.5912 44.678C19.9002 44.296 19.338 43.7177 18.9757 43.0162C18.6134 42.3147 18.4672 41.5216 18.5557 40.737C18.6441 39.9525 18.9632 39.2117 19.4726 38.6085C19.982 38.0053 20.6588 37.5667 21.4175 37.3481C22.1761 37.1295 22.9826 37.1407 23.7348 37.3804C24.4871 37.6202 25.1514 38.0775 25.6437 38.6947C25.9707 39.1047 26.2137 39.575 26.3589 40.0789C26.5041 40.5828 26.5486 41.1103 26.4898 41.6314C26.4311 42.1525 26.2703 42.6569 26.0166 43.1158C25.7628 43.5747 25.4212 43.9792 25.0112 44.306ZM28.8845 24.494C28.1732 24.837 27.3762 24.9613 26.5942 24.8512C25.8123 24.7411 25.0805 24.4016 24.4915 23.8756C23.9025 23.3497 23.4828 22.6608 23.2853 21.8962C23.0879 21.1317 23.1216 20.3257 23.3822 19.5803C23.6428 18.8349 24.1187 18.1835 24.7495 17.7086C25.3804 17.2336 26.1379 16.9564 26.9263 16.9121C27.7148 16.8677 28.4986 17.0581 29.1788 17.4593C29.859 17.8604 30.4049 18.4543 30.7475 19.1658C31.2068 20.1194 31.2685 21.2164 30.9192 22.2156C30.5698 23.2148 29.8379 24.0343 28.8845 24.494ZM36.9683 24.494C36.2568 24.1514 35.6629 23.6055 35.2618 22.9253C34.8606 22.2451 34.6702 21.4613 34.7146 20.6729C34.7589 19.8844 35.0361 19.1269 35.5111 18.496C35.986 17.8652 36.6374 17.3893 37.3828 17.1287C38.1282 16.8681 38.9342 16.8344 39.6987 17.0318C40.4633 17.2293 41.1522 17.649 41.6781 18.238C42.2041 18.827 42.5436 19.5588 42.6537 20.3407C42.7638 21.1227 42.6395 21.9197 42.2965 22.631C41.8367 23.5843 41.0171 24.316 40.0179 24.6652C39.0187 25.0143 37.9218 24.9525 36.9683 24.4931V24.494ZM49.2802 32.0508C48.8606 32.7199 48.2519 33.2495 47.5311 33.5726C46.8104 33.8956 46.0101 33.9976 45.2313 33.8657C44.4526 33.7338 43.7305 33.3738 43.1564 32.8314C42.5824 32.289 42.1821 31.5885 42.0062 30.8185C41.8303 30.0485 41.8868 29.2436 42.1685 28.5058C42.4502 27.7679 42.9444 27.1302 43.5887 26.6732C44.2329 26.2163 44.9982 25.9608 45.7877 25.9389C46.5772 25.9171 47.3555 26.1299 48.024 26.5505C48.9192 27.1137 49.5542 28.0092 49.7898 29.0403C50.0253 30.0714 49.842 31.1538 49.2802 32.0499V32.0508Z" fill="#BBCEFF"/>
<path d="M38.6691 0.0626261C37.2513 0.0609376 35.8842 0.589747 34.8366 1.54507L12.2239 22.1573C12.1399 22.2419 12.0693 22.3388 12.0145 22.4447L9.24835 28.5306C7.74518 28.6271 6.32857 29.2676 5.26325 30.3324C1.90979 33.6859 2.47314 40.6846 0.249035 42.9061C0.0874326 43.0734 -0.00198778 43.2975 3.35369e-05 43.5301C0.00205485 43.7627 0.0953561 43.9852 0.259842 44.1497C0.424328 44.3142 0.646838 44.4075 0.879448 44.4095C1.11206 44.4116 1.33616 44.3221 1.50347 44.1605C3.72137 41.9426 10.7219 42.4998 14.0754 39.1463C15.1405 38.0811 15.7813 36.6645 15.8781 35.1612L21.9622 32.3959H21.9693C22.0736 32.3423 22.1691 32.2729 22.2523 32.1901L42.8645 9.57383C43.6062 8.75996 44.0955 7.74813 44.2729 6.66135C44.4503 5.57457 44.3082 4.45966 43.8638 3.45216C43.4194 2.44466 42.6919 1.58796 41.7697 0.986218C40.8475 0.384476 39.7703 0.0636096 38.6691 0.0626261ZM12.8209 37.8919C10.6643 40.0486 6.25597 40.2686 3.08794 41.3216C4.12946 38.1891 4.35657 33.7497 6.51768 31.5877C7.35366 30.7519 8.48745 30.2823 9.66962 30.2824C10.255 30.2825 10.8346 30.3978 11.3754 30.6218C11.9161 30.8459 12.4075 31.1742 12.8214 31.5882C13.2353 32.0021 13.5635 32.4935 13.7875 33.0343C14.0115 33.5751 14.1267 34.1548 14.1267 34.7401C14.1266 35.3255 14.0113 35.9051 13.7873 36.4459C13.5632 36.9866 13.2349 37.478 12.8209 37.8919ZM15.7202 33.2849C15.457 32.1674 14.8876 31.1455 14.0758 30.3337C13.2641 29.522 12.2421 28.9526 11.1247 28.6894L13.0995 24.3423L20.0637 31.3065L15.7202 33.2849ZM41.5524 8.37795L21.5674 30.304L14.1064 22.843L36.0316 2.85628C36.7742 2.17686 37.7502 1.81014 38.7565 1.83251C39.7627 1.85488 40.7215 2.26462 41.4332 2.97637C42.1448 3.68812 42.5544 4.647 42.5766 5.65324C42.5988 6.65948 42.2319 7.63549 41.5524 8.37795Z" fill="#151A6A"/>
</svg>
