<svg width="78" height="78" viewBox="0 0 78 78" fill="none" xmlns="http://www.w3.org/2000/svg">
<path d="M39 0C17.4631 0 0 17.4597 0 38.9983C0 60.5369 17.4614 77.9966 39 77.9966C60.5403 77.9966 78 60.5369 78 38.9983C78 17.4597 60.5403 0 39 0ZM39 11.6609C46.1264 11.6609 51.9012 17.4375 51.9012 24.5604C51.9012 31.6851 46.1264 37.4599 39 37.4599C31.877 37.4599 26.1022 31.6851 26.1022 24.5604C26.1022 17.4375 31.877 11.6609 39 11.6609ZM38.9914 67.8003C31.8839 67.8003 25.3742 65.2119 20.3531 60.9274C19.13 59.8842 18.4242 58.3544 18.4242 56.7492C18.4242 49.5252 24.2709 43.7435 31.4967 43.7435H46.5067C53.7342 43.7435 59.5587 49.5252 59.5587 56.7492C59.5587 58.3561 58.8563 59.8825 57.6315 60.9257C52.6121 65.2119 46.1007 67.8003 38.9914 67.8003Z" fill="#27AE60"/>
</svg>
