<svg width="55" height="55" viewBox="0 0 55 55" fill="none" xmlns="http://www.w3.org/2000/svg">
<path d="M31.0484 28.2129C31.7542 28.2129 32.4311 27.9325 32.9302 27.4334C33.4293 26.9343 33.7097 26.2574 33.7097 25.5516V15.7935H52.3387C53.0445 15.7935 53.7214 16.0739 54.2205 16.573C54.7196 17.0721 55 17.749 55 18.4548V52.1645C55 52.8704 54.7196 53.5473 54.2205 54.0464C53.7214 54.5454 53.0445 54.8258 52.3387 54.8258H47.0161V28.0869C47.8524 27.871 48.5811 27.3575 49.0659 26.6427C49.5506 25.9279 49.758 25.0609 49.6491 24.2041C49.5403 23.3473 49.1228 22.5597 48.4747 21.9887C47.8267 21.4178 46.9927 21.1028 46.129 21.1028C45.2654 21.1028 44.4314 21.4178 43.7833 21.9887C43.1353 22.5597 42.7177 23.3473 42.6089 24.2041C42.5001 25.0609 42.7075 25.9279 43.1922 26.6427C43.6769 27.3575 44.4057 27.871 45.2419 28.0869V54.8258H41.6935V37.971C41.6935 37.7357 41.6 37.5101 41.4336 37.3438L38.5293 34.4394C38.8554 33.8987 39.0292 33.2798 39.0322 32.6484C39.0322 31.9466 38.8241 31.2605 38.4342 30.677C38.0443 30.0935 37.4901 29.6387 36.8418 29.3701C36.1934 29.1015 35.4799 29.0313 34.7916 29.1682C34.1033 29.3051 33.471 29.643 32.9748 30.1393C32.4785 30.6355 32.1406 31.2678 32.0036 31.9561C31.8667 32.6444 31.937 33.3579 32.2056 34.0063C32.4741 34.6547 32.9289 35.2089 33.5125 35.5988C34.096 35.9887 34.782 36.1968 35.4839 36.1968C36.1153 36.1937 36.7342 36.0199 37.2749 35.6938L39.9193 38.3382V54.8258H36.371V45.9549C36.3709 45.7196 36.2774 45.494 36.111 45.3277L33.2067 42.4233C33.5324 41.8824 33.7061 41.2637 33.7097 40.6323C33.7097 39.9305 33.5015 39.2444 33.1116 38.6609C32.7217 38.0774 32.1676 37.6225 31.5192 37.354C30.8708 37.0854 30.1573 37.0151 29.469 37.1521C28.7807 37.289 28.1484 37.6269 27.6522 38.1232C27.1559 38.6194 26.818 39.2517 26.6811 39.94C26.5441 40.6283 26.6144 41.3418 26.883 41.9902C27.1515 42.6386 27.6064 43.1927 28.1899 43.5826C28.7734 43.9725 29.4595 44.1807 30.1613 44.1807C30.7927 44.1776 31.4116 44.0038 31.9523 43.6777L34.5968 46.3221V54.8258H23.9516C23.2458 54.8258 22.5688 54.5454 22.0698 54.0464C21.5707 53.5473 21.2903 52.8704 21.2903 52.1645V28.2129H31.0484Z" fill="#BBCEFF"/>
<path d="M31.0485 26.4387H21.8103L31.9356 16.3134V25.5516C31.9356 25.7869 31.8422 26.0125 31.6758 26.1789C31.5095 26.3452 31.2838 26.4387 31.0485 26.4387Z" fill="#BBCEFF"/>
<path d="M46.1292 26.4387C47.109 26.4387 47.9034 25.6443 47.9034 24.6645C47.9034 23.6846 47.109 22.8903 46.1292 22.8903C45.1493 22.8903 44.355 23.6846 44.355 24.6645C44.355 25.6443 45.1493 26.4387 46.1292 26.4387Z" fill="#BBCEFF"/>
<path d="M35.4839 34.4225C36.4638 34.4225 37.2581 33.6282 37.2581 32.6483C37.2581 31.6685 36.4638 30.8741 35.4839 30.8741C34.5041 30.8741 33.7097 31.6685 33.7097 32.6483C33.7097 33.6282 34.5041 34.4225 35.4839 34.4225Z" fill="#BBCEFF"/>
<path d="M30.1614 42.4064C31.1413 42.4064 31.9356 41.6121 31.9356 40.6322C31.9356 39.6524 31.1413 38.858 30.1614 38.858C29.1815 38.858 28.3872 39.6524 28.3872 40.6322C28.3872 41.6121 29.1815 42.4064 30.1614 42.4064Z" fill="#BBCEFF"/>
<path d="M0.887098 45.0677H9.75808C10.4639 45.0677 11.1408 44.7873 11.6399 44.2883C12.139 43.7892 12.4194 43.1123 12.4194 42.4064V22.8583C15.4552 22.7596 18.4532 22.1555 21.2904 21.0708V39.3779L17.742 35.8295V30.7109C18.3338 30.5017 18.8327 30.0899 19.1503 29.5484C19.468 29.0069 19.584 28.3706 19.4778 27.7518C19.3717 27.1331 19.0502 26.5718 18.5702 26.1671C18.0902 25.7625 17.4827 25.5406 16.8549 25.5406C16.2271 25.5406 15.6195 25.7625 15.1395 26.1671C14.6595 26.5718 14.3381 27.1331 14.2319 27.7518C14.1257 28.3706 14.2417 29.0069 14.5594 29.5484C14.877 30.0899 15.3759 30.5017 15.9678 30.7109V36.1968C15.9678 36.432 16.0613 36.6576 16.2277 36.8239L21.2904 41.8866V44.1806C21.2904 44.4159 21.3838 44.6415 21.5502 44.8079C21.7165 44.9743 21.9422 45.0677 22.1775 45.0677C22.4127 45.0677 22.6384 44.9743 22.8047 44.8079C22.9711 44.6415 23.0646 44.4159 23.0646 44.1806V33.9027L28.1272 28.84C28.2936 28.6737 28.3871 28.4481 28.3871 28.2129V25.3883C28.979 25.1791 29.4779 24.7673 29.7955 24.2258C30.1132 23.6843 30.2292 23.048 30.123 22.4292C30.0168 21.8105 29.6954 21.2492 29.2154 20.8445C28.7354 20.4399 28.1278 20.218 27.5 20.218C26.8723 20.218 26.2647 20.4399 25.7847 20.8445C25.3047 21.2492 24.9832 21.8105 24.8771 22.4292C24.7709 23.048 24.8869 23.6843 25.2046 24.2258C25.5222 24.7673 26.0211 25.1791 26.6129 25.3883V27.8456L23.0646 31.394V20.3177C28.3585 17.8646 32.741 13.8001 35.5851 8.70558C36.6807 10.5884 37.258 12.728 37.2581 14.9064V17.5677C37.2566 17.705 37.287 17.8407 37.3468 17.9642L39.4368 22.1425C39.5202 22.3091 39.5489 22.4978 39.519 22.6817C39.489 22.8656 39.4019 23.0354 39.2701 23.1671L37.5136 24.9244C37.3489 25.0914 37.257 25.317 37.2581 25.5516V31.7613C37.2581 31.9965 37.1647 32.2222 36.9983 32.3885C36.8319 32.5549 36.6063 32.6484 36.371 32.6484H33.7097C32.5338 32.6498 31.4064 33.1175 30.5749 33.949C29.7434 34.7806 29.2756 35.9079 29.2742 37.0839V42.4064C29.2742 43.1123 29.5546 43.7892 30.0537 44.2883C30.5528 44.7873 31.2297 45.0677 31.9355 45.0677H41.6936C41.9289 45.0677 42.1545 44.9743 42.3209 44.8079C42.4872 44.6415 42.5807 44.4159 42.5807 44.1806C42.5807 43.9454 42.4872 43.7197 42.3209 43.5534C42.1545 43.387 41.9289 43.2935 41.6936 43.2935H31.9355C31.7003 43.2935 31.4746 43.2001 31.3083 43.0337C31.1419 42.8674 31.0484 42.6417 31.0484 42.4064V37.0839C31.0484 36.378 31.3288 35.7011 31.8279 35.202C32.327 34.7029 33.0039 34.4226 33.7097 34.4226H36.371C37.0768 34.4226 37.7538 34.1422 38.2528 33.6431C38.7519 33.144 39.0323 32.4671 39.0323 31.7613V25.9188L40.5289 24.4223C40.9242 24.0274 41.1851 23.518 41.2748 22.9665C41.3644 22.4149 41.2782 21.8492 41.0283 21.3494L39.0323 17.3583V14.9064C39.0323 11.142 37.5369 7.53184 34.8751 4.87003C32.2133 2.20822 28.6031 0.71283 24.8387 0.71283C21.0744 0.71283 17.4642 2.20822 14.8024 4.87003C12.1406 7.53184 10.6452 11.142 10.6452 14.9064V42.4064C10.6452 42.6417 10.5517 42.8674 10.3854 43.0337C10.219 43.2001 9.99335 43.2935 9.75808 43.2935H0.887098C0.651825 43.2935 0.426188 43.387 0.259825 43.5534C0.0934618 43.7197 0 43.9454 0 44.1806C0 44.4159 0.0934618 44.6415 0.259825 44.8079C0.426188 44.9743 0.651825 45.0677 0.887098 45.0677ZM16.8549 27.3258C17.0303 27.3258 17.2018 27.3778 17.3477 27.4753C17.4936 27.5728 17.6073 27.7113 17.6744 27.8734C17.7416 28.0355 17.7591 28.2139 17.7249 28.3859C17.6907 28.558 17.6062 28.7161 17.4821 28.8401C17.3581 28.9642 17.2 29.0487 17.0279 29.0829C16.8559 29.1172 16.6775 29.0996 16.5154 29.0324C16.3533 28.9653 16.2147 28.8516 16.1173 28.7057C16.0198 28.5598 15.9678 28.3883 15.9678 28.2129C15.9678 27.9776 16.0612 27.752 16.2276 27.5856C16.394 27.4192 16.6196 27.3258 16.8549 27.3258ZM27.5 22.0032C27.6755 22.0032 27.847 22.0552 27.9929 22.1527C28.1388 22.2502 28.2525 22.3887 28.3196 22.5508C28.3868 22.7129 28.4043 22.8913 28.3701 23.0633C28.3359 23.2354 28.2514 23.3935 28.1273 23.5176C28.0033 23.6416 27.8452 23.7261 27.6731 23.7603C27.501 23.7946 27.3227 23.777 27.1606 23.7099C26.9985 23.6427 26.8599 23.529 26.7624 23.3831C26.665 23.2372 26.6129 23.0657 26.6129 22.8903C26.6129 22.655 26.7064 22.4294 26.8728 22.263C27.0391 22.0966 27.2648 22.0032 27.5 22.0032ZM24.8387 2.48703C26.6796 2.48686 28.4974 2.89671 30.1602 3.68679C31.8229 4.47687 33.2888 5.62736 34.4513 7.05469C31.9502 11.9312 27.9622 15.8853 23.0646 18.3448V13.0062C23.9008 12.7903 24.6296 12.2768 25.1143 11.562C25.599 10.8472 25.8064 9.98018 25.6976 9.12341C25.5887 8.26663 25.1712 7.47896 24.5231 6.90804C23.8751 6.33711 23.0411 6.02213 22.1775 6.02213C21.3138 6.02213 20.4798 6.33711 19.8318 6.90804C19.1837 7.47896 18.7662 8.26663 18.6573 9.12341C18.5485 9.98018 18.7559 10.8472 19.2406 11.562C19.7253 12.2768 20.4541 12.7903 21.2904 13.0062V19.1556C18.4719 20.3218 15.4677 20.9749 12.4194 21.0842V14.9064C12.4229 11.6137 13.7325 8.45679 16.0608 6.12847C18.3891 3.80014 21.546 2.49055 24.8387 2.48703ZM22.1775 11.358C21.8265 11.358 21.4835 11.254 21.1918 11.059C20.9 10.864 20.6726 10.587 20.5383 10.2628C20.404 9.93857 20.3689 9.58184 20.4373 9.23768C20.5058 8.89352 20.6748 8.57739 20.9229 8.32926C21.171 8.08114 21.4872 7.91216 21.8313 7.8437C22.1755 7.77525 22.5322 7.81038 22.8564 7.94467C23.1806 8.07895 23.4577 8.30635 23.6526 8.59812C23.8476 8.88988 23.9516 9.23291 23.9516 9.58381C23.9516 10.0544 23.7647 10.5056 23.432 10.8384C23.0993 11.1711 22.648 11.358 22.1775 11.358Z" fill="#151A6A"/>
</svg>
