<svg width="60" height="60" viewBox="0 0 60 60" fill="none" xmlns="http://www.w3.org/2000/svg">
<rect width="60" height="60" fill="#DEF2FE"/>
<path d="M22.8131 28.7493H19.6875C19.17 28.7493 18.75 29.1693 18.75 29.6868V32.8124C18.75 33.3299 19.17 33.7499 19.6875 33.7499H22.8131C23.3306 33.7499 23.7506 33.3299 23.7506 32.8124V29.6868C23.7506 29.1693 23.3306 28.7493 22.8131 28.7493Z" fill="#009EF7"/>
<path d="M22.8131 36.2493H19.6875C19.17 36.2493 18.75 36.6693 18.75 37.1868V40.3124C18.75 40.8299 19.17 41.2499 19.6875 41.2499H22.8131C23.3306 41.2499 23.7506 40.8299 23.7506 40.3124V37.1868C23.7506 36.6693 23.3306 36.2493 22.8131 36.2493Z" fill="#009EF7"/>
<path d="M31.5619 28.7493H28.4362C27.9187 28.7493 27.4987 29.1693 27.4987 29.6868V32.8124C27.4987 33.3299 27.9187 33.7499 28.4362 33.7499H31.5619C32.0794 33.7499 32.4994 33.3299 32.4994 32.8124V29.6868C32.4994 29.1693 32.0794 28.7493 31.5619 28.7493Z" fill="#009EF7"/>
<path d="M31.5619 36.2493H28.4363C27.9188 36.2493 27.4988 36.6693 27.4988 37.1868V40.3124C27.4988 40.8299 27.9188 41.2499 28.4363 41.2499H31.5619C32.0794 41.2499 32.4994 40.8299 32.4994 40.3124V37.1868C32.4994 36.6693 32.0794 36.2493 31.5619 36.2493Z" fill="#009EF7"/>
<path d="M40.3124 28.7493H37.1868C36.6693 28.7493 36.2493 29.1693 36.2493 29.6868V32.8124C36.2493 33.3299 36.6693 33.7499 37.1868 33.7499H40.3124C40.8299 33.7499 41.2499 33.3299 41.2499 32.8124V29.6868C41.2499 29.1693 40.8299 28.7493 40.3124 28.7493Z" fill="#009EF7"/>
<path d="M41.25 18.75H18.75C16.6819 18.75 15 20.4319 15 22.5V26.3006V41.25C15 43.3181 16.6819 45 18.75 45H41.25C43.3181 45 45 43.3181 45 41.25V26.3006V22.5C45 20.4319 43.3181 18.75 41.25 18.75ZM42.5006 41.25C42.5006 41.94 41.94 42.5006 41.25 42.5006H18.75C18.06 42.5006 17.4994 41.94 17.4994 41.25V27.5494H42.4988V41.25H42.5006Z" fill="#009EF7"/>
<path d="M22.5 15H21.2494C20.5594 15 19.9988 15.5587 19.9988 16.2506V21.2512C19.9988 21.9412 20.5575 22.5019 21.2494 22.5019H22.5C23.19 22.5019 23.7507 21.9431 23.7507 21.2512V16.2506C23.7507 15.5587 23.19 15 22.5 15Z" fill="#009EF7"/>
<path d="M38.7507 15H37.5C36.81 15 36.2494 15.5587 36.2494 16.2506V21.2512C36.2494 21.9412 36.81 22.5 37.5 22.5H38.7507C39.4407 22.5 40.0013 21.9413 40.0013 21.2494V16.2506C39.9994 15.5587 39.4407 15 38.7507 15Z" fill="#009EF7"/>
</svg>
