<svg width="23" height="24" viewBox="0 0 23 24" fill="none" xmlns="http://www.w3.org/2000/svg">
<path d="M22.318 6.64231C22.102 6.42481 21.8451 6.25218 21.5621 6.13438C21.2791 6.01659 20.9756 5.95594 20.669 5.95594C20.3625 5.95594 20.059 6.01659 19.776 6.13438C19.493 6.25218 19.2361 6.42481 19.0201 6.64231L15.8583 9.82383V1.40816C15.859 1.03569 15.7119 0.678146 15.4492 0.414104C15.1864 0.150063 14.8296 0.00111893 14.4572 0H1.39925C1.0271 0.00161515 0.670781 0.150778 0.408465 0.414766C0.146149 0.678754 -0.000746454 1.03601 2.85261e-06 1.40816V22.0612C-0.000746454 22.4334 0.146149 22.7907 0.408465 23.0546C0.670781 23.3186 1.0271 23.4678 1.39925 23.4694H14.4572C14.8293 23.4678 15.1856 23.3186 15.4479 23.0546C15.7103 22.7907 15.8572 22.4334 15.8564 22.0612V16.4619L22.318 9.96136C22.7549 9.51953 23 8.92322 23 8.30184C23 7.68045 22.7549 7.08414 22.318 6.64231ZM12.7537 18.2592L10.7748 16.2681L18.6901 8.3016L20.669 10.2932L12.7537 18.2592ZM10.319 17.1369L11.8901 18.7178L9.53328 19.5082L10.319 17.1369ZM14.9265 22.0612C14.9265 22.1853 14.8775 22.3042 14.7901 22.3922C14.7026 22.4801 14.584 22.5299 14.46 22.5306H1.39925C1.27525 22.5299 1.15658 22.4801 1.06916 22.3922C0.981741 22.3042 0.932675 22.1853 0.932677 22.0612V1.40816C0.932675 1.28416 0.981741 1.1652 1.06916 1.07725C1.15658 0.989302 1.27525 0.939521 1.39925 0.938776H14.4572C14.5816 0.938776 14.701 0.98823 14.7891 1.07626C14.8771 1.16428 14.9265 1.28368 14.9265 1.40816V10.7626L9.78534 15.9357C9.74296 15.9936 9.70529 16.0549 9.67269 16.1188L8.48185 19.7143H4.19774C4.07325 19.7143 3.95386 19.7638 3.86583 19.8518C3.77781 19.9398 3.72835 20.0592 3.72835 20.1837C3.72835 20.3082 3.77781 20.4276 3.86583 20.5156C3.95386 20.6036 4.07325 20.6531 4.19774 20.6531H8.5715C8.62627 20.6877 8.68814 20.7095 8.7525 20.7169C8.81686 20.7243 8.88207 20.7171 8.94326 20.6958L12.9011 19.3679C12.9647 19.335 13.0256 19.2972 13.0833 19.2548L14.9256 17.4007L14.9265 22.0612ZM21.6585 9.29764L21.3299 9.6295L19.351 7.63789L19.6796 7.30603C19.8093 7.17563 19.9634 7.07215 20.1332 7.00154C20.3031 6.93093 20.4851 6.89458 20.669 6.89458C20.8529 6.89458 21.035 6.93093 21.2048 7.00154C21.3747 7.07215 21.5288 7.17563 21.6585 7.30603C21.9206 7.5712 22.0676 7.929 22.0676 8.30184C22.0676 8.67467 21.9206 9.03247 21.6585 9.29764Z" fill="#0070F3"/>
<path d="M7.92981 7.04113C8.3946 7.04401 8.84978 6.90882 9.23764 6.65269C9.6255 6.39656 9.92858 6.03104 10.1084 5.60245C10.2883 5.17387 10.3369 4.70152 10.248 4.24531C10.1591 3.78909 9.93669 3.36955 9.60905 3.03986C9.28141 2.71018 8.86326 2.48521 8.4076 2.39346C7.95195 2.30172 7.47931 2.34734 7.04962 2.52454C6.61992 2.70174 6.25252 3.00254 5.99398 3.3888C5.73545 3.77506 5.59743 4.22939 5.59742 4.69419C5.59617 5.3145 5.84104 5.90997 6.2783 6.34996C6.71556 6.78995 7.3095 7.03852 7.92981 7.04113ZM7.92981 3.28602C8.20869 3.28426 8.48181 3.36534 8.71456 3.51899C8.9473 3.67265 9.12917 3.89195 9.23712 4.1491C9.34507 4.40625 9.37423 4.68966 9.32091 4.9634C9.26759 5.23714 9.13418 5.48888 8.93761 5.68671C8.74103 5.88454 8.49014 6.01955 8.21674 6.07461C7.94334 6.12967 7.65975 6.10231 7.40192 5.99599C7.1441 5.88968 6.92364 5.7092 6.76851 5.47744C6.61338 5.24568 6.53057 4.97307 6.53056 4.69419C6.52994 4.32207 6.67687 3.96489 6.93916 3.70092C7.20145 3.43696 7.55769 3.28776 7.92981 3.28602Z" fill="#0070F3"/>
<path d="M5.59728 11.735H10.2616C10.7595 11.735 11.2371 11.5372 11.5892 11.185C11.9413 10.8329 12.1391 10.3554 12.1391 9.85741C12.1391 9.35945 11.9413 8.88189 11.5892 8.52978C11.2371 8.17767 10.7595 7.97986 10.2616 7.97986H5.59728C5.09932 7.97986 4.62176 8.17767 4.26965 8.52978C3.91754 8.88189 3.71973 9.35945 3.71973 9.85741C3.71973 10.3554 3.91754 10.8329 4.26965 11.185C4.62176 11.5372 5.09932 11.735 5.59728 11.735ZM5.59728 8.91863H10.2616C10.5106 8.91863 10.7494 9.01754 10.9254 9.1936C11.1015 9.36965 11.2004 9.60843 11.2004 9.85741C11.2004 10.1064 11.1015 10.3452 10.9254 10.5212C10.7494 10.6973 10.5106 10.7962 10.2616 10.7962H5.59728C5.3483 10.7962 5.10952 10.6973 4.93346 10.5212C4.75741 10.3452 4.6585 10.1064 4.6585 9.85741C4.6585 9.60843 4.75741 9.36965 4.93346 9.1936C5.10952 9.01754 5.3483 8.91863 5.59728 8.91863Z" fill="#0070F3"/>
</svg>
