<svg width="60" height="60" viewBox="0 0 60 60" fill="none" xmlns="http://www.w3.org/2000/svg">
<rect width="60" height="60" fill="#DEF2FE"/>
<path d="M30 17.4994C36.8925 17.4994 42.5006 23.1075 42.5006 30C42.5006 36.8925 36.8925 42.5006 30 42.5006C23.1075 42.5006 17.4994 36.8925 17.4994 30C17.4994 23.1075 23.1075 17.4994 30 17.4994ZM30 15C21.7256 15 15 21.7256 15 30C15 38.2744 21.7256 45 30 45C38.2744 45 45 38.2744 45 30C45 21.7256 38.2744 15 30 15Z" fill="#009EF7"/>
<path d="M24.9506 32.8632C25.4381 33.3507 25.4381 34.1513 24.9506 34.6388C24.7013 34.8769 24.3881 35.0007 24.0638 35.0007C23.7394 35.0007 23.4263 34.8751 23.1769 34.6388L19.4269 30.8888C18.9394 30.4013 18.9394 29.6007 19.4269 29.1132L23.1769 25.3632C23.6644 24.8757 24.465 24.8757 24.9525 25.3632C25.44 25.8507 25.44 26.6513 24.9525 27.1388L22.0744 30.0001L24.9506 32.8632Z" fill="#009EF7"/>
<path d="M32.7619 25.0368L29.6363 35.6625C29.4282 36.3693 28.6763 36.7087 28.0857 36.5118C27.4238 36.3112 27.0357 35.625 27.2363 34.9612L30.3619 24.3356C30.5625 23.6737 31.2488 23.2987 31.9125 23.4862C32.5744 23.6868 32.9625 24.375 32.7619 25.0368Z" fill="#009EF7"/>
<path d="M40.575 30.8869L36.825 34.6368C36.5757 34.875 36.2625 34.9987 35.9382 34.9987C35.6138 34.9987 35.3007 34.8731 35.0513 34.6368C34.5638 34.1494 34.5638 33.3487 35.0513 32.8612L37.9257 30L35.0513 27.1369C34.5638 26.6494 34.5638 25.8487 35.0513 25.3612C35.5388 24.8737 36.3394 24.8737 36.8269 25.3612L40.5769 29.1112C41.0626 29.6006 41.0625 30.3994 40.575 30.8869Z" fill="#009EF7"/>
</svg>
