<svg width="55" height="56" viewBox="0 0 55 56" fill="none" xmlns="http://www.w3.org/2000/svg">
<path d="M25.7258 16.8562H18.6291C17.1593 16.8562 15.9678 18.0477 15.9678 19.5175V26.6143C15.9678 28.0841 17.1593 29.2756 18.6291 29.2756H25.7258C27.1956 29.2756 28.3871 28.0841 28.3871 26.6143V19.5175C28.3871 18.0477 27.1956 16.8562 25.7258 16.8562Z" fill="#BBCEFF"/>
<path d="M47.0163 37.2596H37.2582C36.7683 37.2596 36.3711 37.6567 36.3711 38.1467V47.9048C36.3711 48.3947 36.7683 48.7919 37.2582 48.7919H47.0163C47.5062 48.7919 47.9034 48.3947 47.9034 47.9048V38.1467C47.9034 37.6567 47.5062 37.2596 47.0163 37.2596Z" fill="#BBCEFF"/>
<path d="M52.3389 22.1789H31.9357C31.4652 22.1789 31.0139 22.3658 30.6812 22.6986C30.3484 23.0313 30.1615 23.4826 30.1615 23.9531V25.7273C30.1615 27.139 29.6007 28.4928 28.6026 29.491C27.6044 30.4891 26.2506 31.0499 24.8389 31.0499H23.0647C22.5942 31.0499 22.1429 31.2368 21.8102 31.5695C21.4775 31.9023 21.2905 32.3535 21.2905 32.8241V53.2273C21.2905 53.9332 21.5709 54.6101 22.07 55.1092C22.5691 55.6082 23.246 55.8886 23.9518 55.8886H52.3389C53.0448 55.8886 53.7217 55.6082 54.2208 55.1092C54.7198 54.6101 55.0002 53.9332 55.0002 53.2273V24.8402C55.0002 24.1344 54.7198 23.4575 54.2208 22.9584C53.7217 22.4593 53.0448 22.1789 52.3389 22.1789ZM49.6776 47.9048C49.6776 48.6106 49.3973 49.2875 48.8982 49.7866C48.3991 50.2857 47.7222 50.566 47.0164 50.566H37.2583C36.5525 50.566 35.8756 50.2857 35.3765 49.7866C34.8774 49.2875 34.597 48.6106 34.597 47.9048V38.1467C34.597 37.4409 34.8774 36.764 35.3765 36.2649C35.8756 35.7658 36.5525 35.4854 37.2583 35.4854H47.0164C47.7222 35.4854 48.3991 35.7658 48.8982 36.2649C49.3973 36.764 49.6776 37.4409 49.6776 38.1467V47.9048Z" fill="#BBCEFF"/>
<path d="M41.6936 0.888489H29.2742C28.5684 0.888489 27.8915 1.16887 27.3924 1.66796C26.8933 2.16705 26.6129 2.84396 26.6129 3.54978V8.87237H17.7419V3.54978C17.7419 2.84396 17.4616 2.16705 16.9625 1.66796C16.4634 1.16887 15.7865 0.888489 15.0807 0.888489H2.66129C1.95547 0.888489 1.27856 1.16887 0.779474 1.66796C0.280385 2.16705 0 2.84396 0 3.54978V15.9691C0 16.675 0.280385 17.3519 0.779474 17.851C1.27856 18.3501 1.95547 18.6304 2.66129 18.6304H7.98388V27.5014H2.66129C1.95547 27.5014 1.27856 27.7818 0.779474 28.2809C0.280385 28.78 0 29.4569 0 30.1627V42.5821C0 43.2879 0.280385 43.9648 0.779474 44.4639C1.27856 44.963 1.95547 45.2434 2.66129 45.2434H15.0807C15.7865 45.2434 16.4634 44.963 16.9625 44.4639C17.4616 43.9648 17.7419 43.2879 17.7419 42.5821V37.2595H26.6129V42.5821C26.6129 43.2879 26.8933 43.9648 27.3924 44.4639C27.8915 44.963 28.5684 45.2434 29.2742 45.2434H41.6936C42.3994 45.2434 43.0763 44.963 43.5754 44.4639C44.0745 43.9648 44.3549 43.2879 44.3549 42.5821V30.1627C44.3549 29.4569 44.0745 28.78 43.5754 28.2809C43.0763 27.7818 42.3994 27.5014 41.6936 27.5014H36.371V18.6304H41.6936C42.3994 18.6304 43.0763 18.3501 43.5754 17.851C44.0745 17.3519 44.3549 16.675 44.3549 15.9691V3.54978C44.3549 2.84396 44.0745 2.16705 43.5754 1.66796C43.0763 1.16887 42.3994 0.888489 41.6936 0.888489ZM2.66129 16.8562C2.42602 16.8562 2.20038 16.7628 2.03402 16.5964C1.86766 16.4301 1.77419 16.2044 1.77419 15.9691V3.54978C1.77419 3.31451 1.86766 3.08887 2.03402 2.92251C2.20038 2.75615 2.42602 2.66268 2.66129 2.66268H15.0807C15.3159 2.66268 15.5416 2.75615 15.7079 2.92251C15.8743 3.08887 15.9678 3.31451 15.9678 3.54978V15.9691C15.9678 16.2044 15.8743 16.4301 15.7079 16.5964C15.5416 16.7628 15.3159 16.8562 15.0807 16.8562H9.75807V9.75946C9.75807 9.52419 9.66461 9.29855 9.49825 9.13219C9.33188 8.96583 9.10625 8.87237 8.87097 8.87237C8.6357 8.87237 8.41007 8.96583 8.2437 9.13219C8.07734 9.29855 7.98388 9.52419 7.98388 9.75946V16.8562H2.66129ZM15.9678 42.5821C15.9678 42.8173 15.8743 43.043 15.7079 43.2093C15.5416 43.3757 15.3159 43.4692 15.0807 43.4692H2.66129C2.42602 43.4692 2.20038 43.3757 2.03402 43.2093C1.86766 43.043 1.77419 42.8173 1.77419 42.5821V30.1627C1.77419 29.9274 1.86766 29.7018 2.03402 29.5354C2.20038 29.3691 2.42602 29.2756 2.66129 29.2756H15.0807C15.3159 29.2756 15.5416 29.3691 15.7079 29.5354C15.8743 29.7018 15.9678 29.9274 15.9678 30.1627V35.4853H8.87097C8.6357 35.4853 8.41007 35.5788 8.2437 35.7451C8.07734 35.9115 7.98388 36.1371 7.98388 36.3724C7.98388 36.6077 8.07734 36.8333 8.2437 36.9997C8.41007 37.166 8.6357 37.2595 8.87097 37.2595H15.9678V42.5821ZM41.6936 29.2756C41.9289 29.2756 42.1545 29.3691 42.3209 29.5354C42.4872 29.7018 42.5807 29.9274 42.5807 30.1627V42.5821C42.5807 42.8173 42.4872 43.043 42.3209 43.2093C42.1545 43.3757 41.9289 43.4692 41.6936 43.4692H29.2742C29.0389 43.4692 28.8133 43.3757 28.6469 43.2093C28.4806 43.043 28.3871 42.8173 28.3871 42.5821V30.1627C28.3871 29.9274 28.4806 29.7018 28.6469 29.5354C28.8133 29.3691 29.0389 29.2756 29.2742 29.2756H34.5968V36.3724C34.5968 36.6077 34.6903 36.8333 34.8566 36.9997C35.023 37.166 35.2486 37.2595 35.4839 37.2595C35.7192 37.2595 35.9448 37.166 36.1112 36.9997C36.2775 36.8333 36.371 36.6077 36.371 36.3724V29.2756H41.6936ZM34.5968 27.5014H29.2742C28.5684 27.5014 27.8915 27.7818 27.3924 28.2809C26.8933 28.78 26.6129 29.4569 26.6129 30.1627V35.4853H17.7419V30.1627C17.7419 29.4569 17.4616 28.78 16.9625 28.2809C16.4634 27.7818 15.7865 27.5014 15.0807 27.5014H9.75807V18.6304H15.0807C15.7865 18.6304 16.4634 18.3501 16.9625 17.851C17.4616 17.3519 17.7419 16.675 17.7419 15.9691V10.6466H26.6129V15.9691C26.6129 16.675 26.8933 17.3519 27.3924 17.851C27.8915 18.3501 28.5684 18.6304 29.2742 18.6304H34.5968V27.5014ZM42.5807 15.9691C42.5807 16.2044 42.4872 16.4301 42.3209 16.5964C42.1545 16.7628 41.9289 16.8562 41.6936 16.8562H29.2742C29.0389 16.8562 28.8133 16.7628 28.6469 16.5964C28.4806 16.4301 28.3871 16.2044 28.3871 15.9691V10.6466H35.4839C35.7192 10.6466 35.9448 10.5531 36.1112 10.3867C36.2775 10.2204 36.371 9.99474 36.371 9.75946C36.371 9.52419 36.2775 9.29855 36.1112 9.13219C35.9448 8.96583 35.7192 8.87237 35.4839 8.87237H28.3871V3.54978C28.3871 3.31451 28.4806 3.08887 28.6469 2.92251C28.8133 2.75615 29.0389 2.66268 29.2742 2.66268H41.6936C41.9289 2.66268 42.1545 2.75615 42.3209 2.92251C42.4872 3.08887 42.5807 3.31451 42.5807 3.54978V15.9691Z" fill="#151A6A"/>
</svg>
