<svg width="55" height="55" viewBox="0 0 55 55" fill="none" xmlns="http://www.w3.org/2000/svg">
<path d="M43.4678 35.8242V40.878L47.9033 38.3435V33.2897L43.4678 35.8242Z" fill="#BBCEFF"/>
<path d="M47.002 31.7613L42.5807 29.2348L38.1594 31.7613L42.5807 34.2877L47.002 31.7613Z" fill="#BBCEFF"/>
<path d="M41.6935 35.8242L37.2581 33.2897V38.3435L41.6935 40.878V35.8242Z" fill="#BBCEFF"/>
<path d="M54.9998 21.1161C54.9998 19.7045 54.4391 18.3506 53.4409 17.3525C52.4427 16.3543 51.0889 15.7935 49.6773 15.7935H35.4837C34.0721 15.7935 32.7183 16.3543 31.7201 17.3525C30.7219 18.3506 30.1611 19.7045 30.1611 21.1161H54.9998Z" fill="#BBCEFF"/>
<path d="M30.1611 49.5032C30.1611 50.9148 30.7219 52.2687 31.7201 53.2668C32.7183 54.265 34.0721 54.8258 35.4837 54.8258H49.6773C51.0889 54.8258 52.4427 54.265 53.4409 53.2668C54.4391 52.2687 54.9998 50.9148 54.9998 49.5032H30.1611Z" fill="#BBCEFF"/>
<path d="M54.9998 22.8903H30.1611V47.729H54.9998V22.8903ZM49.2337 39.628L43.024 43.1764C42.89 43.253 42.7384 43.2932 42.584 43.2932C42.4297 43.2932 42.278 43.253 42.144 43.1764L35.9344 39.628C35.7979 39.5509 35.6844 39.4391 35.6052 39.3038C35.526 39.1686 35.4841 39.0147 35.4837 38.858V31.7613C35.4858 31.6057 35.5277 31.4534 35.6054 31.3186C35.683 31.1838 35.7938 31.0711 35.9273 30.9913L42.1369 27.4429C42.2709 27.3663 42.4226 27.3261 42.5769 27.3261C42.7313 27.3261 42.8829 27.3663 43.0169 27.4429L49.2266 30.9913C49.3597 31.0716 49.4702 31.1843 49.5478 31.319C49.6253 31.4537 49.6674 31.6059 49.6702 31.7613V38.858C49.6712 39.0134 49.6314 39.1662 49.5548 39.3014C49.4782 39.4365 49.3675 39.5491 49.2337 39.628Z" fill="#BBCEFF"/>
<path d="M42.8841 10.7513L23.3679 0.993213C23.002 0.810485 22.5989 0.714561 22.1899 0.712891H22.1774H22.165C21.7562 0.71401 21.353 0.809325 20.987 0.991439L1.47083 10.7495C1.02742 10.9694 0.654561 11.3093 0.394577 11.7305C0.134593 12.1517 -0.00209714 12.6373 2.43236e-05 13.1322V32.2297C-0.00159897 32.7242 0.135326 33.2092 0.395282 33.6299C0.655238 34.0506 1.02783 34.39 1.47083 34.6097L20.987 44.3678C21.3522 44.5495 21.7544 44.6448 22.1624 44.6464H22.1774C22.1774 44.6464 22.1872 44.6464 22.1925 44.6464C22.6004 44.6447 23.0024 44.5497 23.3679 44.3687L42.8841 34.6106C43.3272 34.3908 43.6999 34.0513 43.9598 33.6304C44.2198 33.2096 44.3567 32.7243 44.3549 32.2297V13.1322C44.3567 12.6376 44.2198 12.1523 43.9598 11.7315C43.6999 11.3107 43.3272 10.9711 42.8841 10.7513ZM21.3524 2.79491C21.4138 2.96448 21.5259 3.11103 21.6735 3.21461C21.8212 3.31818 21.9971 3.37375 22.1774 3.37375C22.3578 3.37375 22.5337 3.31818 22.6814 3.21461C22.829 3.11103 22.9411 2.96448 23.0024 2.79491L41.4842 12.0358L22.9102 21.3228C22.8345 21.196 22.7272 21.091 22.5987 21.0181C22.4703 20.9452 22.3251 20.9069 22.1774 20.9069C22.0298 20.9069 21.8846 20.9452 21.7562 21.0181C21.6277 21.091 21.5204 21.196 21.4447 21.3228L2.87067 12.0358L21.3524 2.79491ZM2.70478 33.2427C2.79863 33.0977 2.84672 32.9279 2.84279 32.7552C2.83887 32.5825 2.78313 32.415 2.6828 32.2744C2.58247 32.1338 2.44218 32.0266 2.28016 31.9667C2.11814 31.9069 1.94186 31.8971 1.77422 31.9387V13.4711L20.5354 22.8513C20.4995 22.9734 20.4913 23.1021 20.5115 23.2278C20.5317 23.3535 20.5797 23.4731 20.6521 23.5779C20.7245 23.6826 20.8193 23.7699 20.9298 23.8333C21.0402 23.8967 21.1634 23.9345 21.2903 23.9442V42.536L2.70478 33.2427ZM23.0645 42.536V23.9548C23.1917 23.944 23.3149 23.9051 23.4252 23.8409C23.5355 23.7767 23.6302 23.6888 23.7025 23.5836C23.7747 23.4783 23.8226 23.3584 23.8429 23.2324C23.8631 23.1063 23.8551 22.9774 23.8195 22.8548L42.5807 13.4711V31.9387C42.413 31.8971 42.2368 31.9069 42.0747 31.9667C41.9127 32.0266 41.7724 32.1338 41.6721 32.2744C41.5718 32.415 41.516 32.5825 41.5121 32.7552C41.5082 32.9279 41.5563 33.0977 41.6501 33.2427L23.0645 42.536Z" fill="#151A6A"/>
<path d="M28.665 24.9307L26.8997 24.0436C26.6893 23.9383 26.4456 23.921 26.2224 23.9953C25.9991 24.0697 25.8145 24.2297 25.7092 24.4402C25.604 24.6506 25.5866 24.8943 25.6609 25.1175C25.7353 25.3408 25.8953 25.5254 26.1058 25.6306L27.872 26.5177C27.9763 26.5709 28.0901 26.6029 28.2068 26.6118C28.3236 26.6208 28.4409 26.6065 28.5521 26.5699C28.6633 26.5333 28.7662 26.475 28.8548 26.3985C28.9433 26.3219 29.0159 26.2286 29.0682 26.1239C29.1206 26.0191 29.1517 25.9051 29.1597 25.7883C29.1677 25.6715 29.1526 25.5542 29.1151 25.4433C29.0776 25.3324 29.0186 25.23 28.9413 25.142C28.8641 25.0541 28.7702 24.9822 28.665 24.9307Z" fill="#151A6A"/>
<path d="M33.9626 27.5814L32.1964 26.6943C31.9858 26.5891 31.7421 26.5719 31.5188 26.6464C31.2955 26.721 31.111 26.8811 31.0059 27.0917C30.9007 27.3023 30.8835 27.546 30.958 27.7693C31.0326 27.9925 31.1927 28.177 31.4033 28.2822L33.1686 29.1649C33.2916 29.2258 33.427 29.2577 33.5643 29.258C33.7641 29.2582 33.9581 29.1909 34.1149 29.067C34.2718 28.9432 34.3822 28.77 34.4283 28.5755C34.4744 28.3811 34.4534 28.1768 34.3689 27.9957C34.2844 27.8146 34.1412 27.6674 33.9626 27.5778V27.5814Z" fill="#151A6A"/>
<path d="M39.2595 30.2293L37.4942 29.3422C37.2838 29.2369 37.0401 29.2196 36.8168 29.2939C36.5936 29.3683 36.409 29.5283 36.3037 29.7388C36.1984 29.9492 36.1811 30.1929 36.2554 30.4161C36.3298 30.6394 36.4898 30.824 36.7003 30.9293L38.4665 31.8163C38.677 31.9215 38.9208 31.9387 39.144 31.8642C39.2546 31.8273 39.3568 31.769 39.4448 31.6926C39.5328 31.6162 39.6049 31.5232 39.6569 31.4189C39.709 31.3147 39.74 31.2012 39.7483 31.0849C39.7565 30.9687 39.7417 30.8519 39.7048 30.7414C39.6679 30.6308 39.6096 30.5286 39.5332 30.4406C39.4568 30.3526 39.3638 30.2805 39.2595 30.2284V30.2293Z" fill="#151A6A"/>
<path d="M12.1586 26.6978L10.3924 27.5849C10.2882 27.637 10.1953 27.7092 10.1189 27.7972C10.0426 27.8853 9.98439 27.9875 9.94757 28.098C9.91075 28.2086 9.89606 28.3253 9.90435 28.4415C9.91263 28.5577 9.94373 28.6712 9.99586 28.7754C10.048 28.8796 10.1201 28.9725 10.2082 29.0488C10.2962 29.1252 10.3984 29.1834 10.509 29.2202C10.6195 29.257 10.7362 29.2717 10.8525 29.2634C10.9687 29.2552 11.0821 29.2241 11.1863 29.1719L12.9517 28.2893C13.0559 28.2372 13.1489 28.1651 13.2253 28.0771C13.3017 27.9891 13.36 27.8869 13.3969 27.7763C13.4338 27.6658 13.4486 27.5491 13.4404 27.4328C13.4322 27.3165 13.4012 27.203 13.3491 27.0988C13.297 26.9945 13.2249 26.9015 13.1369 26.8251C13.0489 26.7487 12.9467 26.6904 12.8362 26.6535C12.6129 26.579 12.3692 26.5962 12.1586 26.7014V26.6978Z" fill="#151A6A"/>
<path d="M17.4556 24.0498L15.6903 24.9369C15.5117 25.0264 15.3686 25.1736 15.284 25.3546C15.1995 25.5356 15.1785 25.7398 15.2245 25.9342C15.2705 26.1286 15.3807 26.3018 15.5374 26.4257C15.6941 26.5496 15.888 26.6171 16.0877 26.6171C16.2251 26.6174 16.3606 26.5855 16.4834 26.5239L18.2496 25.6368C18.3538 25.5847 18.4467 25.5126 18.523 25.4245C18.5993 25.3365 18.6576 25.2343 18.6944 25.1237C18.7312 25.0132 18.7459 24.8965 18.7376 24.7802C18.7293 24.664 18.6982 24.5506 18.6461 24.4463C18.594 24.3421 18.5218 24.2492 18.4338 24.1729C18.3457 24.0966 18.2435 24.0383 18.133 24.0015C18.0224 23.9647 17.9057 23.95 17.7895 23.9583C17.6733 23.9666 17.5598 23.9977 17.4556 24.0498Z" fill="#151A6A"/>
<path d="M6.8609 29.3467L5.09558 30.2338C4.91699 30.3233 4.77384 30.4705 4.68931 30.6515C4.60477 30.8325 4.5838 31.0367 4.62978 31.2311C4.67576 31.4255 4.78601 31.5986 4.94267 31.7226C5.09933 31.8465 5.29324 31.914 5.49299 31.914C5.62999 31.9157 5.76549 31.8853 5.88864 31.8253L7.65485 30.9382C7.8653 30.8329 8.02531 30.6483 8.09967 30.425C8.17404 30.2018 8.15667 29.9581 8.05138 29.7477C7.9461 29.5372 7.76152 29.3772 7.53826 29.3029C7.31501 29.2285 7.07135 29.2459 6.8609 29.3511V29.3467Z" fill="#151A6A"/>
<path d="M22.1776 19.1708C22.4129 19.1708 22.6385 19.0773 22.8049 18.911C22.9713 18.7446 23.0647 18.519 23.0647 18.2837V16.5281C23.0647 16.2929 22.9713 16.0672 22.8049 15.9009C22.6385 15.7345 22.4129 15.6411 22.1776 15.6411C21.9424 15.6411 21.7167 15.7345 21.5504 15.9009C21.384 16.0672 21.2905 16.2929 21.2905 16.5281V18.2837C21.2905 18.519 21.384 18.7446 21.5504 18.911C21.7167 19.0773 21.9424 19.1708 22.1776 19.1708Z" fill="#151A6A"/>
<path d="M22.1776 13.905C22.4129 13.905 22.6385 13.8115 22.8049 13.6452C22.9713 13.4788 23.0647 13.2532 23.0647 13.0179V11.2632C23.0647 11.028 22.9713 10.8023 22.8049 10.636C22.6385 10.4696 22.4129 10.3761 22.1776 10.3761C21.9424 10.3761 21.7167 10.4696 21.5504 10.636C21.384 10.8023 21.2905 11.028 21.2905 11.2632V13.0179C21.2905 13.2532 21.384 13.4788 21.5504 13.6452C21.7167 13.8115 21.9424 13.905 22.1776 13.905Z" fill="#151A6A"/>
<path d="M22.1776 8.64008C22.4129 8.64008 22.6385 8.54662 22.8049 8.38025C22.9713 8.21389 23.0647 7.98826 23.0647 7.75298V5.99742C23.0647 5.76215 22.9713 5.53651 22.8049 5.37015C22.6385 5.20378 22.4129 5.11032 22.1776 5.11032C21.9424 5.11032 21.7167 5.20378 21.5504 5.37015C21.384 5.53651 21.2905 5.76215 21.2905 5.99742V7.75298C21.2905 7.98826 21.384 8.21389 21.5504 8.38025C21.7167 8.54662 21.9424 8.64008 22.1776 8.64008Z" fill="#151A6A"/>
</svg>
