<svg width="16" height="22" viewBox="0 0 16 22" fill="none" xmlns="http://www.w3.org/2000/svg">
<path d="M15.6554 2.34898L13.1041 0.0943469C13.0355 0.0334673 12.947 0 12.8554 0H0.375736C0.168327 0 0 0.168107 0 0.375736V21.0432C0 21.2508 0.168327 21.4189 0.375736 21.4189H15.4066C15.614 21.4189 15.7824 21.2508 15.7824 21.0432V2.63037C15.7825 2.5226 15.7362 2.42021 15.6554 2.34898ZM15.0309 20.6675H0.751472V0.751583H12.7132L15.0309 2.79991V20.6675Z" fill="#0070F3"/>
<path d="M15.6515 2.34546L13.0211 0.0908272C12.9099 -0.00495084 12.7534 -0.0266385 12.6194 0.0346815C12.4862 0.0958913 12.4006 0.2291 12.4006 0.375849V2.63049C12.4006 2.83812 12.569 3.00622 12.7764 3.00622H15.4067C15.5641 3.00622 15.7045 2.90835 15.7593 2.76083C15.8137 2.61342 15.7709 2.44752 15.6515 2.34546ZM13.1521 2.25475V1.19283L14.3911 2.25475H13.1521Z" fill="#0070F3"/>
<path d="M9.39441 14.655H6.38819C6.18078 14.655 6.01245 14.8231 6.01245 15.0308C6.01245 15.2384 6.18078 15.4065 6.38819 15.4065H9.39441C9.60182 15.4065 9.77014 15.2384 9.77014 15.0308C9.77014 14.8231 9.60182 14.655 9.39441 14.655Z" fill="#0070F3"/>
<path d="M11.6493 6.38818H4.13379C3.92638 6.38818 3.75806 6.5564 3.75806 6.76392C3.75806 6.97155 3.92638 7.13966 4.13379 7.13966H11.6493C11.8567 7.13966 12.025 6.97155 12.025 6.76392C12.025 6.55629 11.8567 6.38818 11.6493 6.38818Z" fill="#0070F3"/>
<path d="M7.89112 6.76416C7.68371 6.76416 7.51538 6.93227 7.51538 7.1399V15.0311C7.51538 15.2388 7.68371 15.4069 7.89112 15.4069C8.09853 15.4069 8.26685 15.2388 8.26685 15.0311V7.1399C8.26685 6.93227 8.09853 6.76416 7.89112 6.76416Z" fill="#0070F3"/>
<path d="M4.1338 6.38818C3.92639 6.38818 3.75806 6.55629 3.75806 6.76392V7.89124C3.75806 8.09887 3.92639 8.26697 4.1338 8.26697C4.34121 8.26697 4.50953 8.09887 4.50953 7.89124V6.76392C4.50964 6.55629 4.34132 6.38818 4.1338 6.38818Z" fill="#0070F3"/>
<path d="M11.6492 6.38818C11.4418 6.38818 11.2734 6.55629 11.2734 6.76392V7.89124C11.2734 8.09887 11.4418 8.26697 11.6492 8.26697C11.8566 8.26697 12.0249 8.09887 12.0249 7.89124V6.76392C12.0249 6.55629 11.8566 6.38818 11.6492 6.38818Z" fill="#0070F3"/>
</svg>
