<svg width="64" height="41" viewBox="0 0 64 41" fill="none" xmlns="http://www.w3.org/2000/svg">
<path d="M36.0953 30C36.0952 30 36.0952 30 36.0953 30C35.5234 30 35.0338 29.6305 34.877 29.0806C34.5618 27.9755 33.7138 27.1275 32.6086 26.8122C32.0588 26.6553 31.6893 26.1658 31.6892 25.594C31.6892 25.0221 32.0586 24.5325 32.6085 24.3756C33.7137 24.0603 34.5617 23.2124 34.877 22.1073C35.0338 21.5573 35.5235 21.1879 36.0953 21.1879H36.0954C36.6672 21.1879 37.1568 21.5573 37.3136 22.1073C37.6289 23.2124 38.4768 24.0604 39.582 24.3756C40.132 24.5326 40.5014 25.0222 40.5014 25.5941C40.5014 26.1658 40.1319 26.6554 39.582 26.8123C38.4769 27.1275 37.6289 27.9755 37.3137 29.0807C37.1567 29.6305 36.6671 30 36.0953 30ZM34.5259 25.5939C35.1572 25.9975 35.6917 26.5319 36.0953 27.1632C36.4989 26.532 37.0333 25.9975 37.6646 25.5939C37.0333 25.1903 36.4989 24.6558 36.0953 24.0245C35.6917 24.6559 35.1572 25.1903 34.5259 25.5939Z" fill="white"/>
<path d="M24.7565 24.3595C24.3677 22.9963 23.3216 21.9504 21.9585 21.5615C20.682 21.1973 20.679 19.3825 21.9585 19.0176C23.3216 18.6288 24.3676 17.5828 24.7565 16.2197C25.1206 14.943 26.9355 14.9402 27.3004 16.2196C27.6892 17.5827 28.7351 18.6287 30.0983 19.0175C31.3749 19.3816 31.3776 21.1965 30.0983 21.5614C28.7351 21.9502 27.6892 22.9962 27.3003 24.3594C26.9363 25.6359 25.1215 25.6389 24.7565 24.3595ZM23.8407 20.2895C24.752 20.8133 25.5048 21.5661 26.0285 22.4774C26.5523 21.5661 27.3051 20.8133 28.2164 20.2895C27.3051 19.7658 26.5523 19.013 26.0285 18.1017C25.5048 19.013 24.752 19.7658 23.8407 20.2895Z" fill="white"/>
<path d="M36.1454 17.0995C35.7565 15.7363 34.7106 14.6904 33.3474 14.3014C32.071 13.9374 32.0679 12.1226 33.3474 11.7576C34.7105 11.3687 35.7565 10.3227 36.1454 8.95965C36.5104 7.68026 38.3242 7.67997 38.6892 8.95965C39.078 10.3227 40.124 11.3688 41.4872 11.7576C42.7637 12.1218 42.7667 13.9365 41.4872 14.3014C40.1241 14.6903 39.078 15.7363 38.6892 17.0995C38.3242 18.3788 36.5104 18.3791 36.1454 17.0995ZM35.2295 13.0295C36.1408 13.5533 36.8935 14.306 37.4173 15.2174C37.941 14.306 38.6938 13.5533 39.6051 13.0295C38.6939 12.5058 37.9411 11.753 37.4174 10.8417C36.8936 11.753 36.1408 12.5058 35.2295 13.0295Z" fill="white"/>
<path d="M1.36434 12.1618C0.624434 12.1618 0.0246582 11.562 0.0246582 10.8221V5.07445C0.0246582 2.27639 2.30105 0 5.09911 0H10.8466C11.5865 0 12.1863 0.599776 12.1863 1.33968C12.1863 2.07959 11.5865 2.67937 10.8466 2.67937H5.09911C3.77845 2.67937 2.70389 3.75379 2.70389 5.07445V10.822C2.70403 11.562 2.10425 12.1618 1.36434 12.1618Z" fill="#77B6FF"/>
<path d="M62.6602 12.1618C61.9203 12.1618 61.3205 11.562 61.3205 10.8221V5.07445C61.3205 3.75379 60.246 2.67937 58.9253 2.67937H53.1778C52.4379 2.67937 51.8381 2.07959 51.8381 1.33968C51.8381 0.599776 52.4379 0 53.1778 0H58.9253C61.7235 0 63.9999 2.27639 63.9999 5.07445V10.822C63.9999 11.562 63.4001 12.1618 62.6602 12.1618Z" fill="#77B6FF"/>
<path d="M58.9253 40.1616H53.1778C52.4379 40.1616 51.8381 39.5619 51.8381 38.822C51.8381 38.0821 52.4379 37.4823 53.1778 37.4823H58.9253C60.246 37.4823 61.3205 36.4079 61.3205 35.0872V29.3397C61.3205 28.5998 61.9203 28 62.6602 28C63.4001 28 63.9999 28.5998 63.9999 29.3397V35.0872C63.9998 37.8853 61.7234 40.1616 58.9253 40.1616Z" fill="#77B6FF"/>
<path d="M10.8458 40.1616H5.09827C2.30007 40.1616 0.0236816 37.8853 0.0236816 35.0872V29.3397C0.0236816 28.5998 0.623458 28 1.36337 28C2.10327 28 2.70305 28.5998 2.70305 29.3397V35.0872C2.70305 36.4079 3.77761 37.4823 5.09827 37.4823H10.8458C11.5857 37.4823 12.1855 38.0821 12.1855 38.822C12.1855 39.5619 11.5857 40.1616 10.8458 40.1616Z" fill="#77B6FF"/>
</svg>
