<svg width="65" height="65" viewBox="0 0 65 65" fill="none" xmlns="http://www.w3.org/2000/svg">
<path d="M32.5 65C50.4493 65 65 50.4493 65 32.5C65 14.5507 50.4493 0 32.5 0C14.5507 0 0 14.5507 0 32.5C0 50.4493 14.5507 65 32.5 65Z" fill="white"/>
<path d="M64.8254 35.8889L50.1247 21.1883L15.8455 54.6187L25.463 64.2363C27.7289 64.7363 30.0836 65 32.4999 65C49.3048 65 63.1307 52.2455 64.8254 35.8889Z" fill="#EBEBEB"/>
<path d="M38.273 9.33752H18.3121C16.4138 9.33752 14.875 10.8765 14.875 12.7747V52.2271C14.875 54.1254 16.4138 55.6642 18.3121 55.6642H46.6874C48.5857 55.6642 50.1245 54.1253 50.1245 52.2271V21.1892L43.5436 16.1935L38.273 9.33752Z" fill="#4D9CD0"/>
<path d="M38.273 9.33664H32.5151V55.6635H46.6876C48.5859 55.6635 50.1247 54.1246 50.1247 52.2264V21.1883L43.4334 16.3029L38.273 9.33664Z" fill="#3488BF"/>
<path d="M38.2729 17.7511C38.2729 19.6494 39.8117 21.1882 41.7101 21.1882H50.1247L38.2729 9.33652V17.7511Z" fill="#4D9CD0"/>
<path d="M21.8306 38.5535H25.2207V42.3621H21.8306V38.5535Z" fill="white"/>
<path d="M27.1418 38.5535H32.5153V42.3621H27.1418V38.5535Z" fill="white"/>
<path d="M32.5154 38.5535H43.1694V42.3621H32.5154V38.5535Z" fill="white"/>
<path d="M21.8306 45.7496H25.2207V49.5582H21.8306V45.7496Z" fill="white"/>
<path d="M27.1418 45.7496H32.5153V49.5582H27.1418V45.7496Z" fill="white"/>
<path d="M32.5154 45.7496H43.1694V49.5582H32.5154V45.7496Z" fill="white"/>
<path d="M21.8306 31.3574H25.2207V35.166H21.8306V31.3574Z" fill="white"/>
<path d="M27.1418 31.3574H43.1693V35.166H27.1418V31.3574Z" fill="white"/>
<path d="M32.5154 38.5535H43.1694V42.3621H32.5154V38.5535Z" fill="#E9EDF5"/>
<path d="M32.5154 45.7496H43.1694V49.5582H32.5154V45.7496Z" fill="#E9EDF5"/>
<path d="M32.5154 31.3574H43.1694V35.166H32.5154V31.3574Z" fill="#E9EDF5"/>
</svg>
