<svg width="27" height="22" viewBox="0 0 27 22" fill="none" xmlns="http://www.w3.org/2000/svg">
<path d="M22.6453 17.1932V4.29834H4.35498V17.1932H22.6453ZM11.8845 10.7724C12.2443 9.973 13.0493 9.45628 13.9356 9.45628C14.8219 9.45628 15.627 9.973 15.9872 10.7724L18.4912 16.3335H9.38006L11.8845 10.7724ZM8.4268 16.3335H5.40839L6.99978 11.936C7.16436 11.4812 7.60325 11.1756 8.09274 11.1756C8.55778 11.1756 8.97625 11.448 9.15976 11.8703L9.78641 13.314L8.4268 16.3335ZM21.7743 5.158V16.3335H19.4445L16.7829 10.423C16.2834 9.31356 15.166 8.59662 13.9356 8.59662C12.7053 8.59662 11.5879 9.31356 11.0884 10.423L10.2689 12.2428L9.96013 11.5315C9.63947 10.793 8.90672 10.3159 8.09274 10.3159C7.23666 10.3159 6.46754 10.8507 6.17921 11.6468L5.22595 14.2816V5.158H21.7743Z" fill="#0070F3"/>
<path d="M27 2.57897V1.71931H25.2581V0H24.3871V1.71931H2.6129V0H1.74194V1.71931H0V2.57897H1.74194V18.9124H0V19.7721H1.74194V21.4914H2.6129V19.7721H24.3871V21.4914H25.2581V19.7721H27V18.9124H25.2581V2.57897H27ZM24.3871 18.9124H2.6129V2.57897H24.3871V18.9124Z" fill="#0070F3"/>
<path d="M19.1611 9.4562C20.1218 9.4562 20.9031 8.68512 20.9031 7.73689C20.9031 6.78867 20.1218 6.01758 19.1611 6.01758C18.2004 6.01758 17.4192 6.78867 17.4192 7.73689C17.4192 8.68512 18.2004 9.4562 19.1611 9.4562ZM19.1611 6.87723C19.6415 6.87723 20.0321 7.26278 20.0321 7.73689C20.0321 8.211 19.6415 8.59655 19.1611 8.59655C18.6808 8.59655 18.2902 8.211 18.2902 7.73689C18.2902 7.26278 18.6808 6.87723 19.1611 6.87723Z" fill="#0070F3"/>
</svg>
