<svg width="60" height="60" viewBox="0 0 60 60" fill="none" xmlns="http://www.w3.org/2000/svg">
<rect width="60" height="60" fill="#DEF2FE"/>
<path d="M43.7494 38.6875H16.2506C15.5587 38.6875 15 39.2463 15 39.9381C15 40.6281 15.5606 41.1888 16.2506 41.1888H43.7512C44.4412 41.1888 45.0019 40.63 45.0019 39.9381C45 39.2463 44.4412 38.6875 43.7494 38.6875Z" fill="#009EF7"/>
<path d="M20.0005 25.2494C20.0005 25.5738 20.0511 25.8869 20.1261 26.1869H20.0005V38.6875H17.4993V26.1869C17.4993 24.8125 18.6243 23.6875 19.9986 23.6875V25.2494H20.0005Z" fill="#009EF7"/>
<path d="M42.5006 26.1869V38.6875H40.0012V23.6875C41.3756 23.6875 42.5006 24.8125 42.5006 26.1869Z" fill="#009EF7"/>
<path d="M27.8119 30.0007C26.2612 30.0007 24.9994 28.7388 24.9994 27.1882C24.9994 26.2038 25.5187 25.2888 26.3531 24.8032C26.8012 24.5444 27.375 24.6963 27.6356 25.1426C27.8962 25.5907 27.7444 26.1644 27.2962 26.4251C27.0319 26.5788 26.8744 26.8638 26.8744 27.1901C26.8744 27.7076 27.2962 28.1276 27.8119 28.1276C28.3275 28.1276 28.7494 27.7076 28.7494 27.1901C28.7494 27.0551 28.7231 26.9426 28.6706 26.8413C28.4287 26.3838 28.6031 25.8157 29.0606 25.5738C29.5162 25.3301 30.0844 25.5063 30.3281 25.9638C30.525 26.3369 30.6244 26.7494 30.6244 27.1901C30.6244 28.7388 29.3625 30.0007 27.8119 30.0007Z" fill="#009EF7"/>
<path d="M36.5625 29.4044C36.4744 29.4044 36.3862 29.3913 36.2981 29.3669L23.1731 25.525C22.7738 25.4069 22.5 25.0413 22.5 24.625V22.75C22.5 22.3319 22.7775 21.9625 23.1806 21.8482L36.3056 18.0982C36.5869 18.0194 36.8944 18.0738 37.1269 18.2519C37.3613 18.4282 37.5 18.7057 37.5 19V28.4669C37.5 28.7632 37.3612 29.0407 37.1231 29.2169C36.96 29.3407 36.7631 29.4044 36.5625 29.4044Z" fill="#009EF7"/>
<path d="M36.5625 29.937C36.045 29.937 35.625 29.517 35.625 28.9995V18.3757C35.625 17.8582 36.045 17.4382 36.5625 17.4382C37.08 17.4382 37.5 17.8582 37.5 18.3757V29.0014C37.5 29.517 37.08 29.937 36.5625 29.937Z" fill="#009EF7"/>
<path d="M23.4375 26.187C22.92 26.187 22.5 25.767 22.5 25.2495V22.1257C22.5 21.6082 22.92 21.1882 23.4375 21.1882C23.955 21.1882 24.375 21.6082 24.375 22.1257V25.2514C24.375 25.767 23.955 26.187 23.4375 26.187Z" fill="#009EF7"/>
</svg>
