<svg width="2000" height="852" viewBox="0 0 2000 852" fill="none" xmlns="http://www.w3.org/2000/svg">
<path d="M8 587H1999V851.636H8V587Z" fill="#FF1B1B"/>
<path d="M238.116 744.657H224.212L211.342 783.176H192.458L205.329 744.657H185.318L188.325 727.465H210.966L219.327 702.663H199.41L202.511 685.471H225.058L238.116 646.389H256.906L243.847 685.471H257.845L270.904 646.389H289.787L276.729 685.471H297.491L294.484 702.663H271.092L262.73 727.465H283.305L280.299 744.657H257L244.223 783.176H225.34L238.116 744.657ZM229.849 727.465H243.753L252.208 702.663H238.21L229.849 727.465Z" fill="white"/>
<path d="M348.312 785.055C339.231 784.992 331.12 782.862 323.98 778.666C316.903 774.407 311.548 768.52 307.915 761.004C304.282 753.426 302.842 745.096 303.594 736.014L303.875 733.384C305.566 716.661 311.36 703.446 321.256 693.738C331.214 683.968 343.396 679.271 357.801 679.646C366.507 679.772 373.96 681.995 380.16 686.317C386.361 690.575 390.901 696.494 393.782 704.072C396.663 711.588 397.603 720.043 396.601 729.438L394.816 742.309H334.314C334.439 747.632 335.943 751.954 338.824 755.273C341.705 758.593 345.901 760.347 351.412 760.534C360.369 760.785 368.417 757.34 375.557 750.2L388.521 767.393C384.701 772.841 379.346 777.132 372.457 780.263C365.63 783.332 358.145 784.929 350.003 785.055H348.312ZM355.828 703.979C351.444 703.853 347.623 705.231 344.366 708.112C341.172 710.993 338.385 715.816 336.005 722.58H366.914L367.477 719.856C367.853 717.663 367.916 715.597 367.665 713.655C366.6 707.392 362.655 704.166 355.828 703.979Z" fill="white"/>
<path d="M448.831 745.127L474.291 681.525H507.642L459.541 783.176H428.069L411.816 681.525H443.57L448.831 745.127Z" fill="white"/>
<path d="M553.296 785.055C544.215 784.992 536.104 782.862 528.964 778.666C521.887 774.407 516.532 768.52 512.899 761.004C509.267 753.426 507.826 745.096 508.578 736.014L508.86 733.384C510.551 716.661 516.344 703.446 526.24 693.738C536.198 683.968 548.38 679.271 562.785 679.646C571.491 679.772 578.944 681.995 585.144 686.317C591.345 690.575 595.886 696.494 598.767 704.072C601.648 711.588 602.587 720.043 601.585 729.438L599.8 742.309H539.298C539.424 747.632 540.927 751.954 543.808 755.273C546.689 758.593 550.885 760.347 556.397 760.534C565.353 760.785 573.401 757.34 580.541 750.2L593.506 767.393C589.685 772.841 584.33 777.132 577.441 780.263C570.614 783.332 563.13 784.929 554.988 785.055H553.296ZM560.812 703.979C556.428 703.853 552.608 705.231 549.351 708.112C546.157 710.993 543.369 715.816 540.989 722.58H571.898L572.462 719.856C572.837 717.663 572.9 715.597 572.65 713.655C571.585 707.392 567.639 704.166 560.812 703.979Z" fill="white"/>
<path d="M682.563 710.179C679.244 709.678 676.05 709.365 672.981 709.24C663.711 708.989 656.634 712.183 651.749 718.822L640.287 783.176H609.379L627.041 681.525L655.883 681.431L653.534 694.772C660.173 684.5 668.002 679.364 677.021 679.364C679.588 679.364 682.783 679.803 686.603 680.68L682.563 710.179Z" fill="white"/>
<path d="M733.197 738.457L759.502 681.525H793.605L734.042 798.395C729.596 807.602 724.46 814.241 718.635 818.312C712.873 822.445 705.984 824.512 697.967 824.512C694.397 824.512 689.856 823.823 684.345 822.445L686.693 799.804H690.263C694.084 799.804 697.435 799.178 700.316 797.925C703.197 796.735 705.608 794.387 707.549 790.879L711.965 782.424L695.712 681.525H727.654L733.197 738.457Z" fill="white"/>
<path d="M791.816 732.163C793.758 716.129 798.643 703.29 806.472 693.644C814.301 683.999 824.509 679.333 837.098 679.646C845.741 679.897 852.913 683.529 858.612 690.544L868.477 638.873H899.479L874.489 783.176H846.963L848.278 772.184C840.7 781.077 832.276 785.399 823.006 785.148C813.236 785.023 805.564 781.422 799.989 774.345C794.478 767.205 791.534 757.653 791.158 745.691C791.033 741.745 791.158 737.893 791.534 734.135L791.816 732.163ZM822.631 734.229C822.13 738.238 821.91 741.745 821.973 744.751C821.973 755.148 825.48 760.441 832.495 760.628C838.57 760.816 843.988 757.904 848.748 751.891L855.7 712.903C853.633 707.141 849.499 704.166 843.299 703.979C837.537 703.853 832.871 706.358 829.301 711.494C825.793 716.567 823.57 724.146 822.631 734.229Z" fill="white"/>
<path d="M953.87 783.176C952.994 780.733 952.555 777.664 952.555 773.969C945.603 781.61 937.304 785.305 927.659 785.055C918.828 784.929 911.5 781.986 905.676 776.224C899.851 770.461 897.127 763.478 897.502 755.273C897.815 744.25 902.419 735.795 911.312 729.908C920.206 723.958 932.357 720.983 947.764 720.983L958.098 721.171L959.225 715.44L959.601 710.461C959.351 704.761 956.501 701.818 951.052 701.63C944.288 701.505 940.123 705.231 938.557 712.81L907.555 712.903C907.868 706.077 910.091 700.158 914.225 695.148C918.358 690.074 923.964 686.191 931.041 683.498C938.181 680.742 945.76 679.458 953.776 679.646C961.48 679.834 968.213 681.463 973.975 684.532C979.8 687.538 984.152 691.765 987.034 697.214C989.915 702.601 991.011 708.832 990.322 715.91L982.712 763.729L982.242 769.553C981.992 774.188 982.587 778.134 984.027 781.391L983.933 783.176H953.87ZM936.208 762.695C942.534 762.946 948.077 760.159 952.837 754.334L955.937 737.987L947.952 737.893C943.004 738.019 938.745 739.49 935.175 742.309C931.605 745.065 929.507 748.854 928.88 753.676C928.567 756.244 929.037 758.374 930.29 760.065C931.605 761.693 933.578 762.57 936.208 762.695Z" fill="white"/>
<path d="M1045.56 738.457L1071.86 681.525H1105.97L1046.4 798.395C1041.96 807.602 1036.82 814.241 1031 818.312C1025.23 822.445 1018.35 824.512 1010.33 824.512C1006.76 824.512 1002.22 823.823 996.706 822.445L999.055 799.804H1002.62C1006.45 799.804 1009.8 799.178 1012.68 797.925C1015.56 796.735 1017.97 794.387 1019.91 790.879L1024.33 782.424L1008.07 681.525H1040.02L1045.56 738.457Z" fill="white"/>
<path d="M1200.85 732.444C1199.53 743.092 1196.75 752.58 1192.49 760.91C1188.23 769.178 1182.94 775.347 1176.61 779.418C1170.35 783.426 1163.33 785.336 1155.57 785.148C1146.67 784.898 1139.47 781.391 1133.96 774.626L1124.75 822.257H1093.84L1118.27 681.525L1146.83 681.431L1145.23 691.108C1152.06 683.216 1160.11 679.396 1169.38 679.646C1179.27 679.772 1186.98 683.31 1192.49 690.262C1198.06 697.214 1201.04 706.703 1201.41 718.728C1201.54 722.611 1201.35 727.183 1200.85 732.444ZM1170.79 719.856C1170.47 709.521 1166.97 704.26 1160.26 704.072C1153.75 703.697 1148.33 706.358 1144.01 712.058L1136.78 752.361C1138.72 757.81 1143.04 760.597 1149.74 760.722C1160.7 760.91 1167.44 751.484 1169.94 732.444C1170.5 726.432 1170.79 722.235 1170.79 719.856Z" fill="white"/>
<path d="M1269.52 679.646C1278.6 679.772 1286.46 682.058 1293.1 686.504C1299.74 690.889 1304.59 697.026 1307.66 704.918C1310.79 712.81 1311.92 721.578 1311.04 731.223L1310.86 733.29C1309.1 748.885 1303.31 761.474 1293.48 771.056C1283.64 780.639 1271.49 785.305 1257.03 785.055C1248.01 784.929 1240.21 782.706 1233.63 778.384C1227.06 774 1222.17 767.894 1218.98 760.065C1215.85 752.236 1214.72 743.53 1215.59 733.948C1217.16 717.288 1222.86 704.01 1232.69 694.114C1242.59 684.218 1254.86 679.396 1269.52 679.646ZM1246.5 733.948L1246.22 739.49C1245.34 753.457 1249.6 760.566 1259 760.816C1271.15 761.192 1278.19 751.328 1280.14 731.223L1280.51 722.674C1280.64 717.037 1279.57 712.559 1277.32 709.24C1275.13 705.857 1271.87 704.104 1267.55 703.979C1261.85 703.791 1257.15 706.139 1253.46 711.025C1249.82 715.847 1247.51 723.488 1246.5 733.948Z" fill="white"/>
<path d="M1393.24 710.179C1389.92 709.678 1386.73 709.365 1383.66 709.24C1374.39 708.989 1367.31 712.183 1362.43 718.822L1350.97 783.176H1320.06L1337.72 681.525L1366.56 681.431L1364.21 694.772C1370.85 684.5 1378.68 679.364 1387.7 679.364C1390.27 679.364 1393.46 679.803 1397.28 680.68L1393.24 710.179Z" fill="white"/>
<path d="M1468.87 710.179C1465.55 709.678 1462.35 709.365 1459.29 709.24C1450.02 708.989 1442.94 712.183 1438.05 718.822L1426.59 783.176H1395.68L1413.35 681.525L1442.19 681.431L1439.84 694.772C1446.48 684.5 1454.31 679.364 1463.32 679.364C1465.89 679.364 1469.09 679.803 1472.91 680.68L1468.87 710.179Z" fill="white"/>
<path d="M1525.61 783.176C1524.73 780.733 1524.29 777.664 1524.29 773.969C1517.34 781.61 1509.04 785.305 1499.4 785.055C1490.57 784.929 1483.24 781.986 1477.41 776.224C1471.59 770.461 1468.86 763.478 1469.24 755.273C1469.55 744.25 1474.16 735.795 1483.05 729.908C1491.94 723.958 1504.09 720.983 1519.5 720.983L1529.84 721.171L1530.96 715.44L1531.34 710.461C1531.09 704.761 1528.24 701.818 1522.79 701.63C1516.03 701.505 1511.86 705.231 1510.29 712.81L1479.29 712.903C1479.61 706.077 1481.83 700.158 1485.96 695.148C1490.1 690.074 1495.7 686.191 1502.78 683.498C1509.92 680.742 1517.5 679.458 1525.51 679.646C1533.22 679.834 1539.95 681.463 1545.71 684.532C1551.54 687.538 1555.89 691.765 1558.77 697.214C1561.65 702.601 1562.75 708.832 1562.06 715.91L1554.45 763.729L1553.98 769.553C1553.73 774.188 1554.32 778.134 1555.76 781.391L1555.67 783.176H1525.61ZM1507.95 762.695C1514.27 762.946 1519.81 760.159 1524.57 754.334L1527.67 737.987L1519.69 737.893C1514.74 738.019 1510.48 739.49 1506.91 742.309C1503.34 745.065 1501.24 748.854 1500.62 753.676C1500.3 756.244 1500.77 758.374 1502.03 760.065C1503.34 761.693 1505.32 762.57 1507.95 762.695Z" fill="white"/>
<path d="M1577.18 732.163C1579.12 716.129 1584.01 703.29 1591.84 693.644C1599.67 683.999 1609.87 679.333 1622.46 679.646C1631.11 679.897 1638.28 683.529 1643.98 690.544L1653.84 638.873H1684.84L1659.85 783.176H1632.33L1633.64 772.184C1626.06 781.077 1617.64 785.399 1608.37 785.148C1598.6 785.023 1590.93 781.422 1585.35 774.345C1579.84 767.205 1576.9 757.653 1576.52 745.691C1576.4 741.745 1576.52 737.893 1576.9 734.135L1577.18 732.163ZM1608 734.229C1607.49 738.238 1607.28 741.745 1607.34 744.751C1607.34 755.148 1610.84 760.441 1617.86 760.628C1623.93 760.816 1629.35 757.904 1634.11 751.891L1641.06 712.903C1639 707.141 1634.86 704.166 1628.66 703.979C1622.9 703.853 1618.24 706.358 1614.67 711.494C1611.16 716.567 1608.93 724.146 1608 734.229Z" fill="white"/>
<path d="M1739.24 783.176C1738.36 780.733 1737.92 777.664 1737.92 773.969C1730.97 781.61 1722.67 785.305 1713.02 785.055C1704.19 784.929 1696.87 781.986 1691.04 776.224C1685.22 770.461 1682.49 763.478 1682.87 755.273C1683.18 744.25 1687.78 735.795 1696.68 729.908C1705.57 723.958 1717.72 720.983 1733.13 720.983L1743.46 721.171L1744.59 715.44L1744.97 710.461C1744.72 704.761 1741.87 701.818 1736.42 701.63C1729.65 701.505 1725.49 705.231 1723.92 712.81L1692.92 712.903C1693.23 706.077 1695.46 700.158 1699.59 695.148C1703.72 690.074 1709.33 686.191 1716.41 683.498C1723.55 680.742 1731.12 679.458 1739.14 679.646C1746.84 679.834 1753.58 681.463 1759.34 684.532C1765.16 687.538 1769.52 691.765 1772.4 697.214C1775.28 702.601 1776.38 708.832 1775.69 715.91L1768.08 763.729L1767.61 769.553C1767.36 774.188 1767.95 778.134 1769.39 781.391L1769.3 783.176H1739.24ZM1721.57 762.695C1727.9 762.946 1733.44 760.159 1738.2 754.334L1741.3 737.987L1733.32 737.893C1728.37 738.019 1724.11 739.49 1720.54 742.309C1716.97 745.065 1714.87 748.854 1714.25 753.676C1713.93 756.244 1714.4 758.374 1715.65 760.065C1716.97 761.693 1718.94 762.57 1721.57 762.695Z" fill="white"/>
<path fill-rule="evenodd" clip-rule="evenodd" d="M382.32 508.529C380.411 516.841 378.508 525.157 376.604 533.474C319.878 538.162 265.385 539.168 208.498 538.665C181.038 537.356 153.584 536.053 126.129 534.749C102.299 533.64 78.468 532.526 54.6318 531.417C37.8436 530.628 21.0504 529.839 4.25075 529.05C-2.24275 519.716 -1.22002 515.492 6.79398 508.741C27.7893 508.261 48.7789 507.78 69.7628 507.3C102.03 506.117 134.286 504.94 166.548 503.757C183.845 503.299 201.147 502.836 218.444 502.379C250.552 502.436 282.654 502.499 314.755 502.556C324.827 503.122 334.898 503.688 344.97 504.253C357.42 505.677 369.871 507.106 382.32 508.529V508.529Z" fill="white"/>
<path fill-rule="evenodd" clip-rule="evenodd" d="M498.35 507.483L500.201 515.8L498.229 526.112L447.853 527.941L389.412 530.021L394.185 509.512L498.35 507.483Z" fill="white"/>
<path fill-rule="evenodd" clip-rule="evenodd" d="M495.975 523.377C518.873 553.381 568.724 531.506 589.971 520.033C594.853 517.015 599.739 513.997 604.621 510.973C572.091 518.399 548.088 490.613 513.123 499.713C506.258 502.433 501.566 504.365 496.124 508.487C496.073 513.454 496.02 518.415 495.975 523.377V523.377Z" fill="white"/>
<path fill-rule="evenodd" clip-rule="evenodd" d="M589.772 515.193C572.858 514.736 558.562 507.63 542.711 503.623C536.6 502.177 532.919 501.794 526.511 501.92C525.191 502.137 523.865 502.354 522.545 502.577C520.721 503.012 518.898 503.446 517.074 503.881C535.955 507.933 560.945 519.8 579.939 518.828C585.318 518.091 585.839 518.005 589.772 515.193Z" fill="white"/>
<path d="M1026.05 327.99V390.873H874.457C803.463 390.873 753.292 378.126 723.957 352.632C694.628 327.144 679.961 287.206 679.961 232.823V0H783.491V214.697V236.224C783.491 265.302 790.516 287.869 804.567 303.92C818.617 319.971 850.541 327.99 900.334 327.99H1026.05V327.99ZM1506.74 0V237.355V257.185C1506.74 295.329 1492.93 327.899 1465.33 354.902C1437.72 381.905 1379.05 395.406 1289.32 395.406C1210.94 395.406 1154.73 384.643 1120.71 363.116C1086.7 341.589 1069.68 303.634 1069.68 249.251V0H1172.47V235.092V254.35C1172.47 276.631 1179.87 295.608 1194.66 311.282C1209.46 326.956 1241.01 334.792 1289.32 334.792C1332.71 334.792 1362.53 327.425 1378.8 312.7C1395.07 297.969 1403.2 272.098 1403.2 235.092V0H1506.74V0ZM1826.95 190.34L2000 390.873H1875.75L1768.53 254.916L1654.64 390.873H1531.14L1706.41 195.439L1537.06 0H1659.08L1764.09 124.063L1867.62 0H1988.16L1826.95 190.34V190.34Z" fill="white"/>
<path d="M748.17 446.932V514.216H785.543V446.932H800.976V516.76L789.441 528.529H748.337L740.368 519.938L732.577 528.529H691.467L679.766 516.76V446.932H695.205V514.216H732.731V446.932H748.17ZM807.315 516.76V458.701L819.016 446.932H869.387L880.916 458.701V494.175H822.754V514.216H880.595L866.134 528.529H819.016L807.315 516.76V516.76ZM822.754 461.251V479.857H865.482V461.251H822.754ZM898.145 516.76V414.167L913.578 422.598V446.932H957.609L969.796 458.701V516.76L958.58 528.529H909.999L898.145 516.76V516.76ZM913.578 461.251V514.216H954.362V461.251H913.578ZM982.634 494.81V480.497H1022.77V494.81H982.634ZM1108.23 422.598V517.394L1096.37 528.529H1047.95L1036.58 516.76V458.701L1048.92 446.932H1092.95V414.167L1108.23 422.598V422.598ZM1092.95 514.216V461.251H1052.02V514.216H1092.95ZM1125.45 516.76V458.701L1137.15 446.932H1187.52L1199.05 458.701V494.175H1140.89V514.216H1198.73L1184.27 528.529H1137.15L1125.45 516.76V516.76ZM1140.89 461.251V479.857H1183.62V461.251H1140.89ZM1272.17 514.216V493.855H1227.49L1215.95 482.086V458.701L1227.49 446.932H1296.71L1282.24 461.251H1231.39V479.542H1276.07L1287.61 491.472V516.76L1276.07 528.529H1207.35L1221.8 514.216H1272.17V514.216ZM1307.11 528.529V446.932H1322.54V528.529H1307.11ZM1307.11 438.821V421.964H1322.54V438.821H1307.11ZM1343.17 501.172V458.701L1355.85 446.932H1414.82V533.937L1403.29 545.706H1358.93L1344.48 531.393H1399.56V512.941H1355.85L1343.17 501.172V501.172ZM1358.61 461.251V498.628H1399.56V461.251H1358.61ZM1432.05 528.529V458.701L1443.75 446.932H1494.12L1505.65 458.701V528.529H1490.22V461.251H1447.49V528.529H1432.05ZM1627.51 514.216V493.855H1582.83L1571.3 482.086V458.701L1582.83 446.932H1652.05L1637.59 461.251H1586.74V479.542H1631.41L1642.95 491.472V516.76L1631.41 528.529H1562.69L1577.14 514.216H1627.51V514.216ZM1664.07 528.529V461.251H1655.14V446.932H1664.07V422.598L1679.51 429.755V446.932H1698.19L1690.72 461.251H1679.51V514.216H1699.49L1684.71 528.529H1664.07ZM1780.89 446.932V516.76L1769.37 528.529H1719L1707.29 516.76V446.932H1722.73V514.216H1765.46V446.932H1780.89ZM1867.82 422.598V517.394L1855.96 528.529H1807.54L1796.17 516.76V458.701L1808.52 446.932H1852.55V414.167L1867.82 422.598V422.598ZM1852.55 514.216V461.251H1811.61V514.216H1852.55ZM1888.95 528.529V446.932H1904.38V528.529H1888.95ZM1888.95 438.821V421.964H1904.38V438.821H1888.95ZM1925.02 516.76V458.701L1936.72 446.932H1987.09L1998.62 458.701V516.76L1987.09 528.529H1936.72L1925.02 516.76ZM1940.45 461.251V514.216H1983.18V461.251H1940.45Z" fill="white"/>
<path d="M504.988 3.12598L535.128 14.1524L533.162 40.2751L529.236 62.9107L521.37 96.5788L511.544 135.471L506.302 154.631C504.113 161.594 501.163 174.169 497.453 192.358C493.738 210.546 490.354 227.769 487.302 244.02C481.614 283.107 478.779 311.939 478.779 330.511C478.779 346.767 481.186 355.084 485.982 355.473H491.229L537.09 331.677L541.027 336.318L479.436 417.007L406.048 430.354L405.396 417.584L404.086 396.686C404.086 372.695 407.357 341.737 413.913 303.811C416.971 286.011 420.464 268.885 424.396 252.44C428.329 235.995 432.479 220.996 436.846 207.454L461.745 139.535C477.47 99.6766 486.645 73.7483 489.263 61.7502L491.88 45.4995L491.229 40.8579L448.638 72.1994L404.738 110.515L345.771 166.241L277.08 237.635H415.874L409.328 251.571C404.086 252.343 400.149 253.309 397.531 254.469L367.395 264.918C350.79 270.726 333.755 275.367 316.287 278.848C298.813 282.335 280.681 284.073 261.898 284.073H237.663C236.782 284.073 236.13 284.267 235.69 284.656C231.763 286.976 227.825 290.075 223.898 293.944L197.032 323.548C186.555 336.707 170.172 354.312 147.891 376.371C125.615 398.429 107.267 415.264 92.8562 426.873C81.4983 436.545 68.8255 445.639 54.8496 454.156C42.6171 460.735 33.8831 464.411 28.6415 465.182C27.3325 463.639 26.4579 462.284 26.0234 461.118C23.3997 457.248 21.2158 452.995 19.4667 448.348L10.9494 409.456L7.67383 372.89C7.67383 366.699 9.5317 362.246 13.2415 359.537C16.9569 356.827 23.8342 355.473 33.8831 355.473C52.2318 355.473 61.3997 358.765 61.3997 365.344C61.3997 372.307 60.5308 377.045 58.7817 379.566C57.0326 382.081 52.8831 383.528 46.3324 383.916C42.3997 384.694 40.4388 386.431 40.4388 389.141C40.4388 393.01 42.3997 397.269 46.3324 401.91L49.608 403.071C52.2317 403.071 56.3812 401.139 62.0573 397.269L107.266 361.858C131.291 342.898 165.582 310.39 210.134 264.341L237.005 237.635L263.213 210.352L341.839 132.573L383.772 95.4183L430.296 56.5259L466.981 29.2487L504.988 3.12598V3.12598Z" fill="white"/>
</svg>
