<svg width="21" height="21" viewBox="0 0 21 21" fill="none" xmlns="http://www.w3.org/2000/svg">
<path d="M12.2453 1.40051C16.3031 1.40051 19.5925 4.68997 19.5925 8.74773C19.5925 12.8055 16.3031 16.0949 12.2453 16.0949C8.18755 16.0949 4.89809 12.8055 4.89809 8.74773C4.90251 4.6918 8.18938 1.40493 12.2453 1.40051ZM12.2453 2.10025C10.0842 2.10195 8.05901 3.15523 6.81676 4.92368L7.69143 5.79835C7.90428 5.66955 8.14797 5.60063 8.39677 5.59892C9.16967 5.59892 9.79624 6.22549 9.79624 6.99839C9.79501 7.24746 9.72648 7.49153 9.59786 7.70478L11.8888 9.99571C12.3226 9.73121 12.8678 9.73121 13.3016 9.99571L14.8928 8.40451C14.7641 8.19127 14.6956 7.94719 14.6944 7.69813C14.6934 6.92676 15.3179 6.30067 16.0893 6.29971C16.7272 6.29892 17.2846 6.73044 17.4436 7.34826H18.7417C18.0792 4.28924 15.3752 2.10484 12.2453 2.10025ZM7.69703 6.99839C7.69703 7.38487 8.01029 7.69813 8.39677 7.69813C8.78324 7.69813 9.0965 7.38487 9.0965 6.99839C9.0965 6.61192 8.78324 6.29866 8.39677 6.29866C8.01029 6.29866 7.69703 6.61192 7.69703 6.99839ZM11.8954 11.1968C11.8954 11.5833 12.2087 11.8965 12.5952 11.8965C12.9817 11.8965 13.2949 11.5833 13.2949 11.1968C13.2949 10.8103 12.9817 10.4971 12.5952 10.4971C12.2087 10.4971 11.8954 10.8103 11.8954 11.1968ZM15.3941 7.69813C15.3941 8.0846 15.7074 8.39786 16.0939 8.39786C16.4803 8.39786 16.7936 8.0846 16.7936 7.69813C16.7936 7.31166 16.4803 6.99839 16.0939 6.99839C15.7074 6.99839 15.3941 7.31166 15.3941 7.69813ZM9.01542 14.5602C10.0034 15.1088 11.1152 15.3962 12.2453 15.3952C15.9141 15.3977 18.8903 12.4256 18.8928 8.75678C18.893 8.52001 18.8805 8.28337 18.8554 8.04795H17.4436C17.2846 8.66394 16.73 9.09515 16.0939 9.09755C15.8448 9.09633 15.6007 9.0278 15.3875 8.89918L13.7963 10.4904C13.9249 10.7036 13.9934 10.9477 13.9946 11.1968C13.9946 11.9697 13.3681 12.5962 12.5952 12.5962C11.8223 12.5962 11.1957 11.9697 11.1957 11.1968C11.1969 10.9477 11.2655 10.7036 11.3941 10.4904L9.10315 8.19944C8.8899 8.32806 8.64583 8.3966 8.39677 8.39782C7.62387 8.39782 6.9973 7.77125 6.9973 6.99835C6.99852 6.74929 7.06705 6.50521 7.19567 6.29197L6.43296 5.52961C4.65235 8.73649 5.80858 12.7796 9.01542 14.5602Z" fill="#0070F3"/>
<path d="M3.49868 3.4998C2.86249 3.49739 2.30795 3.06623 2.14889 2.4502H0V1.75046H2.14889C2.30795 1.13443 2.86249 0.703264 3.49868 0.700859C4.27158 0.700859 4.89815 1.32743 4.89815 2.10033C4.89692 2.34939 4.82839 2.59347 4.69977 2.80671L5.31449 3.42143C8.25578 -0.410539 13.7466 -1.13258 17.5786 1.80871C21.4105 4.75001 22.1326 10.2409 19.1913 14.0728C16.4149 17.6899 11.3256 18.5673 7.49836 16.0887L6.44246 17.1446L5.94775 17.6393L3.13132 20.4558C2.415 21.1721 1.25371 21.1721 0.537397 20.4558C-0.178913 19.7395 -0.178913 18.5782 0.537397 17.8619L3.35383 15.0454L3.84854 14.5507L4.90444 13.4948C3.03007 10.6077 3.03007 6.88796 4.90444 4.00081L4.20471 3.30107C3.9916 3.42974 3.74761 3.4984 3.49868 3.4998ZM3.49868 1.40059C3.1122 1.40059 2.79894 1.71386 2.79894 2.10033C2.79894 2.4868 3.1122 2.80006 3.49868 2.80006C3.88515 2.80006 4.19841 2.4868 4.19841 2.10033C4.19841 1.71386 3.88511 1.40059 3.49868 1.40059ZM1.03211 18.3566C0.584017 18.7946 0.57584 19.513 1.01387 19.9611C1.45191 20.4092 2.17027 20.4173 2.61837 19.9793C2.62453 19.9733 2.63057 19.9672 2.6366 19.9611L5.45304 17.1446L3.84854 15.5401L1.03211 18.3566ZM4.34326 15.0454L5.94775 16.6499L6.91618 15.6815C6.86685 15.6437 6.82067 15.6021 6.77204 15.5632C6.7234 15.5244 6.66708 15.4779 6.61495 15.4341C6.53833 15.3698 6.46275 15.3047 6.38858 15.2379C6.35045 15.2029 6.31406 15.1679 6.27662 15.1329C6.13318 14.9985 5.99428 14.8596 5.85993 14.7162C5.82495 14.6788 5.78996 14.6424 5.75497 14.6042C5.68815 14.5301 5.62307 14.4545 5.5587 14.3779C5.51483 14.3261 5.4718 14.2738 5.42959 14.2208C5.39111 14.1725 5.34947 14.1263 5.31169 14.077L4.34326 15.0454ZM5.70004 13.4203C5.81025 13.5742 5.92396 13.725 6.04396 13.8702C6.07895 13.9126 6.11638 13.9535 6.15242 13.9951C6.25948 14.1197 6.37004 14.2405 6.4841 14.3576C6.53378 14.4089 6.58429 14.4594 6.63559 14.5091C6.75222 14.6231 6.87302 14.7337 6.99805 14.8408C7.03969 14.8757 7.08062 14.9139 7.12295 14.9492C7.26815 15.0692 7.41894 15.1829 7.57288 15.2931C11.1947 17.8806 16.2284 17.0421 18.8159 13.4203C21.4034 9.79847 20.5649 4.76479 16.943 2.1773C13.3212 -0.410189 8.28753 0.428268 5.70004 4.05014C3.69788 6.85267 3.69788 10.6178 5.70004 13.4203Z" fill="#0070F3"/>
</svg>
