<svg width="22" height="22" viewBox="0 0 22 22" fill="none" xmlns="http://www.w3.org/2000/svg">
<path d="M13.9742 0.340088C9.73615 0.340088 6.28838 3.78786 6.28838 8.02588C6.28838 9.48234 6.69572 10.8455 7.40247 12.0075L6.63773 12.7722L5.83666 11.9711L5.34267 12.4651L6.14374 13.2662L0.536259 18.8737C0.190398 19.2195 0 19.6793 0 20.1687C0 21.1784 0.821681 22 1.83131 22C2.32041 22 2.78051 21.8096 3.12637 21.4638L8.73385 15.8563L9.53492 16.6574L10.0289 16.1634L9.22784 15.3623L9.99258 14.5976C11.1545 15.3043 12.5177 15.7117 13.9742 15.7117C18.2122 15.7117 21.66 12.2639 21.66 8.02588C21.66 3.78786 18.2122 0.340088 13.9742 0.340088ZM2.63238 20.9698C2.41858 21.1836 2.13386 21.3013 1.83131 21.3013C1.20667 21.3013 0.698708 20.7934 0.698708 20.1687C0.698708 19.8662 0.816441 19.5815 1.03025 19.3677L6.63773 13.7602L8.23987 15.3623L2.63238 20.9698ZM8.73385 14.8683L7.13172 13.2662L7.80038 12.5975C8.25279 13.2068 8.79324 13.7473 9.40252 14.1997L8.73385 14.8683ZM13.9742 15.013C10.1215 15.013 6.98708 11.8786 6.98708 8.02588C6.98708 4.1732 10.1215 1.0388 13.9742 1.0388C17.8268 1.0388 20.9613 4.1732 20.9613 8.02588C20.9613 11.8786 17.8268 15.013 13.9742 15.013Z" fill="#0070F3"/>
<path d="M13.9742 2.08679C10.6993 2.08679 8.03516 4.75097 8.03516 8.02581C8.03516 11.3007 10.6993 13.9648 13.9742 13.9648C17.249 13.9648 19.9132 11.3007 19.9132 8.02581C19.9132 4.75097 17.249 2.08679 13.9742 2.08679ZM13.9742 13.2661C11.0847 13.2661 8.73386 10.9153 8.73386 8.02581C8.73386 5.1363 11.0847 2.7855 13.9742 2.7855C16.8637 2.7855 19.2145 5.1363 19.2145 8.02581C19.2145 10.9153 16.8637 13.2661 13.9742 13.2661Z" fill="#0070F3"/>
<path d="M17.4631 9.627L18.0983 9.91836C18.2642 9.55643 18.3819 9.17424 18.448 8.78261L17.7587 8.66663C17.7031 8.99781 17.6039 9.32097 17.4631 9.627Z" fill="#0070F3"/>
<path d="M18.5157 8.02586C18.5157 5.52169 16.4783 3.48425 13.9741 3.48425V4.18296C16.093 4.18296 17.817 5.90702 17.817 8.02586H18.5157Z" fill="#0070F3"/>
</svg>
