<svg width="379" height="140" viewBox="0 0 379 140" fill="none" xmlns="http://www.w3.org/2000/svg">
<path d="M41.6 107.4C34.2667 107.4 27.6667 105.867 21.8 102.8C16 99.6667 11.4333 95.3333 8.1 89.8C4.76667 84.2667 3.1 78 3.1 71C3.1 64 4.76667 57.7333 8.1 52.2C11.4333 46.6667 16 42.3667 21.8 39.3C27.6667 36.1667 34.2667 34.6 41.6 34.6C48 34.6 53.7667 35.7333 58.9 38C64.0333 40.2667 68.3 43.5333 71.7 47.8L59.1 59.2C54.5667 53.7333 49.0667 51 42.6 51C38.8 51 35.4 51.8333 32.4 53.5C29.4667 55.1667 27.1667 57.5333 25.5 60.6C23.9 63.6 23.1 67.0667 23.1 71C23.1 74.9333 23.9 78.4333 25.5 81.5C27.1667 84.5 29.4667 86.8333 32.4 88.5C35.4 90.1667 38.8 91 42.6 91C49.0667 91 54.5667 88.2667 59.1 82.8L71.7 94.2C68.3 98.4667 64.0333 101.733 58.9 104C53.7667 106.267 48 107.4 41.6 107.4ZM126.48 66.9H109.08V106H90.1797V66.9H72.6797V51.8H126.48V66.9ZM155.941 50.9C164.941 50.9 171.808 52.9667 176.541 57.1C181.275 61.1667 183.641 67.4333 183.641 75.9V106H165.941V99C163.208 104.267 157.875 106.9 149.941 106.9C145.741 106.9 142.108 106.167 139.041 104.7C135.975 103.233 133.641 101.267 132.041 98.8C130.508 96.2667 129.741 93.4 129.741 90.2C129.741 85.0667 131.708 81.1 135.641 78.3C139.575 75.4333 145.641 74 153.841 74H164.641C164.308 68.2667 160.475 65.4 153.141 65.4C150.541 65.4 147.908 65.8333 145.241 66.7C142.575 67.5 140.308 68.6333 138.441 70.1L132.041 57.2C135.041 55.2 138.675 53.6667 142.941 52.6C147.275 51.4667 151.608 50.9 155.941 50.9ZM155.241 94.9C157.441 94.9 159.375 94.3667 161.041 93.3C162.708 92.2333 163.908 90.6667 164.641 88.6V83.9H156.441C150.908 83.9 148.141 85.7333 148.141 89.4C148.141 91.0667 148.775 92.4 150.041 93.4C151.308 94.4 153.041 94.9 155.241 94.9ZM243.472 66.9H226.072V106H207.172V66.9H189.672V51.8H243.472V66.9ZM282.634 68.6C289.834 68.6667 295.334 70.2667 299.134 73.4C302.934 76.5333 304.834 81 304.834 86.8C304.834 92.8 302.634 97.5333 298.234 101C293.9 104.4 287.9 106.067 280.234 106H250.834V51.8H269.734V68.6H282.634ZM278.334 93C283.134 93 285.534 90.8333 285.534 86.5C285.534 84.3667 284.934 82.8 283.734 81.8C282.534 80.8 280.734 80.2667 278.334 80.2H269.734V92.9L278.334 93ZM312.943 51.8H331.843V80.2L354.543 51.8H372.043V106H353.043V77.5L330.543 106H312.943V51.8Z" fill="#F0F0F0"/>
<path d="M11.704 80.336C9.70667 80.336 7.896 79.9067 6.272 79.048C4.66667 78.1707 3.39733 76.9667 2.464 75.436C1.54933 73.8867 1.092 72.1413 1.092 70.2C1.092 68.2587 1.54933 66.5227 2.464 64.992C3.39733 63.4427 4.66667 62.2387 6.272 61.38C7.896 60.5027 9.716 60.064 11.732 60.064C13.4307 60.064 14.9613 60.3627 16.324 60.96C17.7053 61.5573 18.8627 62.416 19.796 63.536L16.884 66.224C15.5587 64.6933 13.916 63.928 11.956 63.928C10.7427 63.928 9.66 64.1987 8.708 64.74C7.756 65.2627 7.00933 66 6.468 66.952C5.94533 67.904 5.684 68.9867 5.684 70.2C5.684 71.4133 5.94533 72.496 6.468 73.448C7.00933 74.4 7.756 75.1467 8.708 75.688C9.66 76.2107 10.7427 76.472 11.956 76.472C13.916 76.472 15.5587 75.6973 16.884 74.148L19.796 76.836C18.8627 77.9747 17.7053 78.8427 16.324 79.44C14.9427 80.0373 13.4027 80.336 11.704 80.336ZM34.6623 68.52H29.5663V80H25.2263V68.52H20.1303V64.936H34.6623V68.52ZM42.8426 64.712C45.176 64.712 46.968 65.272 48.2186 66.392C49.4693 67.4933 50.0946 69.164 50.0946 71.404V80H46.0066V78.124C45.1853 79.524 43.6546 80.224 41.4146 80.224C40.2573 80.224 39.2493 80.028 38.3906 79.636C37.5506 79.244 36.9066 78.7027 36.4586 78.012C36.0106 77.3213 35.7866 76.5373 35.7866 75.66C35.7866 74.26 36.3093 73.1587 37.3546 72.356C38.4186 71.5533 40.052 71.152 42.2546 71.152H45.7266C45.7266 70.2 45.4373 69.472 44.8586 68.968C44.28 68.4453 43.412 68.184 42.2546 68.184C41.452 68.184 40.6586 68.3147 39.8746 68.576C39.1093 68.8187 38.456 69.1547 37.9146 69.584L36.3466 66.532C37.168 65.9533 38.148 65.5053 39.2866 65.188C40.444 64.8707 41.6293 64.712 42.8426 64.712ZM42.5066 77.284C43.2533 77.284 43.916 77.116 44.4946 76.78C45.0733 76.4253 45.484 75.912 45.7266 75.24V73.7H42.7306C40.9386 73.7 40.0426 74.288 40.0426 75.464C40.0426 76.024 40.2573 76.472 40.6866 76.808C41.1346 77.1253 41.7413 77.284 42.5066 77.284ZM66.5451 68.52H61.4491V80H57.1091V68.52H52.0131V64.936H66.5451V68.52ZM77.0214 69.752C78.9814 69.7707 80.4841 70.2187 81.5294 71.096C82.5748 71.9547 83.0974 73.1773 83.0974 74.764C83.0974 76.4253 82.5094 77.7227 81.3334 78.656C80.1761 79.5707 78.5428 80.028 76.4334 80.028L68.8734 80V64.936H73.2134V69.752H77.0214ZM76.0414 76.92C76.8814 76.9387 77.5254 76.7613 77.9734 76.388C78.4214 76.0147 78.6454 75.4547 78.6454 74.708C78.6454 73.98 78.4214 73.448 77.9734 73.112C77.5441 72.776 76.9001 72.5987 76.0414 72.58L73.2134 72.552V76.92H76.0414ZM85.8266 64.936H90.1666V73.896L97.5026 64.936H101.507V80H97.1666V71.04L89.8586 80H85.8266V64.936Z" fill="#0F0E0E"/>
</svg>
