<svg width="20" height="14" viewBox="0 0 20 14" fill="none" xmlns="http://www.w3.org/2000/svg">
<path d="M9.99967 4.5C9.33663 4.5 8.70075 4.76339 8.23191 5.23223C7.76307 5.70107 7.49967 6.33696 7.49967 7C7.49967 7.66304 7.76307 8.29893 8.23191 8.76777C8.70075 9.23661 9.33663 9.5 9.99967 9.5C10.6627 9.5 11.2986 9.23661 11.7674 8.76777C12.2363 8.29893 12.4997 7.66304 12.4997 7C12.4997 6.33696 12.2363 5.70107 11.7674 5.23223C11.2986 4.76339 10.6627 4.5 9.99967 4.5ZM9.99967 11.1667C8.8946 11.1667 7.8348 10.7277 7.0534 9.94628C6.27199 9.16488 5.83301 8.10507 5.83301 7C5.83301 5.89493 6.27199 4.83512 7.0534 4.05372C7.8348 3.27232 8.8946 2.83333 9.99967 2.83333C11.1047 2.83333 12.1645 3.27232 12.946 4.05372C13.7274 4.83512 14.1663 5.89493 14.1663 7C14.1663 8.10507 13.7274 9.16488 12.946 9.94628C12.1645 10.7277 11.1047 11.1667 9.99967 11.1667ZM9.99967 0.75C5.83301 0.75 2.27467 3.34167 0.833008 7C2.27467 10.6583 5.83301 13.25 9.99967 13.25C14.1663 13.25 17.7247 10.6583 19.1663 7C17.7247 3.34167 14.1663 0.75 9.99967 0.75Z" fill="#009EF7"/>
</svg>
