<svg width="28" height="28" viewBox="0 0 28 28" fill="none" xmlns="http://www.w3.org/2000/svg">
<circle cx="14" cy="14" r="14" fill="#009EF7"/>
<path fill-rule="evenodd" clip-rule="evenodd" d="M20 14C20 14.1989 19.921 14.3897 19.7803 14.5303C19.6397 14.671 19.4489 14.75 19.25 14.75L10.5605 14.75L13.781 17.969C13.9218 18.1098 14.0009 18.3008 14.0009 18.5C14.0009 18.6992 13.9218 18.8902 13.781 19.031C13.6402 19.1718 13.4492 19.2509 13.25 19.2509C13.0508 19.2509 12.8598 19.1718 12.719 19.031L8.219 14.531C8.14915 14.4613 8.09374 14.3786 8.05593 14.2874C8.01812 14.1963 7.99866 14.0986 7.99866 14C7.99866 13.9013 8.01812 13.8037 8.05593 13.7125C8.09374 13.6214 8.14915 13.5387 8.219 13.469L12.719 8.96899C12.8598 8.82816 13.0508 8.74904 13.25 8.74904C13.4492 8.74904 13.6402 8.82816 13.781 8.96899C13.9218 9.10982 14.0009 9.30083 14.0009 9.49999C14.0009 9.69915 13.9218 9.89016 13.781 10.031L10.5605 13.25L19.25 13.25C19.4489 13.25 19.6397 13.329 19.7803 13.4697C19.921 13.6103 20 13.8011 20 14Z" fill="white"/>
</svg>
