<svg width="28" height="28" viewBox="0 0 28 28" fill="none" xmlns="http://www.w3.org/2000/svg">
<circle cx="14" cy="14" r="14" transform="rotate(-180 14 14)" fill="#009EF7"/>
<path fill-rule="evenodd" clip-rule="evenodd" d="M8 14C8 13.8011 8.07902 13.6103 8.21967 13.4697C8.36032 13.329 8.55109 13.25 8.75 13.25L17.4395 13.25L14.219 10.031C14.0782 9.89018 13.9991 9.69917 13.9991 9.50001C13.9991 9.30084 14.0782 9.10984 14.219 8.96901C14.3598 8.82818 14.5508 8.74906 14.75 8.74906C14.9492 8.74906 15.1402 8.82818 15.281 8.96901L19.781 13.469C19.8508 13.5387 19.9063 13.6214 19.9441 13.7126C19.9819 13.8037 20.0013 13.9014 20.0013 14C20.0013 14.0987 19.9819 14.1963 19.9441 14.2875C19.9063 14.3786 19.8508 14.4613 19.781 14.531L15.281 19.031C15.1402 19.1718 14.9492 19.251 14.75 19.251C14.5508 19.251 14.3598 19.1718 14.219 19.031C14.0782 18.8902 13.9991 18.6992 13.9991 18.5C13.9991 18.3008 14.0782 18.1098 14.219 17.969L17.4395 14.75L8.75 14.75C8.55109 14.75 8.36032 14.671 8.21967 14.5303C8.07902 14.3897 8 14.1989 8 14Z" fill="white"/>
</svg>
