<svg width="872" height="872" viewBox="0 0 872 872" fill="none" xmlns="http://www.w3.org/2000/svg">
<path d="M532 284C532 231.064 488.936 188 436 188C383.064 188 340 231.064 340 284H188V684H348H524H684V284H532ZM436 204C480.112 204 516 239.888 516 284C516 328.112 480.112 364 436 364C391.888 364 356 328.112 356 284C356 239.888 391.888 204 436 204ZM508 668H364V492H508V668ZM668 668H524V476H348V668H204V406.472C217.912 424.4 239.608 436 264 436C284.416 436 303.8 427.768 317.96 413.488C331.28 436.96 356.408 452 384 452C403.456 452 421.976 444.576 436 431.392C450.024 444.576 468.544 452 488 452C515.592 452 540.72 436.96 554.04 413.488C568.2 427.768 587.584 436 608 436C632.392 436 654.088 424.4 668 406.472V668ZM668 360C668 393.088 641.088 420 608 420C588.328 420 569.872 410.304 558.64 394.072L549.736 381.208L544.52 395.968C536.056 419.904 513.344 436 488 436C470.288 436 453.568 428.2 442.12 414.616L436 407.36L429.88 414.616C418.432 428.2 401.712 436 384 436C358.656 436 335.944 419.904 327.48 395.96L322.264 381.2L313.36 394.064C302.128 410.304 283.672 420 264 420C230.912 420 204 393.088 204 360V300H341.448C349.096 345.328 388.528 380 436 380C483.472 380 522.904 345.328 530.552 300H668V360Z" fill="white"/>
<path d="M412 572H380V588H412V572Z" fill="white"/>
<path d="M228 572H324V476H228V572ZM284 492H308V516H284V492ZM284 532H308V556H284V532ZM244 492H268V516H244V492ZM244 532H268V556H244V532Z" fill="white"/>
<path d="M548 572H644V476H548V572ZM604 492H628V516H604V492ZM604 532H628V556H604V532ZM564 492H588V516H564V492ZM564 532H588V556H564V532Z" fill="white"/>
<path d="M424 332H428V348H444V332H448C463.44 332 476 319.44 476 304C476 288.56 463.44 276 448 276H424C417.384 276 412 270.616 412 264C412 257.384 417.384 252 424 252H448C454.616 252 460 257.384 460 264V268H476V264C476 248.56 463.44 236 448 236H444V220H428V236H424C408.56 236 396 248.56 396 264C396 279.44 408.56 292 424 292H448C454.616 292 460 297.384 460 304C460 310.616 454.616 316 448 316H424C417.384 316 412 310.616 412 304V300H396V304C396 319.44 408.56 332 424 332Z" fill="white"/>
<path d="M332 316H252V332H332V316Z" fill="white"/>
<path d="M236 316H220V332H236V316Z" fill="white"/>
<path d="M620 316H540V332H620V316Z" fill="white"/>
<path d="M652 316H636V332H652V316Z" fill="white"/>
<circle cx="436" cy="436" r="433.5" stroke="white" stroke-width="5"/>
</svg>
