<svg width="25" height="18" viewBox="0 0 25 18" fill="none" xmlns="http://www.w3.org/2000/svg">
<path d="M11.896 0.311996H6.496L1.672 7.584C0.736 8.88 0.16 10.32 0.16 12.048C0.16 15.648 2.68 17.664 5.56 17.664C8.728 17.664 11.104 15.36 11.104 12.048C11.104 10.248 10.384 8.664 8.872 7.584L11.896 0.311996ZM24.352 0.311996H18.952L14.128 7.584C13.192 8.88 12.616 10.32 12.616 12.048C12.616 15.648 15.136 17.664 18.016 17.664C21.184 17.664 23.56 15.36 23.56 12.048C23.56 10.248 22.84 8.664 21.328 7.584L24.352 0.311996Z" fill="white"/>
</svg>
