<svg width="872" height="872" viewBox="0 0 872 872" fill="none" xmlns="http://www.w3.org/2000/svg">
<path d="M525.345 643.504H540.345V599.493H677V643.504H692V516.994H525.345V643.504ZM677 531.994V584.494H540.345V531.994H677Z" fill="white"/>
<path d="M662 320.339C645.458 320.339 632 333.797 632 350.339V374.494H647V350.34C647 342.069 653.729 335.34 662 335.34H677V501.995H692V320.339H662Z" fill="white"/>
<path d="M525.345 501.995H540.345C540.345 493.724 547.074 486.995 555.345 486.995H662V471.995H647V389.496H632V471.995H555.345C538.803 471.994 525.345 485.452 525.345 501.995Z" fill="white"/>
<path d="M195 335.339H210C218.271 335.339 225 342.068 225 350.339V374.494H240V350.34C240 333.798 226.542 320.34 210 320.34H180V501.995H195V335.339Z" fill="white"/>
<path d="M316.655 471.994H240V389.495H225V471.994H210V486.994H316.655C324.926 486.994 331.655 493.723 331.655 501.994H346.655C346.655 485.452 333.197 471.994 316.655 471.994Z" fill="white"/>
<path d="M180 643.504H195V599.493H331.655V643.504H346.655V516.994H180V643.504ZM331.655 531.994V584.494H195V531.994H331.655Z" fill="white"/>
<path d="M466 613.504V449.495C466 441.224 472.729 434.495 481 434.495H602V374.495H443.5V389.495H587V419.495H284.999V389.495H428.5V374.495H269.999V434.495H391C399.271 434.495 406 441.224 406 449.495V613.504C406 621.775 399.271 628.504 391 628.504H361V643.504H391H481H511V628.504H481C472.729 628.504 466 621.775 466 613.504ZM416.964 434.495H455.036C452.475 438.911 451 444.033 451 449.495V613.504C451 618.966 452.475 624.088 455.036 628.504H416.964C419.525 624.088 421 618.966 421 613.504V449.495C421 444.033 419.525 438.911 416.964 434.495Z" fill="white"/>
<path d="M551.483 344.496H528.683C525.047 298.908 488.572 262.432 442.984 258.797V243.496H457.984V228.496H412.984V243.496H427.984V258.798C404.009 260.732 381.546 271.877 365.463 290.041L376.693 299.984C391.598 283.15 413.026 273.495 435.483 273.495C476.238 273.495 509.827 304.716 513.616 344.495H357.349C358.482 332.618 362.29 321.156 368.544 310.976L355.763 303.124C348.058 315.667 343.469 329.839 342.296 344.495H319.484V359.495H551.483V344.496Z" fill="white"/>
<path d="M489.114 317.973C479.013 302.078 462.555 291.538 443.96 289.057L441.976 303.925C456.169 305.819 468.737 313.871 476.455 326.018L489.114 317.973Z" fill="white"/>
<path d="M427.009 289.057C420.889 289.874 414.94 291.576 409.325 294.116L415.509 307.782C419.788 305.846 424.325 304.548 428.993 303.925L427.009 289.057Z" fill="white"/>
<circle cx="436" cy="436" r="433.5" stroke="white" stroke-width="5"/>
</svg>
