<svg width="23" height="23" viewBox="0 0 23 23" fill="none" xmlns="http://www.w3.org/2000/svg">
<path d="M0 0V22.34H22.34V0H0ZM21.6194 21.6194H0.720646V3.60323H21.6194V21.6194ZM21.6194 2.88259H0.720646V0.720646H21.6194V2.88259Z" fill="#0070F3"/>
<path d="M2.16205 1.44116H1.44141V2.16181H2.16205V1.44116Z" fill="#0070F3"/>
<path d="M3.60321 1.44116H2.88257V2.16181H3.60321V1.44116Z" fill="#0070F3"/>
<path d="M5.04462 1.44116H4.32397V2.16181H5.04462V1.44116Z" fill="#0070F3"/>
<path d="M8.64795 12.6114C8.64795 14.0019 9.77936 15.1336 11.1702 15.1336C12.5611 15.1336 13.6925 14.0019 13.6925 12.6114C13.6925 11.2209 12.5611 10.0891 11.1702 10.0891C9.77936 10.0891 8.64795 11.2209 8.64795 12.6114ZM12.9718 12.6114C12.9718 13.6048 12.1636 14.413 11.1702 14.413C10.1768 14.413 9.3686 13.6048 9.3686 12.6114C9.3686 11.618 10.1768 10.8098 11.1702 10.8098C12.1636 10.8098 12.9718 11.618 12.9718 12.6114Z" fill="#0070F3"/>
<path d="M5.94177 9.42056C5.61027 9.96248 5.36813 10.5487 5.21932 11.1696H3.60327V14.0522H5.2186C5.36777 14.6734 5.60955 15.2596 5.94105 15.8012L4.7999 16.9419L6.83825 18.9803L7.97904 17.8395C8.5206 18.1706 9.10685 18.4131 9.72841 18.562V20.178H12.611V18.5627C13.2325 18.4139 13.8188 18.1714 14.3604 17.8402L15.5011 18.981L17.5395 16.9427L16.3987 15.8015C16.7302 15.2596 16.9723 14.6734 17.1212 14.0525H18.7368V11.1699H17.1215C16.9723 10.5487 16.7306 9.96248 16.3991 9.42092L17.5402 8.28014L15.5019 6.24179L14.3611 7.38257C13.8195 7.05143 13.2333 6.80894 12.6117 6.66012V5.04443H9.72913V6.65976C9.10757 6.80858 8.52132 7.05107 7.97976 7.38221L6.83897 6.24143L4.80063 8.27978L5.94177 9.42056ZM7.88643 8.30896L8.13326 8.14069C8.74364 7.72524 9.42429 7.44383 10.1565 7.3051L10.4494 7.24925V5.76508H11.8907V7.24925L12.1836 7.30474C12.9158 7.44383 13.5965 7.72488 14.2069 8.14033L14.4537 8.3086L15.5015 7.26042L16.5209 8.27978L15.4727 9.32723L15.6406 9.57406C16.0564 10.1852 16.3378 10.8658 16.4765 11.5973L16.532 11.8906H18.0162V13.3319H16.532L16.4765 13.6248C16.3378 14.3563 16.0564 15.0369 15.6406 15.648L15.4727 15.8948L16.5209 16.9423L15.5015 17.9617L14.4537 16.9135L14.2069 17.0818C13.5965 17.4972 12.9158 17.7786 12.1836 17.9173L11.8907 17.9732V19.4574H10.4494V17.9732L10.1565 17.9177C9.42429 17.7786 8.74364 17.4976 8.13326 17.0821L7.88643 16.9138L6.83861 17.962L5.81926 16.9427L6.86744 15.8952L6.69953 15.6484C6.28372 15.0373 6.0023 14.3566 5.86358 13.6252L5.80809 13.3319H4.32392V11.8906H5.80809L5.86358 11.5976C6.0023 10.8662 6.28372 10.1855 6.69953 9.57442L6.86744 9.3276L5.81926 8.28014L6.83861 7.26078L7.88643 8.30896Z" fill="#0070F3"/>
</svg>
