<svg width="55" height="56" viewBox="0 0 55 56" fill="none" xmlns="http://www.w3.org/2000/svg">
<path d="M52.3387 16.8562H18.6291C17.9232 16.8562 17.2463 17.1366 16.7472 17.6357C16.2482 18.1348 15.9678 18.8117 15.9678 19.5175V53.2272C15.9678 53.933 16.2482 54.6099 16.7472 55.109C17.2463 55.6081 17.9232 55.8885 18.6291 55.8885H52.3387C53.0446 55.8885 53.7215 55.6081 54.2206 55.109C54.7197 54.6099 55 53.933 55 53.2272V19.5175C55 18.8117 54.7197 18.1348 54.2206 17.6357C53.7215 17.1366 53.0446 16.8562 52.3387 16.8562ZM20.6632 21.5516C20.8295 21.3853 21.0551 21.2919 21.2904 21.2919C21.5256 21.2919 21.7512 21.3853 21.9175 21.5516L22.8046 22.4387C22.9662 22.606 23.0556 22.8301 23.0536 23.0627C23.0516 23.2953 22.9583 23.5178 22.7938 23.6823C22.6293 23.8467 22.4069 23.94 22.1743 23.942C21.9417 23.9441 21.7176 23.8547 21.5503 23.6931L20.6632 22.806C20.4969 22.6396 20.4034 22.414 20.4034 22.1788C20.4034 21.9436 20.4969 21.718 20.6632 21.5516ZM22.8046 50.306L21.9175 51.1931C21.7502 51.3547 21.5261 51.4441 21.2935 51.4421C21.061 51.44 20.8385 51.3467 20.674 51.1823C20.5095 51.0178 20.4162 50.7953 20.4142 50.5627C20.4122 50.3301 20.5016 50.106 20.6632 49.9387L21.5503 49.0516C21.7176 48.89 21.9417 48.8006 22.1743 48.8026C22.4069 48.8046 22.6293 48.8979 22.7938 49.0624C22.9583 49.2269 23.0516 49.4494 23.0536 49.682C23.0556 49.9146 22.9662 50.1387 22.8046 50.306ZM44.9821 45.5928L42.1176 44.6631L39.3454 46.2599L38.7183 49.206C38.6359 49.5896 38.425 49.9336 38.1204 50.181C37.8158 50.4283 37.4358 50.5641 37.0434 50.5659H33.9244C33.5324 50.5645 33.1525 50.4293 32.8478 50.1826C32.5431 49.936 32.3317 49.5927 32.2487 49.2095L31.6215 46.2635L28.8493 44.6667L25.984 45.5964C25.6106 45.7166 25.2073 45.7054 24.8411 45.5646C24.475 45.4239 24.168 45.1621 23.9712 44.8228L22.4116 42.1225C22.2172 41.7821 22.1448 41.3857 22.2062 40.9985C22.2677 40.6114 22.4594 40.2569 22.7496 39.9935L24.9869 37.978V34.7756L22.7487 32.7601C22.4589 32.4964 22.2676 32.1418 22.2063 31.7548C22.145 31.3677 22.2175 30.9714 22.4116 30.631L23.9712 27.9298C24.169 27.5913 24.4763 27.3303 24.8423 27.1898C25.2084 27.0494 25.6114 27.0379 25.9849 27.1572L28.8493 28.0868L31.6215 26.4901L32.2487 23.544C32.33 23.1592 32.5406 22.8139 32.8455 22.5655C33.1504 22.3171 33.5311 22.1806 33.9244 22.1788H37.0434C37.4356 22.1802 37.8155 22.3156 38.1202 22.5624C38.425 22.8092 38.6363 23.1527 38.7192 23.536L39.3463 26.4812L42.1185 28.078L44.9838 27.1483C45.357 27.0288 45.7599 27.0402 46.1257 27.1807C46.4916 27.3212 46.7985 27.5823 46.9958 27.921L48.5562 30.6222C48.7506 30.9625 48.823 31.359 48.7616 31.7461C48.7001 32.1332 48.5084 32.4878 48.2182 32.7512L45.9809 34.7756V37.978L48.2191 39.9935C48.5089 40.2572 48.7002 40.6118 48.7615 40.9988C48.8228 41.3858 48.7504 41.7822 48.5562 42.1225L46.9967 44.8228C46.7987 45.1611 46.4912 45.4218 46.1251 45.5618C45.759 45.7017 45.3561 45.7127 44.9829 45.5928H44.9821ZM50.3046 51.1931C50.1383 51.3594 49.9127 51.4528 49.6775 51.4528C49.4422 51.4528 49.2166 51.3594 49.0503 51.1931L48.1632 50.306C48.0016 50.1387 47.9122 49.9146 47.9142 49.682C47.9162 49.4494 48.0095 49.2269 48.174 49.0624C48.3385 48.8979 48.561 48.8046 48.7936 48.8026C49.0261 48.8006 49.2502 48.89 49.4175 49.0516L50.3046 49.9387C50.4709 50.1051 50.5644 50.3307 50.5644 50.5659C50.5644 50.8011 50.4709 51.0267 50.3046 51.1931ZM50.3046 22.806L49.4175 23.6931C49.2502 23.8547 49.0261 23.9441 48.7936 23.942C48.561 23.94 48.3385 23.8467 48.174 23.6823C48.0095 23.5178 47.9162 23.2953 47.9142 23.0627C47.9122 22.8301 48.0016 22.606 48.1632 22.4387L49.0503 21.5516C49.2176 21.39 49.4417 21.3006 49.6743 21.3026C49.9069 21.3046 50.1294 21.3979 50.2938 21.5624C50.4583 21.7269 50.5516 21.9494 50.5536 22.182C50.5556 22.4146 50.4662 22.6387 50.3046 22.806Z" fill="#BBCEFF"/>
<path d="M44.2067 38.3683V34.3764C44.2067 34.2521 44.2329 34.1291 44.2835 34.0156C44.3341 33.9021 44.408 33.8004 44.5003 33.7172L47.0312 31.4374L45.4593 28.8116L42.2906 29.8903C42.1726 29.9291 42.0477 29.9424 41.9241 29.9294C41.8006 29.9164 41.6812 29.8774 41.5738 29.8149L38.1141 27.8198C38.0065 27.7577 37.9131 27.6736 37.8401 27.573C37.767 27.4725 37.7159 27.3577 37.6901 27.2361L36.9804 23.9042L33.9244 23.953L33.275 27.2352C33.2492 27.3568 33.1981 27.4716 33.125 27.5721C33.052 27.6727 32.9586 27.7568 32.851 27.8189L29.3913 29.814C29.2839 29.8765 29.1645 29.9156 29.041 29.9285C28.9175 29.9415 28.7926 29.9282 28.6745 29.8894L25.434 28.8382L23.9516 31.5128L26.4701 33.7172C26.5625 33.8004 26.6364 33.9021 26.687 34.0156C26.7375 34.1291 26.7637 34.2521 26.7637 34.3764V38.3683C26.7637 38.4926 26.7375 38.6155 26.687 38.7291C26.6364 38.8426 26.5625 38.9442 26.4701 39.0274L23.9392 41.3072L25.5111 43.9322L28.6799 42.8535C28.798 42.8152 28.9228 42.8021 29.0462 42.8151C29.1697 42.8281 29.2891 42.8668 29.3966 42.9289L32.8563 44.9248C32.9639 44.987 33.0573 45.0711 33.1303 45.1716C33.2034 45.2722 33.2545 45.387 33.2803 45.5085L33.99 48.8405L37.0434 48.7917L37.6928 45.5094C37.7186 45.3879 37.7697 45.2731 37.8428 45.1725C37.9158 45.072 38.0092 44.9879 38.1168 44.9257L41.5765 42.9297C41.684 42.8677 41.8034 42.829 41.9269 42.816C42.0503 42.803 42.1751 42.8161 42.2932 42.8543L45.5338 43.9056L47.0161 41.2318L44.4977 39.0274C44.4058 38.944 44.3324 38.8423 44.2823 38.7287C44.2321 38.6152 44.2064 38.4924 44.2067 38.3683ZM35.4839 40.3643C34.6944 40.3643 33.9226 40.1301 33.2661 39.6915C32.6096 39.2529 32.098 38.6294 31.7958 37.9C31.4937 37.1705 31.4146 36.3679 31.5687 35.5935C31.7227 34.8192 32.1029 34.1079 32.6612 33.5496C33.2194 32.9913 33.9307 32.6111 34.7051 32.4571C35.4795 32.3031 36.2821 32.3821 37.0115 32.6843C37.741 32.9864 38.3644 33.4981 38.8031 34.1545C39.2417 34.811 39.4758 35.5828 39.4758 36.3723C39.4746 37.4307 39.0537 38.4454 38.3053 39.1938C37.5569 39.9421 36.5423 40.3631 35.4839 40.3643Z" fill="#BBCEFF"/>
<path d="M7.06279 27.5377C6.74466 27.8267 6.53462 28.2156 6.46736 28.6401C6.4001 29.0646 6.47966 29.4993 6.69287 29.8725L8.56465 33.114C8.7811 33.4854 9.11783 33.7718 9.51916 33.9259C9.92049 34.0799 10.3624 34.0924 10.7717 33.9612L14.282 32.8239L17.7417 34.8243L18.5108 38.4348C18.602 38.8558 18.8347 39.2329 19.1701 39.5033C19.5055 39.7736 19.9234 39.9209 20.3542 39.9207H24.0977C24.5276 39.9189 24.9439 39.7705 25.278 39.5C25.6121 39.2295 25.8438 38.8531 25.9349 38.433L26.704 34.8216L30.1681 32.8239L33.6801 33.9638C34.0895 34.0952 34.5314 34.0828 34.9328 33.9287C35.3342 33.7747 35.6709 33.4882 35.8872 33.1167L37.759 29.8752C37.9722 29.502 38.0518 29.0673 37.9845 28.6427C37.9173 28.2182 37.7072 27.8294 37.3891 27.5404L34.6453 25.068V21.0663L37.3891 18.5931C37.7072 18.3045 37.9173 17.9159 37.9846 17.4917C38.0518 17.0674 37.9723 16.6329 37.759 16.26L35.8863 13.0168C35.6696 12.6461 35.3331 12.3603 34.9323 12.2063C34.5315 12.0523 34.0902 12.0394 33.681 12.1696L30.1681 13.3078L26.7013 11.3109L25.9322 7.69777C25.8411 7.2783 25.6096 6.90242 25.2761 6.63214C24.9426 6.36185 24.527 6.21331 24.0977 6.211H20.3542C19.9245 6.21242 19.5081 6.3606 19.1742 6.631C18.8402 6.90139 18.6087 7.27777 18.5179 7.69777L17.7488 11.3109L14.282 13.3078L10.7691 12.167C10.3597 12.0363 9.91798 12.049 9.51677 12.203C9.11556 12.357 8.77879 12.6431 8.56199 13.0141L6.69376 16.26C6.48018 16.6329 6.40034 17.0675 6.46745 17.492C6.53455 17.9164 6.74459 18.3052 7.06279 18.594L9.80658 21.0663V25.0654L7.06279 27.5377ZM11.288 20.0116L8.24973 17.2758C8.23216 17.2598 8.22062 17.2384 8.21706 17.2149C8.21351 17.1915 8.21815 17.1675 8.23021 17.1471L10.1011 13.9039C10.1132 13.8835 10.132 13.8677 10.1542 13.8594C10.1765 13.851 10.2009 13.8504 10.2235 13.8578L14.1126 15.1192C14.2306 15.1576 14.3554 15.1709 14.4788 15.158C14.6023 15.1452 14.7217 15.1066 14.8293 15.0447L18.9774 12.6495C19.085 12.5874 19.1784 12.5033 19.2514 12.4027C19.3245 12.3022 19.3756 12.1874 19.4014 12.0658L20.253 8.06681C20.2581 8.04372 20.2709 8.02305 20.2893 8.00821C20.3076 7.99337 20.3305 7.98525 20.3542 7.98519H24.0977C24.1215 7.98521 24.1445 7.9933 24.163 8.00813C24.1816 8.02296 24.1945 8.04365 24.1997 8.06681L25.0505 12.0658C25.0763 12.1874 25.1274 12.3022 25.2005 12.4027C25.2735 12.5033 25.3669 12.5874 25.4745 12.6495L29.6226 15.0447C29.7303 15.1067 29.8498 15.1454 29.9735 15.1582C30.0971 15.1711 30.2221 15.1578 30.3402 15.1192L34.2284 13.8578C34.2508 13.8503 34.2752 13.8508 34.2973 13.8592C34.3195 13.8676 34.338 13.8834 34.3499 13.9039L36.2226 17.1471C36.234 17.1678 36.2383 17.1916 36.2346 17.215C36.2309 17.2383 36.2194 17.2597 36.2022 17.2758L33.1647 20.0116C33.0723 20.0947 32.9985 20.1964 32.9479 20.3099C32.8973 20.4235 32.8711 20.5464 32.8711 20.6707V25.461C32.8711 25.5853 32.8973 25.7082 32.9479 25.8218C32.9985 25.9353 33.0723 26.037 33.1647 26.1201L36.2022 28.8559C36.2197 28.8721 36.2312 28.8936 36.2349 28.9171C36.2386 28.9406 36.2343 28.9647 36.2226 28.9854L34.3499 32.2269C34.3382 32.2476 34.3197 32.2635 34.2975 32.2721C34.2754 32.2807 34.2509 32.2813 34.2284 32.2739L30.3384 31.0116C30.2202 30.9732 30.0952 30.96 29.9716 30.973C29.848 30.986 29.7284 31.0248 29.6208 31.087L25.4727 33.4821C25.3651 33.5443 25.2717 33.6284 25.1987 33.7289C25.1256 33.8295 25.0745 33.9443 25.0487 34.0658L24.198 38.064C24.1928 38.0872 24.1798 38.108 24.1613 38.123C24.1428 38.138 24.1198 38.1463 24.0959 38.1465H20.3524C20.3286 38.1464 20.3056 38.1381 20.2872 38.1231C20.2688 38.1081 20.2561 38.0872 20.2513 38.064L19.3997 34.0658C19.3738 33.9443 19.3227 33.8295 19.2497 33.7289C19.1766 33.6284 19.0832 33.5443 18.9756 33.4821L14.8276 31.087C14.72 31.0249 14.6006 30.9862 14.4772 30.9732C14.3537 30.9602 14.2289 30.9733 14.1108 31.0116L10.2235 32.2739C10.2009 32.2811 10.1766 32.2804 10.1545 32.2718C10.1323 32.2633 10.1138 32.2474 10.102 32.2269L8.23021 28.9854C8.21802 28.9648 8.21339 28.9407 8.21712 28.917C8.22084 28.8934 8.23269 28.8718 8.25062 28.8559L11.288 26.1201C11.3803 26.0369 11.454 25.9352 11.5044 25.8217C11.5548 25.7081 11.5809 25.5852 11.5808 25.461V20.6707C11.5809 20.5464 11.5548 20.4236 11.5044 20.31C11.454 20.1965 11.3803 20.0948 11.288 20.0116Z" fill="#151A6A"/>
<path d="M22.2261 28.3884C23.2789 28.3884 24.3079 28.0762 25.1832 27.4914C26.0585 26.9065 26.7407 26.0752 27.1436 25.1027C27.5464 24.1301 27.6518 23.0599 27.4465 22.0274C27.2411 20.9949 26.7342 20.0466 25.9898 19.3022C25.2454 18.5578 24.297 18.0509 23.2645 17.8455C22.2321 17.6401 21.1619 17.7455 20.1893 18.1484C19.2167 18.5512 18.3854 19.2334 17.8006 20.1087C17.2157 20.984 16.9036 22.0131 16.9036 23.0658C16.905 24.477 17.4662 25.83 18.4641 26.8279C19.4619 27.8258 20.8149 28.387 22.2261 28.3884ZM22.2261 19.5174C22.928 19.5174 23.614 19.7255 24.1975 20.1154C24.7811 20.5053 25.2359 21.0595 25.5044 21.7079C25.773 22.3563 25.8433 23.0697 25.7064 23.7581C25.5694 24.4464 25.2315 25.0786 24.7352 25.5749C24.239 26.0711 23.6067 26.4091 22.9184 26.546C22.2301 26.6829 21.5166 26.6127 20.8682 26.3441C20.2199 26.0755 19.6657 25.6207 19.2758 25.0372C18.8859 24.4537 18.6778 23.7676 18.6778 23.0658C18.6778 22.1247 19.0516 21.2222 19.7171 20.5567C20.3825 19.8913 21.2851 19.5174 22.2261 19.5174Z" fill="#151A6A"/>
<path d="M41.6936 0.888489H2.66129C1.95547 0.888489 1.27856 1.16887 0.779474 1.66796C0.280385 2.16705 0 2.84396 0 3.54978V42.582C0 43.2879 0.280385 43.9648 0.779474 44.4639C1.27856 44.963 1.95547 45.2433 2.66129 45.2433H16.8548C17.0901 45.2433 17.3158 45.1499 17.4821 44.9835C17.6485 44.8172 17.7419 44.5915 17.7419 44.3562C17.7419 44.121 17.6485 43.8953 17.4821 43.729C17.3158 43.5626 17.0901 43.4691 16.8548 43.4691H2.66129C2.42602 43.4691 2.20038 43.3757 2.03402 43.2093C1.86766 43.043 1.77419 42.8173 1.77419 42.582V3.54978C1.77419 3.31451 1.86766 3.08887 2.03402 2.92251C2.20038 2.75614 2.42602 2.66268 2.66129 2.66268H41.6936C41.9288 2.66268 42.1545 2.75614 42.3208 2.92251C42.4872 3.08887 42.5807 3.31451 42.5807 3.54978V17.7433C42.5807 17.9786 42.6741 18.2042 42.8405 18.3706C43.0068 18.537 43.2325 18.6304 43.4678 18.6304C43.703 18.6304 43.9287 18.537 44.095 18.3706C44.2614 18.2042 44.3549 17.9786 44.3549 17.7433V3.54978C44.3549 2.84396 44.0745 2.16705 43.5754 1.66796C43.0763 1.16887 42.3994 0.888489 41.6936 0.888489Z" fill="#151A6A"/>
</svg>
