<svg width="872" height="872" viewBox="0 0 872 872" fill="none" xmlns="http://www.w3.org/2000/svg">
<circle cx="436" cy="436" r="433.5" stroke="white" stroke-width="5"/>
<path d="M481 596H561V612H481V596Z" fill="white"/>
<path d="M481 564H561V580H481V564Z" fill="white"/>
<path d="M617 564C612.253 564 607.613 565.408 603.666 568.045C599.72 570.682 596.643 574.43 594.827 578.816C593.01 583.201 592.535 588.027 593.461 592.682C594.387 597.338 596.673 601.614 600.029 604.971C603.386 608.327 607.662 610.613 612.318 611.539C616.973 612.465 621.799 611.99 626.184 610.173C630.57 608.357 634.318 605.28 636.955 601.334C639.592 597.387 641 592.747 641 588C641 581.635 638.471 575.53 633.971 571.029C629.47 566.529 623.365 564 617 564ZM617 596C615.418 596 613.871 595.531 612.555 594.652C611.24 593.773 610.214 592.523 609.609 591.061C609.003 589.6 608.845 587.991 609.154 586.439C609.462 584.887 610.224 583.462 611.343 582.343C612.462 581.224 613.887 580.462 615.439 580.154C616.991 579.845 618.6 580.003 620.061 580.609C621.523 581.214 622.773 582.24 623.652 583.555C624.531 584.871 625 586.418 625 588C625 590.122 624.157 592.157 622.657 593.657C621.157 595.157 619.122 596 617 596Z" fill="white"/>
<path d="M425 564C420.253 564 415.613 565.408 411.666 568.045C407.72 570.682 404.643 574.43 402.827 578.816C401.01 583.201 400.535 588.027 401.461 592.682C402.387 597.338 404.673 601.614 408.029 604.971C411.386 608.327 415.662 610.613 420.318 611.539C424.973 612.465 429.799 611.99 434.184 610.173C438.57 608.357 442.318 605.28 444.955 601.334C447.592 597.387 449 592.747 449 588C449 581.635 446.471 575.53 441.971 571.029C437.47 566.529 431.365 564 425 564ZM425 596C423.418 596 421.871 595.531 420.555 594.652C419.24 593.773 418.214 592.523 417.609 591.061C417.003 589.6 416.845 587.991 417.154 586.439C417.462 584.887 418.224 583.462 419.343 582.343C420.462 581.224 421.887 580.462 423.439 580.154C424.991 579.845 426.6 580.003 428.061 580.609C429.523 581.214 430.773 582.24 431.652 583.555C432.531 584.871 433 586.418 433 588C433 590.122 432.157 592.157 430.657 593.657C429.157 595.157 427.122 596 425 596Z" fill="white"/>
<path d="M681 524C680.981 517.641 678.446 511.547 673.95 507.05C669.453 502.554 663.359 500.019 657 500C652.389 500.009 647.883 501.372 644.04 503.92L632.68 473.6L626.28 448.08C625.417 444.62 623.419 441.55 620.606 439.36C617.792 437.17 614.325 435.987 610.76 436H569V412C569 409.878 568.157 407.843 566.657 406.343C565.157 404.843 563.122 404 561 404H481C478.878 404 476.843 404.843 475.343 406.343C473.843 407.843 473 409.878 473 412V436H431.24C427.675 435.987 424.208 437.17 421.394 439.36C418.581 441.55 416.583 444.62 415.72 448.08L409.32 473.6L397.96 503.92C394.117 501.372 389.611 500.009 385 500C379.815 500.021 374.776 501.721 370.638 504.845C366.499 507.968 363.484 512.349 362.043 517.329C360.602 522.31 360.812 527.624 362.643 532.475C364.474 537.326 367.827 541.454 372.2 544.24C370.119 547.811 369.016 551.867 369 556V660C369.013 664.24 370.702 668.302 373.7 671.3C376.698 674.298 380.76 675.987 385 676H417C421.24 675.987 425.302 674.298 428.3 671.3C431.298 668.302 432.987 664.24 433 660V644H609V660C609.013 664.24 610.702 668.302 613.7 671.3C616.698 674.298 620.76 675.987 625 676H657C661.24 675.987 665.302 674.298 668.3 671.3C671.298 668.302 672.987 664.24 673 660V556C672.984 551.867 671.881 547.811 669.8 544.24C673.23 542.093 676.057 539.108 678.016 535.568C679.976 532.027 681.002 528.047 681 524ZM489 420H553V436H489V420ZM431.24 452H610.76L614.76 468H427.24L431.24 452ZM422.52 484H619.48L637.48 532H495.88C494.133 525.135 490.149 519.049 484.557 514.701C478.965 510.354 472.083 507.993 465 507.993C457.917 507.993 451.035 510.354 445.443 514.701C439.851 519.049 435.867 525.135 434.12 532H404.52L422.52 484ZM478.76 532H451.24C452.623 529.57 454.624 527.55 457.041 526.144C459.458 524.739 462.204 523.998 465 523.998C467.796 523.998 470.542 524.739 472.959 526.144C475.376 527.55 477.377 529.57 478.76 532ZM377 524C377 521.878 377.843 519.843 379.343 518.343C380.843 516.843 382.878 516 385 516C386.405 516.011 387.782 516.394 388.991 517.111C390.2 517.828 391.197 518.852 391.88 520.08L387.64 531.52C386.795 531.834 385.901 531.996 385 532C382.878 532 380.843 531.157 379.343 529.657C377.843 528.157 377 526.122 377 524ZM417 660H385V642.56C387.565 643.491 390.271 643.978 393 644H417V660ZM657 660H625V644H649C651.729 643.978 654.435 643.491 657 642.56V660ZM657 620C657 622.122 656.157 624.157 654.657 625.657C653.157 627.157 651.122 628 649 628H393C390.878 628 388.843 627.157 387.343 625.657C385.843 624.157 385 622.122 385 620V556C385 553.878 385.843 551.843 387.343 550.343C388.843 548.843 390.878 548 393 548H649C651.122 548 653.157 548.843 654.657 550.343C656.157 551.843 657 553.878 657 556V620ZM657 532C656.099 531.996 655.205 531.834 654.36 531.52L650.12 520.08C650.79 518.841 651.784 517.807 652.996 517.089C654.207 516.37 655.591 515.994 657 516C659.122 516 661.157 516.843 662.657 518.343C664.157 519.843 665 521.878 665 524C665 526.122 664.157 528.157 662.657 529.657C661.157 531.157 659.122 532 657 532Z" fill="white"/>
<path d="M209 628V244C209 235.513 212.371 227.374 218.373 221.373C224.374 215.371 232.513 212 241 212H465C473.487 212 481.626 215.371 487.627 221.373C493.629 227.374 497 235.513 497 244V388H513V244C512.987 231.274 507.926 219.072 498.927 210.073C489.928 201.074 477.727 196.013 465 196H241C228.274 196.013 216.072 201.074 207.073 210.073C198.074 219.072 193.013 231.274 193 244V628C193.013 640.727 198.074 652.928 207.073 661.927C216.072 670.926 228.274 675.987 241 676H353V660H241C232.513 660 224.374 656.629 218.373 650.627C212.371 644.626 209 636.487 209 628Z" fill="white"/>
<path d="M465 660H449V676H465C475.39 676.027 485.504 672.655 493.8 666.4L484.2 653.6C478.671 657.774 471.927 660.022 465 660Z" fill="white"/>
<path d="M313 620C313 626.365 315.529 632.47 320.029 636.971C324.53 641.471 330.635 644 337 644H353V628H337C334.878 628 332.843 627.157 331.343 625.657C329.843 624.157 329 622.122 329 620C329 617.878 329.843 615.843 331.343 614.343C332.843 612.843 334.878 612 337 612H353V596H337C330.635 596 324.53 598.529 320.029 603.029C315.529 607.53 313 613.635 313 620Z" fill="white"/>
<path d="M297 228H313V244H297V228Z" fill="white"/>
<path d="M329 228H377V244H329V228Z" fill="white"/>
<path d="M241 372C241 414.552 304.328 486.28 307.016 489.32C307.767 490.171 308.69 490.853 309.725 491.32C310.759 491.787 311.881 492.029 313.016 492.029C314.151 492.029 315.273 491.787 316.307 491.32C317.342 490.853 318.265 490.171 319.016 489.32C321.672 486.28 385 414.552 385 372C385 352.904 377.414 334.591 363.912 321.088C350.409 307.586 332.096 300 313 300C293.904 300 275.591 307.586 262.088 321.088C248.586 334.591 241 352.904 241 372ZM313 316C327.847 316.017 342.081 321.922 352.579 332.421C363.078 342.919 368.983 357.153 369 372C369 399.2 332.832 448.056 313 471.736C293.168 448.056 257 399.2 257 372C257.017 357.153 262.922 342.919 273.421 332.421C283.919 321.922 298.153 316.017 313 316Z" fill="white"/>
<path d="M313 388C317.747 388 322.387 386.592 326.334 383.955C330.28 381.318 333.357 377.57 335.173 373.184C336.99 368.799 337.465 363.973 336.539 359.318C335.613 354.662 333.327 350.386 329.971 347.029C326.614 343.673 322.338 341.387 317.682 340.461C313.027 339.535 308.201 340.01 303.816 341.827C299.43 343.643 295.682 346.72 293.045 350.666C290.408 354.613 289 359.253 289 364C289 370.365 291.529 376.47 296.029 380.971C300.53 385.471 306.635 388 313 388ZM313 356C314.582 356 316.129 356.469 317.445 357.348C318.76 358.227 319.786 359.477 320.391 360.939C320.997 362.4 321.155 364.009 320.846 365.561C320.538 367.113 319.776 368.538 318.657 369.657C317.538 370.776 316.113 371.538 314.561 371.846C313.009 372.155 311.4 371.997 309.939 371.391C308.477 370.786 307.227 369.76 306.348 368.445C305.469 367.129 305 365.582 305 364C305 361.878 305.843 359.843 307.343 358.343C308.843 356.843 310.878 356 313 356Z" fill="white"/>
</svg>
