<svg width="60" height="60" viewBox="0 0 60 60" fill="none" xmlns="http://www.w3.org/2000/svg">
<rect width="60" height="60" fill="#DEF2FE"/>
<path d="M30 20.0006C28.6219 20.0006 27.5006 18.8794 27.5006 17.5012C27.5006 16.1212 28.6219 15 30 15C31.3781 15 32.4994 16.1213 32.4994 17.4994C32.4994 18.8794 31.3781 20.0006 30 20.0006Z" fill="#009EF7"/>
<path d="M39.9994 38.7506C38.6213 38.7506 37.5 37.6294 37.5 36.2512C37.5 34.8731 38.6213 33.75 39.9994 33.75C41.3775 33.75 42.4988 34.8713 42.4988 36.2494C42.4988 37.6275 41.3775 38.7506 39.9994 38.7506Z" fill="#009EF7"/>
<path d="M20.0006 38.7506C18.6225 38.7506 17.5012 37.6294 17.5012 36.2512C17.5012 34.8731 18.6225 33.75 20.0006 33.75C21.3787 33.75 22.5 34.8713 22.5 36.2494C22.5 37.6275 21.3787 38.7506 20.0006 38.7506Z" fill="#009EF7"/>
<path d="M35.0006 24.6882C35.0006 22.7926 33.4593 21.2513 31.5637 21.2513H28.4381C26.5425 21.2513 25.0012 22.7926 25.0012 24.6882V25.3126C25.0012 25.8301 25.4212 26.2501 25.9387 26.2501H34.0631C34.5806 26.2501 35.0006 25.8301 35.0006 25.3126V24.6882Z" fill="#009EF7"/>
<path d="M41.5631 39.9993H38.4375C36.5419 39.9993 35.0006 41.5405 35.0006 43.4361V44.0624C35.0006 44.5799 35.4206 44.9999 35.9381 44.9999H44.0625C44.58 44.9999 45 44.5799 45 44.0624V43.438C45 41.5424 43.4587 39.9993 41.5631 39.9993Z" fill="#009EF7"/>
<path d="M21.5625 39.9993H18.4369C16.5413 39.9993 15 41.5424 15 43.438V44.0624C15 44.5799 15.42 44.9999 15.9375 44.9999H24.0619C24.5794 44.9999 24.9994 44.5799 24.9994 44.0624V43.438C24.9994 41.5424 23.4581 39.9993 21.5625 39.9993Z" fill="#009EF7"/>
<path d="M25.9388 36.2496C25.6407 36.2496 25.3501 36.109 25.1682 35.8465C24.872 35.4209 24.9788 34.8378 25.4045 34.5415L29.0626 32.0084V28.4365C29.0626 27.919 29.4826 27.499 30.0001 27.499C30.5176 27.499 30.9376 27.919 30.9376 28.4365V32.4996C30.9376 32.8071 30.7857 33.0959 30.5345 33.2703L26.4713 36.0828C26.3082 36.1971 26.1226 36.2496 25.9388 36.2496Z" fill="#009EF7"/>
<path d="M34.0614 36.2497C33.8776 36.2497 33.692 36.1953 33.5289 36.0828L29.4657 33.2703C29.0401 32.9759 28.9332 32.3909 29.2295 31.9653C29.5239 31.5415 30.1051 31.4309 30.5326 31.7272L34.5957 34.5397C35.0214 34.834 35.1282 35.419 34.832 35.8447C34.6501 36.109 34.3595 36.2497 34.0614 36.2497Z" fill="#009EF7"/>
</svg>
