<svg width="60" height="60" viewBox="0 0 60 60" fill="none" xmlns="http://www.w3.org/2000/svg">
<rect width="60" height="60" fill="#DEF2FE"/>
<path d="M41.3901 19.3396L29.827 15.0591C29.6169 14.9803 29.3843 14.9803 29.1742 15.0591L17.6111 19.3396C17.2435 19.4746 17 19.8271 17 20.219V30.2202C17 41.5979 29.1367 44.9391 29.2607 44.9707C29.3395 44.9895 29.42 45.0009 29.5006 45.0009C29.5812 45.0009 29.6617 44.9895 29.7405 44.9689C29.8645 44.9373 42.0012 41.5979 42.0012 30.2184V20.2171C42.0012 19.8271 41.7554 19.4746 41.3901 19.3396ZM29.5006 38.1253C25.0214 38.1253 21.3762 34.4801 21.3762 30.0009C21.3762 25.5217 25.0214 21.8765 29.5006 21.8765C33.9798 21.8765 37.625 25.5217 37.625 30.0009C37.625 34.4801 33.9798 38.1253 29.5006 38.1253Z" fill="#009EF7"/>
<path d="M31.4369 33.4379C31.1165 33.4379 30.7974 33.3161 30.5539 33.0721L28.3658 30.884C28.1314 30.6496 28 30.3329 28 30.001V26.5641C28 25.8742 28.5608 25.3135 29.2506 25.3135C29.9405 25.3135 30.5012 25.8724 30.5012 26.5641V29.4837L32.3217 31.3042C32.8093 31.7917 32.8093 32.5828 32.3217 33.0721C32.0764 33.3161 31.7555 33.4379 31.4369 33.4379Z" fill="#009EF7"/>
</svg>
