<svg width="538" height="140" viewBox="0 0 538 140" fill="none" xmlns="http://www.w3.org/2000/svg">
<path d="M58.5 69.4C62.6333 70.7333 65.7667 72.8 67.9 75.6C70.1 78.4 71.2 81.8667 71.2 86C71.2 92.2 68.7667 97.1 63.9 100.7C59.1 104.233 52.2667 106 43.4 106H7.5V36H41.5C49.9 36 56.4 37.6 61 40.8C65.6667 43.9333 68 48.4 68 54.2C68 57.6 67.1667 60.6 65.5 63.2C63.9 65.8 61.5667 67.8667 58.5 69.4ZM27 64H39.6C45.2 64 48 61.7 48 57.1C48 52.5 45.2 50.2 39.6 50.2H27V64ZM42.6 91.8C48.3333 91.8 51.2 89.3667 51.2 84.5C51.2 79.7667 48.3333 77.4 42.6 77.4H27V91.8H42.6ZM102.914 50.9C111.914 50.9 118.781 52.9667 123.514 57.1C128.247 61.1667 130.614 67.4333 130.614 75.9V106H112.914V99C110.181 104.267 104.847 106.9 96.9141 106.9C92.7141 106.9 89.0807 106.167 86.0141 104.7C82.9474 103.233 80.6141 101.267 79.0141 98.8C77.4807 96.2667 76.7141 93.4 76.7141 90.2C76.7141 85.0667 78.6807 81.1 82.6141 78.3C86.5474 75.4333 92.6141 74 100.814 74H111.614C111.281 68.2667 107.447 65.4 100.114 65.4C97.5141 65.4 94.8807 65.8333 92.2141 66.7C89.5474 67.5 87.2807 68.6333 85.4141 70.1L79.0141 57.2C82.0141 55.2 85.6474 53.6667 89.9141 52.6C94.2474 51.4667 98.5807 50.9 102.914 50.9ZM102.214 94.9C104.414 94.9 106.347 94.3667 108.014 93.3C109.681 92.2333 110.881 90.6667 111.614 88.6V83.9H103.414C97.8807 83.9 95.1141 85.7333 95.1141 89.4C95.1141 91.0667 95.7474 92.4 97.0141 93.4C98.2807 94.4 100.014 94.9 102.214 94.9ZM167.445 86.7H161.045V106H142.045V51.8H161.045V71.8H167.845L181.145 51.8H201.245L183.045 77.8L202.445 106H180.045L167.445 86.7ZM229.867 50.9C238.867 50.9 245.734 52.9667 250.467 57.1C255.201 61.1667 257.567 67.4333 257.567 75.9V106H239.867V99C237.134 104.267 231.801 106.9 223.867 106.9C219.667 106.9 216.034 106.167 212.967 104.7C209.901 103.233 207.567 101.267 205.967 98.8C204.434 96.2667 203.667 93.4 203.667 90.2C203.667 85.0667 205.634 81.1 209.567 78.3C213.501 75.4333 219.567 74 227.767 74H238.567C238.234 68.2667 234.401 65.4 227.067 65.4C224.467 65.4 221.834 65.8333 219.167 66.7C216.501 67.5 214.234 68.6333 212.367 70.1L205.967 57.2C208.967 55.2 212.601 53.6667 216.867 52.6C221.201 51.4667 225.534 50.9 229.867 50.9ZM229.167 94.9C231.367 94.9 233.301 94.3667 234.967 93.3C236.634 92.2333 237.834 90.6667 238.567 88.6V83.9H230.367C224.834 83.9 222.067 85.7333 222.067 89.4C222.067 91.0667 222.701 92.4 223.967 93.4C225.234 94.4 226.967 94.9 229.167 94.9ZM268.998 51.8H287.898V71.9H307.398V51.8H326.398V106H307.398V87H287.898V106H268.998V51.8ZM366.413 106.9C360.413 106.9 355.046 105.7 350.313 103.3C345.579 100.9 341.879 97.5667 339.213 93.3C336.613 89.0333 335.313 84.2 335.313 78.8C335.313 73.4 336.613 68.6 339.213 64.4C341.879 60.1333 345.579 56.8333 350.313 54.5C355.046 52.1 360.413 50.9 366.413 50.9C372.546 50.9 377.846 52.2333 382.313 54.9C386.779 57.5 389.946 61.1333 391.813 65.8L377.113 73.3C374.646 68.4333 371.046 66 366.313 66C362.913 66 360.079 67.1333 357.812 69.4C355.613 71.6667 354.513 74.8 354.513 78.8C354.513 82.8667 355.613 86.0667 357.812 88.4C360.079 90.6667 362.913 91.8 366.313 91.8C371.046 91.8 374.646 89.3667 377.113 84.5L391.813 92C389.946 96.6667 386.779 100.333 382.313 103C377.846 105.6 372.546 106.9 366.413 106.9ZM399.759 51.8H418.659V80.2L441.359 51.8H458.859V106H439.859V77.5L417.359 106H399.759V51.8ZM471.634 51.8H490.534V80.2L513.234 51.8H530.734V106H511.734V77.5L489.234 106H471.634V51.8Z" fill="#F0F0F0"/>
<path d="M16.016 69.78C17.2107 70.1347 18.1253 70.7133 18.76 71.516C19.3947 72.3187 19.712 73.308 19.712 74.484C19.712 76.22 19.0493 77.5733 17.724 78.544C16.4173 79.5147 14.5413 80 12.096 80H2.436V60.4H11.564C13.8413 60.4 15.6147 60.8387 16.884 61.716C18.1533 62.5933 18.788 63.844 18.788 65.468C18.788 66.4387 18.5453 67.2973 18.06 68.044C17.5747 68.772 16.8933 69.3507 16.016 69.78ZM6.944 68.52H11.172C12.1613 68.52 12.908 68.324 13.412 67.932C13.916 67.5213 14.168 66.924 14.168 66.14C14.168 65.3747 13.9067 64.7867 13.384 64.376C12.88 63.9653 12.1427 63.76 11.172 63.76H6.944V68.52ZM11.928 76.64C14.056 76.64 15.12 75.8 15.12 74.12C15.12 72.496 14.056 71.684 11.928 71.684H6.944V76.64H11.928ZM28.8153 64.712C31.1486 64.712 32.9406 65.272 34.1913 66.392C35.4419 67.4933 36.0673 69.164 36.0673 71.404V80H31.9793V78.124C31.1579 79.524 29.6273 80.224 27.3873 80.224C26.2299 80.224 25.2219 80.028 24.3633 79.636C23.5233 79.244 22.8793 78.7027 22.4313 78.012C21.9833 77.3213 21.7593 76.5373 21.7593 75.66C21.7593 74.26 22.2819 73.1587 23.3273 72.356C24.3913 71.5533 26.0246 71.152 28.2273 71.152H31.6993C31.6993 70.2 31.4099 69.472 30.8313 68.968C30.2526 68.4453 29.3846 68.184 28.2273 68.184C27.4246 68.184 26.6313 68.3147 25.8473 68.576C25.0819 68.8187 24.4286 69.1547 23.8873 69.584L22.3193 66.532C23.1406 65.9533 24.1206 65.5053 25.2593 65.188C26.4166 64.8707 27.6019 64.712 28.8153 64.712ZM28.4793 77.284C29.2259 77.284 29.8886 77.116 30.4673 76.78C31.0459 76.4253 31.4566 75.912 31.6993 75.24V73.7H28.7033C26.9113 73.7 26.0153 74.288 26.0153 75.464C26.0153 76.024 26.2299 76.472 26.6593 76.808C27.1073 77.1253 27.7139 77.284 28.4793 77.284ZM46.4977 74.288H44.2297V80H39.8617V64.936H44.2297V70.788H46.5817L50.6697 64.936H55.3177L50.0537 72.16L55.6817 80H50.5297L46.4977 74.288ZM63.4051 64.712C65.7385 64.712 67.5305 65.272 68.7811 66.392C70.0318 67.4933 70.6571 69.164 70.6571 71.404V80H66.5691V78.124C65.7478 79.524 64.2171 80.224 61.9771 80.224C60.8198 80.224 59.8118 80.028 58.9531 79.636C58.1131 79.244 57.4691 78.7027 57.0211 78.012C56.5731 77.3213 56.3491 76.5373 56.3491 75.66C56.3491 74.26 56.8718 73.1587 57.9171 72.356C58.9811 71.5533 60.6145 71.152 62.8171 71.152H66.2891C66.2891 70.2 65.9998 69.472 65.4211 68.968C64.8425 68.4453 63.9745 68.184 62.8171 68.184C62.0145 68.184 61.2211 68.3147 60.4371 68.576C59.6718 68.8187 59.0185 69.1547 58.4771 69.584L56.9091 66.532C57.7305 65.9533 58.7105 65.5053 59.8491 65.188C61.0065 64.8707 62.1918 64.712 63.4051 64.712ZM63.0691 77.284C63.8158 77.284 64.4785 77.116 65.0571 76.78C65.6358 76.4253 66.0465 75.912 66.2891 75.24V73.7H63.2931C61.5011 73.7 60.6051 74.288 60.6051 75.464C60.6051 76.024 60.8198 76.472 61.2491 76.808C61.6971 77.1253 62.3038 77.284 63.0691 77.284ZM74.4516 64.936H78.7916V70.816H85.3436V64.936H89.7116V80H85.3436V74.372H78.7916V80H74.4516V64.936ZM101.061 80.224C99.4556 80.224 98.009 79.8973 96.721 79.244C95.4516 78.572 94.453 77.648 93.725 76.472C93.0156 75.296 92.661 73.9613 92.661 72.468C92.661 70.9747 93.0156 69.64 93.725 68.464C94.453 67.288 95.4516 66.3733 96.721 65.72C98.009 65.048 99.4556 64.712 101.061 64.712C102.648 64.712 104.029 65.048 105.205 65.72C106.4 66.3733 107.268 67.316 107.809 68.548L104.421 70.368C103.637 68.9867 102.508 68.296 101.033 68.296C99.8943 68.296 98.9516 68.6693 98.205 69.416C97.4583 70.1627 97.085 71.18 97.085 72.468C97.085 73.756 97.4583 74.7733 98.205 75.52C98.9516 76.2667 99.8943 76.64 101.033 76.64C102.526 76.64 103.656 75.9493 104.421 74.568L107.809 76.416C107.268 77.6107 106.4 78.544 105.205 79.216C104.029 79.888 102.648 80.224 101.061 80.224ZM110.463 64.936H114.803V73.896L122.139 64.936H126.143V80H121.803V71.04L114.495 80H110.463V64.936ZM130.342 64.936H134.682V73.896L142.018 64.936H146.022V80H141.682V71.04L134.374 80H130.342V64.936Z" fill="#0F0E0E"/>
</svg>
