<svg width="55" height="57" viewBox="0 0 55 57" fill="none" xmlns="http://www.w3.org/2000/svg">
<path d="M29.3368 45.408V46.8066H38.5022V45.4859C38.5025 45.3147 38.5119 45.1437 38.5306 44.9736H29.313C29.3258 45.1175 29.3368 45.2614 29.3368 45.408Z" fill="#BBCEFF"/>
<path d="M29.3369 48.6398V49.5563C29.3369 49.7994 29.4335 50.0325 29.6054 50.2044C29.7772 50.3763 30.0104 50.4728 30.2535 50.4728H37.5858C37.8288 50.4728 38.062 50.3763 38.2339 50.2044C38.4057 50.0325 38.5023 49.7994 38.5023 49.5563V48.6398H29.3369Z" fill="#BBCEFF"/>
<path d="M31.3376 34.8917L33.5199 42.5292C33.5703 42.7052 33.6766 42.8601 33.8228 42.9704C33.9689 43.0807 34.147 43.1404 34.3301 43.1405C34.5231 43.1406 34.7103 43.0745 34.8604 42.9532C35.0106 42.832 35.1145 42.6629 35.155 42.4742L36.7791 34.8917H31.3376Z" fill="#BBCEFF"/>
<path d="M33.9198 23.8932H33.8794C31.7865 23.8968 29.7467 24.5524 28.0436 25.7689C26.3405 26.9854 25.0587 28.7024 24.3766 30.681C23.6944 32.6597 23.6457 34.8017 24.2372 36.8093C24.8288 38.8169 26.0312 40.5904 27.6772 41.883C27.998 42.1382 28.2791 42.4397 28.5113 42.7775C28.5946 42.8935 28.7049 42.9875 28.8326 43.0514C28.9604 43.1152 29.1017 43.1471 29.2445 43.1442H30.5735C30.7154 43.1442 30.8554 43.1114 30.9825 43.0481C31.1095 42.9848 31.2202 42.893 31.3056 42.7797C31.3911 42.6664 31.4491 42.5348 31.4751 42.3952C31.501 42.2557 31.4942 42.112 31.4552 41.9756L29.4287 34.8917H28.4205C28.1775 34.8917 27.9443 34.7951 27.7724 34.6232C27.6006 34.4513 27.504 34.2182 27.504 33.9751C27.504 33.732 27.6006 33.4989 27.7724 33.327C27.9443 33.1551 28.1775 33.0586 28.4205 33.0586H28.9072L28.4554 31.4766C28.4224 31.3608 28.4125 31.2397 28.4264 31.1201C28.4402 31.0005 28.4775 30.8848 28.536 30.7796C28.6543 30.5672 28.8521 30.4104 29.0859 30.3438C29.3198 30.2772 29.5705 30.3062 29.783 30.4245C29.8882 30.483 29.9808 30.5617 30.0556 30.6561C30.1303 30.7504 30.1858 30.8586 30.2188 30.9744L30.8145 33.0586H37.1726L37.6061 31.033C37.6314 30.9153 37.6796 30.8037 37.748 30.7046C37.8164 30.6056 37.9036 30.5209 38.0047 30.4556C38.1058 30.3902 38.2188 30.3454 38.3373 30.3237C38.4557 30.302 38.5772 30.3038 38.6949 30.3291C38.8126 30.3544 38.9242 30.4026 39.0233 30.471C39.1224 30.5394 39.207 30.6267 39.2724 30.7278C39.3378 30.8289 39.3826 30.9419 39.4043 31.0603C39.426 31.1787 39.4241 31.3003 39.3988 31.418L39.0469 33.0586H39.419C39.6621 33.0586 39.8952 33.1551 40.0671 33.327C40.239 33.4989 40.3355 33.732 40.3355 33.9751C40.3355 34.2182 40.239 34.4513 40.0671 34.6232C39.8952 34.7951 39.6621 34.8917 39.419 34.8917H38.6537L37.1277 42.0315C37.099 42.1649 37.1005 42.3029 37.132 42.4357C37.1635 42.5684 37.2242 42.6924 37.3098 42.7987C37.3953 42.9049 37.5035 42.9908 37.6264 43.0499C37.7494 43.109 37.8839 43.14 38.0204 43.1405H38.6097C38.7525 43.1436 38.8939 43.1118 39.0217 43.0479C39.1494 42.984 39.2597 42.89 39.3429 42.7739C39.5782 42.4278 39.864 42.1189 40.1907 41.8573C41.8284 40.5569 43.0208 38.779 43.6025 36.7704C44.1842 34.7617 44.1265 32.6218 43.4373 30.6474C42.7481 28.6731 41.4615 26.9621 39.7561 25.7518C38.0507 24.5416 36.011 23.892 33.9198 23.8932Z" fill="#BBCEFF"/>
<path d="M52.2505 16.5608H15.589C14.8597 16.5608 14.1604 16.8505 13.6447 17.3661C13.129 17.8818 12.8394 18.5812 12.8394 19.3104V54.1389C12.8394 54.8681 13.129 55.5675 13.6447 56.0831C14.1604 56.5988 14.8597 56.8885 15.589 56.8885H52.2505C52.9798 56.8885 53.6791 56.5988 54.1948 56.0831C54.7104 55.5675 55.0001 54.8681 55.0001 54.1389V19.3104C55.0001 18.5812 54.7104 17.8818 54.1948 17.3661C53.6791 16.8505 52.9798 16.5608 52.2505 16.5608ZM41.3281 43.2953C41.0098 43.5633 40.7555 43.8991 40.5838 44.2782C40.412 44.6572 40.3272 45.0698 40.3355 45.4858V49.5562C40.3355 50.2854 40.0458 50.9848 39.5302 51.5004C39.0145 52.0161 38.3151 52.3058 37.5859 52.3058H30.2536C29.5243 52.3058 28.825 52.0161 28.3093 51.5004C27.7937 50.9848 27.504 50.2854 27.504 49.5562V45.4079C27.51 45.011 27.427 44.6177 27.2611 44.2571C27.0952 43.8964 26.8506 43.5775 26.5453 43.3237C25.089 42.186 23.9197 40.7229 23.1312 39.0516C22.3426 37.3803 21.9568 35.5474 22.0047 33.7001C22.1114 30.6803 23.3466 27.8102 25.4664 25.6569C27.5861 23.5035 30.4364 22.2233 33.4541 22.0692C35.964 21.9696 38.4411 22.6661 40.5311 24.0594C42.6212 25.4526 44.2171 27.471 45.0907 29.826C45.9644 32.181 46.0709 34.752 45.3951 37.1712C44.7193 39.5904 43.2958 41.734 41.3281 43.2953Z" fill="#BBCEFF"/>
<path d="M15.5934 45.89C16.3226 45.89 17.022 45.6003 17.5376 45.0847C18.0533 44.569 18.343 43.8697 18.343 43.1404V31.2896C18.3441 30.8362 18.2329 30.3896 18.0192 29.9898C17.8055 29.5899 17.496 29.2492 17.1185 28.9982L16.1149 28.3301L17.5373 26.9076C17.9238 26.5117 18.1869 26.012 18.2947 25.4692C18.4024 24.9265 18.3501 24.3642 18.1442 23.8507C17.9382 23.3371 17.5875 22.8945 17.1347 22.5766C16.6818 22.2587 16.1463 22.0792 15.5934 22.06H10.0941V9.60794L12.3067 7.39542C12.6492 7.05088 12.8421 6.58526 12.8438 6.09943V1.89619C12.8438 1.41003 12.6506 0.943775 12.3069 0.600006C11.9631 0.256238 11.4968 0.0631104 11.0107 0.0631104H7.34452C6.85836 0.0631104 6.39211 0.256238 6.04834 0.600006C5.70457 0.943775 5.51144 1.41003 5.51144 1.89619V6.09943C5.51304 6.58526 5.70601 7.05088 6.04853 7.39542L8.26106 9.60794V22.06H2.76183C2.20774 22.0778 1.67083 22.2566 1.21671 22.5745C0.762586 22.8925 0.410933 23.3359 0.204726 23.8505C-0.00148028 24.3651 -0.0533082 24.9286 0.0555773 25.4722C0.164463 26.0157 0.429345 26.5158 0.817849 26.9113L2.24032 28.3337L1.23671 29.0019C0.859151 29.2529 0.54969 29.5936 0.336005 29.9934C0.12232 30.3933 0.0110721 30.8399 0.012212 31.2932V43.1404C0.012212 43.8697 0.301903 44.569 0.817556 45.0847C1.33321 45.6003 2.03258 45.89 2.76183 45.89H15.5934ZM7.33994 1.89619H11.0061V6.09943L9.17301 7.93251L7.33994 6.09943V1.89619ZM11.0061 29.3923V44.057H7.33994V29.3923H11.0061ZM16.5053 31.2896V43.1404C16.5053 43.3835 16.4088 43.6166 16.2369 43.7885C16.065 43.9604 15.8319 44.057 15.5888 44.057H12.8392V29.3923H14.3973L16.1002 30.527C16.226 30.6105 16.3293 30.7238 16.4008 30.8569C16.4722 30.9899 16.5097 31.1386 16.5099 31.2896H16.5053ZM2.11567 25.6153C1.98186 25.4768 1.89007 25.3032 1.85093 25.1147C1.8118 24.9261 1.82694 24.7303 1.89458 24.55C1.96223 24.3697 2.07962 24.2123 2.23312 24.096C2.38662 23.9798 2.56995 23.9094 2.76183 23.8931H15.5934C15.7852 23.9094 15.9685 23.9798 16.122 24.096C16.2756 24.2122 16.393 24.3695 16.4608 24.5497C16.5286 24.7299 16.544 24.9256 16.5052 25.1142C16.4663 25.3028 16.3749 25.4765 16.2414 25.6153L14.2974 27.5593H4.05781L2.11567 25.6153ZM1.84529 43.1404V31.2896C1.84527 31.1387 1.88248 30.9902 1.95363 30.8572C2.02478 30.7241 2.12766 30.6107 2.25315 30.527L3.95608 29.3923H5.51419V44.057H2.76458C2.64398 44.0573 2.52451 44.0339 2.41299 43.988C2.30147 43.9421 2.20011 43.8746 2.11471 43.7895C2.02931 43.7043 1.96155 43.6032 1.91532 43.4918C1.86909 43.3804 1.84529 43.261 1.84529 43.1404Z" fill="#151A6A"/>
<path d="M42.5222 1.09514C42.2655 0.772345 41.939 0.51183 41.5672 0.333105C41.1955 0.154381 40.7882 0.0620815 40.3757 0.063119H39.4234C38.6942 0.063119 37.9948 0.35281 37.4791 0.868463C36.9635 1.38412 36.6738 2.08349 36.6738 2.81273V10.5712L32.0911 13.6261L27.5084 10.5712V2.81273C27.5084 2.08349 27.2187 1.38412 26.7031 0.868463C26.1874 0.35281 25.488 0.063119 24.7588 0.063119H23.8065C23.3939 0.0621438 22.9865 0.154466 22.6146 0.33318C22.2427 0.511895 21.9161 0.772376 21.6591 1.09514L18.9461 4.48633C18.5559 4.97378 18.3432 5.57953 18.343 6.20393V15.6443C18.3437 16.071 18.4433 16.4918 18.6342 16.8735C18.825 17.2552 19.1018 17.5874 19.4429 17.844L25.6753 22.5183V39.4743C25.6753 40.3168 25.8413 41.1511 26.1637 41.9295C26.4861 42.7079 26.9587 43.4151 27.5545 44.0109C28.1502 44.6067 28.8575 45.0793 29.6359 45.4017C30.4143 45.7241 31.2486 45.89 32.0911 45.89C32.9336 45.89 33.7679 45.7241 34.5463 45.4017C35.3247 45.0793 36.032 44.6067 36.6277 44.0109C37.2235 43.4151 37.6961 42.7079 38.0185 41.9295C38.3409 41.1511 38.5069 40.3168 38.5069 39.4743V22.5183L44.7393 17.844C45.0803 17.5874 45.3572 17.2552 45.548 16.8735C45.7389 16.4918 45.8385 16.071 45.8392 15.6443V6.20393C45.8393 5.57964 45.6269 4.9739 45.237 4.48633L42.5222 1.09514ZM44.0061 15.6443C44.0057 15.7865 43.9724 15.9267 43.9088 16.0539C43.8452 16.1811 43.753 16.2918 43.6395 16.3775L37.0404 21.3268C36.9266 21.4122 36.8342 21.5229 36.7705 21.6502C36.7069 21.7774 36.6738 21.9178 36.6738 22.06V39.4743C36.6738 40.6897 36.191 41.8553 35.3315 42.7147C34.4721 43.5742 33.3065 44.057 32.0911 44.057C30.8757 44.057 29.7101 43.5742 28.8506 42.7147C27.9912 41.8553 27.5084 40.6897 27.5084 39.4743V22.06C27.5084 21.9178 27.4753 21.7774 27.4116 21.6502C27.348 21.5229 27.2556 21.4122 27.1418 21.3268L20.5427 16.3775C20.4292 16.2918 20.337 16.1811 20.2734 16.0539C20.2098 15.9267 20.1765 15.7865 20.1761 15.6443V6.20393C20.1765 5.99593 20.2476 5.79425 20.3777 5.63201L23.0907 2.24081C23.1765 2.13335 23.2854 2.04657 23.4093 1.98692C23.5332 1.92726 23.669 1.89625 23.8065 1.8962H24.7588C25.0019 1.8962 25.235 1.99276 25.4069 2.16464C25.5788 2.33653 25.6753 2.56965 25.6753 2.81273V11.0616C25.6753 11.2124 25.7125 11.361 25.7837 11.494C25.8548 11.627 25.9577 11.7404 26.0832 11.8241L31.5824 15.4903C31.733 15.5908 31.91 15.6444 32.0911 15.6444C32.2722 15.6444 32.4492 15.5908 32.5998 15.4903L38.099 11.8241C38.2245 11.7404 38.3274 11.627 38.3985 11.494C38.4697 11.361 38.5069 11.2124 38.5069 11.0616V2.81273C38.5069 2.56965 38.6034 2.33653 38.7753 2.16464C38.9472 1.99276 39.1803 1.8962 39.4234 1.8962H40.3757C40.5131 1.89586 40.6489 1.9267 40.7727 1.98639C40.8965 2.04608 41.0052 2.13307 41.0906 2.24081L43.8054 5.63201C43.9352 5.79437 44.006 5.99604 44.0061 6.20393V15.6443Z" fill="#151A6A"/>
</svg>
