<svg width="62" height="62" viewBox="0 0 62 62" fill="none" xmlns="http://www.w3.org/2000/svg">
<path d="M31 0C13.881 0 0 13.8789 0 31C0 48.1212 13.8796 62 31 62C48.1218 62 62 48.1212 62 31C62 13.8789 48.1218 0 31 0ZM31 9.26936C36.6646 9.26936 41.2548 13.8611 41.2548 19.5233C41.2548 25.1867 36.6646 29.7772 31 29.7772C25.3381 29.7772 20.7479 25.1867 20.7479 19.5233C20.7479 13.8611 25.3381 9.26936 31 9.26936ZM30.9932 53.8949C25.3436 53.8949 20.1692 51.8373 16.1781 48.4316C15.2059 47.6023 14.6449 46.3863 14.6449 45.1103C14.6449 39.3679 19.2923 34.772 25.0358 34.772H36.9669C42.7118 34.772 47.3415 39.3679 47.3415 45.1103C47.3415 46.3877 46.7832 47.601 45.8096 48.4303C41.8199 51.8373 36.6442 53.8949 30.9932 53.8949Z" fill="#FAFAFA"/>
</svg>
