<svg width="20" height="26" viewBox="0 0 20 26" fill="none" xmlns="http://www.w3.org/2000/svg">
<path d="M13.8622 21.3925L13.8722 21.4077L13.8788 21.4196C13.8804 21.4214 13.8863 21.4281 13.8987 21.4373C13.9183 21.4517 13.9433 21.4642 13.9689 21.471C14.0635 21.4964 14.1849 21.4401 14.2196 21.3106L18.8115 4.17344C18.8281 4.1115 18.8089 4.03173 18.7359 3.96808C18.6733 3.91353 18.6046 3.89966 18.5395 3.92167L3.029 13.1558C2.97069 13.2024 2.94153 13.2391 2.92705 13.2609C2.91169 13.2841 2.90591 13.3009 2.90243 13.3139C2.86772 13.4434 2.94473 13.5529 3.03931 13.5782L7.56683 14.7914L8.29019 14.9852L7.83319 15.5785L3.45209 21.266L5.96439 23.2836L10.4776 17.4264L10.9067 16.8695L11.2912 17.458L13.8622 21.3925Z" stroke="#0070F3" stroke-width="0.998749"/>
</svg>
