<svg width="60" height="60" viewBox="0 0 60 60" fill="none" xmlns="http://www.w3.org/2000/svg">
<rect width="60" height="60" fill="#DEF2FE"/>
<path d="M35.0869 30.6393L35.46 29.8181C35.67 29.3549 35.6794 28.8206 35.4844 28.3499C35.2894 27.8812 34.905 27.5099 34.4307 27.3337L33.6075 27.0356L33.2907 26.1937C33.1125 25.7175 32.7413 25.335 32.2726 25.14C31.8038 24.945 31.2676 24.9543 30.8044 25.1643L30.0001 25.5318L29.1938 25.1643C28.7307 24.9543 28.1963 24.945 27.7257 25.14C27.2569 25.335 26.8857 25.7193 26.7094 26.1937L26.4113 27.0168L25.5694 27.3337C25.0932 27.5118 24.7107 27.8831 24.5157 28.3518C24.3207 28.8206 24.3301 29.3549 24.5401 29.8199L24.9132 30.6112L24.5401 31.4324C24.3301 31.8956 24.3207 32.4299 24.5157 32.9006C24.7107 33.3693 25.0951 33.7406 25.5694 33.9168L26.2501 34.1606V44.0624C26.2501 44.4318 26.4676 44.7656 26.8032 44.9174C27.1388 45.0693 27.5344 45.0093 27.8101 44.7637L30.0001 42.8174L32.19 44.7637C32.3644 44.9193 32.5876 44.9999 32.8125 44.9999C32.9419 44.9999 33.0732 44.9737 33.1969 44.9174C33.5344 44.7656 33.75 44.4318 33.75 44.0624V34.1718L34.4307 33.9168C34.9069 33.7387 35.2894 33.3674 35.4844 32.8987C35.6794 32.4299 35.67 31.8956 35.46 31.4306L35.0869 30.6393ZM30.6226 40.8618C30.4444 40.7043 30.2232 40.6256 30.0001 40.6256C29.7769 40.6256 29.5557 40.7043 29.3776 40.8618L28.1251 41.9756V36.2212C28.4851 36.2812 28.8582 36.2399 29.1938 36.0862L29.9851 35.7131L30.8063 36.0862C31.0482 36.1949 31.3069 36.2512 31.5676 36.2512C31.6726 36.2512 31.7719 36.2081 31.8751 36.1893V41.9756L30.6226 40.8618Z" fill="#009EF7"/>
<path d="M41.25 15H18.75C16.6875 15 15 16.6875 15 18.75V38.7506C15 40.8131 16.6875 42.5006 18.75 42.5006H23.7506V40.0013H18.75C18.0619 40.0013 17.4994 39.4388 17.4994 38.7506V21.2512H42.5006V38.7506C42.5006 39.4388 41.9381 40.0013 41.25 40.0013H36.2494V42.5006H41.25C43.3125 42.5006 45 40.8131 45 38.7506V18.75C45 16.6875 43.3125 15 41.25 15Z" fill="#009EF7"/>
</svg>
